<svg xmlns="http://www.w3.org/2000/svg" xmlns:xlink="http://www.w3.org/1999/xlink" width="400" zoomAndPan="magnify" viewBox="0 0 300 383.999986" height="512" preserveAspectRatio="xMidYMid meet" version="1.2"><defs><clipPath id="5a524a58ef"><path d="M 5.25 1 L 290 1 L 290 357 L 5.25 357 Z M 5.25 1 "/></clipPath></defs><g id="2022070359"><g clip-rule="nonzero" clip-path="url(#5a524a58ef)"><path style=" stroke:none;fill-rule:nonzero;fill:#2e3192;fill-opacity:1;" d="M 289.777344 136.144531 C 289.3125 134.417969 283.089844 128.082031 281.59375 127.851562 C 280.097656 127.625 271.335938 130.617188 270.988281 130.617188 C 270.644531 130.617188 266.839844 130.847656 264.996094 130.847656 C 263.152344 130.847656 244.710938 127.621094 242.746094 127.046875 C 240.789062 126.46875 232.144531 124.050781 225.226562 121.976562 C 218.3125 119.902344 211.742188 121.167969 211.742188 121.167969 L 198.253906 120.25 C 198.832031 118.292969 198.371094 108.152344 198.371094 108.152344 C 198.371094 108.152344 197.5625 107.691406 195.371094 107.808594 C 193.183594 107.925781 186.730469 107.117188 184.308594 106.886719 C 181.890625 106.65625 179.464844 106.425781 175.777344 104.929688 C 172.089844 103.429688 162.523438 101.242188 160.101562 102.167969 C 157.683594 103.089844 148.460938 103.316406 144.425781 103.777344 C 140.390625 104.238281 132.554688 110 132.554688 110 C 132.554688 110 131.402344 109.308594 130.132812 108.273438 C 128.863281 107.238281 128.171875 104.816406 128.171875 104.816406 L 126.5625 104.703125 C 126.5625 104.703125 126.445312 102.742188 126.445312 102.054688 C 126.445312 101.363281 126.675781 100.097656 126.675781 100.097656 L 128.980469 98.828125 C 128.980469 98.828125 129.902344 98.25 131.75 96.75 C 133.59375 95.253906 132.210938 92.144531 132.09375 91.683594 C 131.976562 91.222656 131.171875 85.117188 130.710938 84.425781 C 130.25 83.734375 128.519531 80.96875 128.519531 80.046875 C 128.519531 79.125 126.910156 76.703125 126.910156 76.703125 C 126.910156 76.703125 123.679688 76.242188 123.105469 76.242188 C 122.527344 76.242188 120.222656 75.320312 119.066406 74.628906 C 117.917969 73.9375 115.148438 73.363281 113.652344 72.785156 C 112.152344 72.210938 109.960938 71.402344 109.15625 71.289062 C 108.351562 71.175781 107.429688 70.253906 107.429688 70.253906 C 107.429688 70.253906 105.699219 68.757812 105.121094 68.296875 C 104.546875 67.835938 101.78125 68.871094 98.550781 70.140625 C 95.324219 71.40625 83.800781 83.042969 82.183594 85.347656 C 80.570312 87.652344 80.570312 93.183594 80.570312 96.0625 C 80.570312 98.945312 83.335938 103.09375 85.0625 106.664062 C 86.792969 110.238281 92.785156 111.503906 94.285156 112.082031 C 95.785156 112.65625 99.242188 110.699219 99.242188 110.699219 L 101.429688 112.3125 L 96.125 120.144531 C 96.125 120.144531 97.046875 124.753906 96.585938 125.558594 C 96.125 126.367188 92.09375 126.25 92.09375 126.25 C 92.09375 126.25 87.136719 129.9375 85.636719 131.089844 C 84.140625 132.242188 76.417969 139.84375 74.457031 142.496094 C 72.496094 145.148438 67.195312 152.058594 66.621094 152.289062 C 66.042969 152.519531 60.164062 153.328125 59.820312 154.015625 C 59.472656 154.707031 59.128906 157.472656 57.976562 159.203125 C 56.820312 160.929688 55.671875 160.585938 54.402344 161.507812 C 53.132812 162.429688 52.902344 163.925781 52.902344 163.925781 C 52.902344 163.925781 48.175781 159.664062 47.253906 157.589844 C 46.332031 155.515625 41.378906 142.84375 40.457031 140.078125 C 39.535156 137.316406 40.339844 133.625 40.917969 132.476562 C 41.492188 131.324219 42.070312 127.0625 41.261719 125.679688 C 40.457031 124.296875 37.800781 117.386719 37.800781 117.386719 C 37.800781 117.386719 42.527344 111.046875 42.875 110.011719 C 43.21875 108.972656 43.679688 105.976562 43.679688 105.976562 L 45.984375 99.0625 L 71 57.125 C 71 57.125 77.914062 60.234375 89.902344 54.820312 C 101.886719 49.40625 106.039062 30.972656 106.5 20.601562 C 106.960938 10.230469 100.273438 5.394531 93.589844 2.746094 C 86.902344 0.09375 77.453125 4.585938 68.921875 14.035156 C 60.394531 23.484375 58.664062 34.542969 58.664062 41.457031 C 58.664062 48.367188 67.421875 55.742188 67.421875 55.742188 L 43.691406 98.363281 C 43.691406 98.363281 39.65625 103.082031 39.078125 103.429688 C 38.503906 103.773438 34.699219 108.726562 34.699219 108.726562 C 34.699219 108.726562 32.972656 108.378906 31.472656 109.417969 C 29.972656 110.457031 29.859375 114.484375 29.859375 114.484375 C 29.859375 114.484375 28.132812 114.601562 26.289062 115.0625 C 24.445312 115.523438 25.019531 120.476562 25.019531 120.476562 C 22.367188 121.054688 23.175781 124.046875 23.175781 124.046875 C 23.175781 124.046875 22.140625 124.855469 21.214844 125.890625 C 20.292969 126.929688 21.101562 130.957031 21.101562 130.957031 C 19.371094 131.878906 19.71875 134.761719 20.753906 135.453125 C 21.792969 136.144531 26.632812 141.441406 26.632812 141.441406 C 26.632812 141.441406 28.9375 145.933594 29.976562 150.425781 C 31.015625 154.917969 31.128906 165.171875 31.242188 166.785156 C 31.359375 168.398438 32.742188 171.855469 33.320312 173.003906 C 33.898438 174.160156 38.390625 182.109375 39.082031 184.183594 C 39.773438 186.253906 43 193.054688 45.421875 194.550781 C 47.839844 196.050781 55.449219 194.320312 57.0625 193.285156 C 58.675781 192.246094 64.09375 187.40625 64.554688 187.0625 C 65.015625 186.714844 66.910156 185.964844 66.910156 185.964844 L 75.035156 181.453125 C 75.035156 181.453125 82.707031 178.292969 85.414062 176.941406 C 88.125 175.589844 89.027344 171.980469 89.027344 171.980469 C 89.027344 171.980469 91.933594 173.792969 91.933594 174.609375 C 91.933594 175.425781 93.566406 179.789062 94.386719 181.421875 C 95.203125 183.058594 95.476562 183.601562 99.566406 185.238281 C 103.65625 186.875 103.382812 187.691406 103.382812 187.691406 C 103.382812 187.691406 102.835938 194.777344 102.835938 197.230469 C 102.835938 199.679688 101.199219 204.859375 100.929688 205.949219 C 100.65625 207.042969 101.203125 210.039062 102.566406 212.492188 C 103.929688 214.945312 107.199219 220.667969 108.292969 223.121094 C 109.382812 225.570312 109.109375 228.570312 110.472656 232.386719 C 111.835938 236.199219 116.199219 239.199219 116.199219 239.199219 L 116.742188 252.277344 C 116.742188 252.277344 117.835938 261.273438 114.5625 265.902344 C 111.292969 270.535156 107.476562 287.976562 107.476562 287.976562 L 102.296875 284.976562 C 102.296875 284.976562 100.929688 283.34375 95.753906 281.707031 C 90.574219 280.070312 83.210938 281.707031 78.851562 281.707031 C 74.488281 281.707031 65.761719 280.34375 65.761719 280.34375 L 64.402344 279.253906 C 64.402344 279.253906 62.492188 279.253906 61.675781 279.253906 C 60.855469 279.253906 56.765625 277.074219 56.765625 277.074219 L 57.3125 274.078125 L 54.585938 269.445312 C 54.585938 269.445312 54.585938 266.171875 53.496094 264.539062 C 52.40625 262.90625 49.40625 260.179688 44.226562 259.636719 C 39.046875 259.089844 29.230469 269.992188 29.230469 269.992188 L 28.414062 273.535156 C 28.414062 273.535156 26.234375 275.710938 25.414062 276.257812 C 24.59375 276.804688 21.050781 279.53125 15.875 283.34375 C 10.691406 287.160156 6.875 294.515625 6.058594 302.148438 C 5.242188 309.78125 11.785156 311.6875 14.511719 311.957031 C 17.238281 312.230469 20.78125 307.871094 23.78125 305.960938 C 26.78125 304.054688 30.050781 302.417969 31.140625 301.875 C 32.230469 301.328125 37.410156 299.964844 37.410156 299.964844 C 37.410156 299.964844 38.773438 299.964844 40.683594 299.691406 C 42.589844 299.417969 41.773438 298.058594 41.773438 298.058594 L 43.679688 296.148438 L 54.3125 297.238281 L 57.3125 296.964844 L 61.402344 298.328125 C 61.402344 298.328125 72.578125 305.6875 78.851562 308.410156 C 85.121094 311.136719 90.300781 311.410156 90.300781 311.410156 L 88.394531 314.40625 C 88.394531 314.40625 87.574219 319.859375 81.578125 322.308594 C 75.578125 324.761719 64.128906 340.839844 63.039062 347.925781 C 61.949219 355.011719 66.582031 355.828125 69.578125 356.375 C 72.578125 356.917969 72.851562 355.554688 74.484375 353.375 C 76.121094 351.191406 80.210938 349.285156 84.570312 347.378906 C 88.933594 345.472656 90.023438 345.472656 90.023438 345.472656 L 92.203125 346.015625 C 92.203125 346.015625 92.75 347.105469 94.929688 347.652344 C 97.113281 348.199219 97.382812 346.289062 99.292969 344.652344 C 101.199219 343.015625 101.746094 342.472656 101.746094 342.472656 C 101.746094 342.472656 103.382812 343.292969 104.746094 343.5625 C 106.109375 343.835938 106.652344 342.746094 107.199219 340.839844 C 107.746094 338.929688 105.835938 338.660156 105.835938 338.660156 C 105.835938 338.660156 108.835938 337.296875 109.925781 337.023438 C 111.015625 336.75 114.289062 337.023438 115.921875 336.75 C 117.558594 336.476562 119.195312 335.664062 120.289062 335.664062 C 121.378906 335.664062 124.648438 335.664062 124.648438 335.664062 L 125.46875 334.574219 L 130.101562 334.027344 C 130.101562 334.027344 157.089844 335.390625 163.089844 334.84375 C 169.089844 334.296875 185.992188 335.390625 190.351562 334.027344 C 194.714844 332.664062 200.4375 327.484375 202.074219 316.859375 C 203.710938 306.230469 201.800781 275.160156 201.800781 275.160156 C 201.800781 275.160156 201.53125 273.527344 201.53125 272.4375 C 201.53125 271.347656 199.347656 259.355469 198.804688 256.085938 C 198.257812 252.816406 195.53125 245.1875 193.894531 242.734375 C 192.257812 240.28125 191.171875 238.101562 191.171875 235.917969 C 191.171875 233.738281 192.535156 230.46875 191.714844 227.46875 C 190.898438 224.46875 190.078125 220.929688 190.351562 219.292969 C 190.625 217.660156 190.078125 214.355469 190.078125 214.355469 C 190.191406 212.972656 189.039062 212.050781 187.195312 211.476562 C 185.351562 210.898438 183.621094 209.746094 183.621094 209.746094 C 183.621094 209.746094 183.738281 203.53125 183.507812 202.722656 C 183.277344 201.914062 182.355469 199.609375 182.007812 197.421875 C 181.660156 195.234375 182.125 194.65625 182.929688 192.585938 C 183.734375 190.507812 182.8125 185.671875 182.125 183.253906 C 181.429688 180.832031 180.164062 181.640625 179.46875 180.140625 C 178.78125 178.644531 180.277344 178.875 180.96875 176.914062 C 181.660156 174.957031 179.007812 171.617188 178.78125 170.925781 C 178.550781 170.234375 175.550781 166.316406 174.167969 165.511719 C 172.785156 164.703125 172.441406 163.894531 172.210938 163.089844 C 171.980469 162.28125 172.789062 162.511719 173.941406 162.167969 C 175.089844 161.824219 173.480469 157.5625 172.789062 154.566406 C 172.097656 151.574219 165.644531 139.59375 165.644531 139.59375 C 165.644531 139.59375 165.296875 138.441406 165.410156 138.097656 C 165.527344 137.75 166.910156 136.714844 167.488281 136.367188 C 168.066406 136.023438 169.445312 136.484375 169.792969 136.597656 C 170.136719 136.714844 172.214844 138.324219 173.828125 138.441406 C 175.445312 138.558594 178.09375 137.632812 179.132812 137.289062 C 180.167969 136.941406 185.355469 137.402344 186.855469 137.519531 C 188.351562 137.632812 196.074219 138.210938 196.652344 138.210938 C 197.230469 138.210938 202.992188 139.59375 203.800781 140.285156 C 204.605469 140.976562 208.410156 142.820312 214.402344 143.972656 C 220.398438 145.121094 231.574219 144.085938 234.34375 143.855469 C 237.109375 143.625 249.792969 142.011719 253.476562 141.78125 C 257.164062 141.550781 263.160156 141.203125 263.621094 142.242188 C 264.082031 143.28125 269.960938 145.695312 272.265625 145.695312 C 274.570312 145.695312 275.492188 144.082031 275.839844 143.621094 C 276.183594 143.160156 278.488281 143.277344 278.488281 143.277344 L 276.878906 145.351562 C 276.878906 145.351562 274.6875 148.234375 274.6875 149.5 C 274.6875 150.765625 276.992188 150.996094 277.683594 150.765625 C 278.375 150.539062 281.257812 148.347656 281.257812 148.347656 C 281.257812 148.347656 282.179688 149.5 282.988281 149.382812 C 283.792969 149.269531 288.058594 143.046875 288.058594 143.046875 C 288.058594 143.046875 290.238281 137.875 289.777344 136.144531 Z M 167.71875 300.25 C 170.71875 303.792969 171.261719 305.972656 171.261719 305.972656 C 171.261719 305.972656 163.902344 303.796875 160.085938 305.15625 C 156.269531 306.519531 151.089844 310.332031 151.089844 310.332031 C 151.089844 310.332031 139.097656 312.515625 133.640625 313.605469 C 133.640625 313.605469 140.457031 300.523438 141.003906 296.707031 C 141.546875 292.894531 143.457031 278.445312 143.457031 278.445312 C 143.457031 278.445312 148.632812 270.542969 149.726562 268.636719 C 150.816406 266.730469 153.546875 264.277344 153.546875 264.277344 C 153.546875 264.277344 157.089844 279.535156 159.273438 280.898438 C 159.269531 280.902344 164.722656 296.707031 167.71875 300.25 Z M 167.71875 300.25 "/></g><g style="fill:#000000;fill-opacity:1;"><g transform="translate(127.672553, 363.374971)"><path style="stroke:none" d="M 11.921875 -9.15625 C 11.867188 -9.132812 11.84375 -9.101562 11.84375 -9.0625 C 11.84375 -9.019531 11.867188 -8.984375 11.921875 -8.953125 C 13.492188 -8.171875 14.28125 -6.820312 14.28125 -4.90625 C 14.28125 -3.28125 13.726562 -2.054688 12.625 -1.234375 C 11.519531 -0.410156 10.078125 0 8.296875 0 L 1.953125 0 C 1.671875 0 1.53125 -0.140625 1.53125 -0.421875 L 1.53125 -17.078125 C 1.53125 -17.359375 1.671875 -17.5 1.953125 -17.5 L 8.09375 -17.5 C 12.050781 -17.5 14.03125 -15.898438 14.03125 -12.703125 C 14.03125 -11.015625 13.328125 -9.832031 11.921875 -9.15625 Z M 5.203125 -14.46875 C 5.097656 -14.46875 5.046875 -14.421875 5.046875 -14.328125 L 5.046875 -10.46875 C 5.046875 -10.375 5.097656 -10.328125 5.203125 -10.328125 L 8.09375 -10.328125 C 8.882812 -10.328125 9.492188 -10.507812 9.921875 -10.875 C 10.359375 -11.238281 10.578125 -11.738281 10.578125 -12.375 C 10.578125 -13.019531 10.359375 -13.53125 9.921875 -13.90625 C 9.492188 -14.28125 8.882812 -14.46875 8.09375 -14.46875 Z M 8.296875 -3.046875 C 9.066406 -3.046875 9.664062 -3.238281 10.09375 -3.625 C 10.53125 -4.019531 10.75 -4.5625 10.75 -5.25 C 10.75 -5.9375 10.53125 -6.472656 10.09375 -6.859375 C 9.664062 -7.253906 9.0625 -7.453125 8.28125 -7.453125 L 5.203125 -7.453125 C 5.097656 -7.453125 5.046875 -7.398438 5.046875 -7.296875 L 5.046875 -3.203125 C 5.046875 -3.097656 5.097656 -3.046875 5.203125 -3.046875 Z M 8.296875 -3.046875 "/></g></g><g style="fill:#000000;fill-opacity:1;"><g transform="translate(144.995084, 363.374971)"><path style="stroke:none" d="M 12.78125 0 C 12.539062 0 12.378906 -0.113281 12.296875 -0.34375 L 11.59375 -2.671875 C 11.582031 -2.753906 11.535156 -2.796875 11.453125 -2.796875 L 5.328125 -2.796875 C 5.242188 -2.796875 5.191406 -2.753906 5.171875 -2.671875 L 4.46875 -0.34375 C 4.382812 -0.113281 4.226562 0 4 0 L 1.09375 0 C 0.945312 0 0.835938 -0.046875 0.765625 -0.140625 C 0.703125 -0.234375 0.695312 -0.34375 0.75 -0.46875 L 6.078125 -17.15625 C 6.160156 -17.382812 6.316406 -17.5 6.546875 -17.5 L 10.21875 -17.5 C 10.457031 -17.5 10.617188 -17.382812 10.703125 -17.15625 L 16.03125 -0.46875 C 16.039062 -0.4375 16.046875 -0.390625 16.046875 -0.328125 C 16.046875 -0.222656 16.007812 -0.140625 15.9375 -0.078125 C 15.875 -0.0234375 15.785156 0 15.671875 0 Z M 6.046875 -5.703125 C 6.035156 -5.585938 6.078125 -5.53125 6.171875 -5.53125 L 10.59375 -5.53125 C 10.695312 -5.53125 10.738281 -5.585938 10.71875 -5.703125 L 8.46875 -13.328125 C 8.457031 -13.390625 8.429688 -13.421875 8.390625 -13.421875 C 8.347656 -13.421875 8.3125 -13.390625 8.28125 -13.328125 Z M 6.046875 -5.703125 "/></g></g><g style="fill:#000000;fill-opacity:1;"><g transform="translate(163.592419, 363.374971)"><path style="stroke:none" d="M 1.953125 0 C 1.671875 0 1.53125 -0.140625 1.53125 -0.421875 L 1.53125 -17.078125 C 1.53125 -17.359375 1.671875 -17.5 1.953125 -17.5 L 8.078125 -17.5 C 9.328125 -17.5 10.421875 -17.273438 11.359375 -16.828125 C 12.304688 -16.390625 13.035156 -15.769531 13.546875 -14.96875 C 14.066406 -14.175781 14.328125 -13.253906 14.328125 -12.203125 L 14.328125 -5.296875 C 14.328125 -4.242188 14.066406 -3.316406 13.546875 -2.515625 C 13.035156 -1.722656 12.304688 -1.101562 11.359375 -0.65625 C 10.421875 -0.21875 9.328125 0 8.078125 0 Z M 5.046875 -3.171875 C 5.046875 -3.078125 5.097656 -3.03125 5.203125 -3.03125 L 8.203125 -3.03125 C 8.960938 -3.03125 9.582031 -3.285156 10.0625 -3.796875 C 10.539062 -4.316406 10.785156 -5.007812 10.796875 -5.875 L 10.796875 -11.625 C 10.796875 -12.488281 10.554688 -13.175781 10.078125 -13.6875 C 9.609375 -14.207031 8.972656 -14.46875 8.171875 -14.46875 L 5.203125 -14.46875 C 5.097656 -14.46875 5.046875 -14.421875 5.046875 -14.328125 Z M 5.046875 -3.171875 "/></g></g><g style="fill:#000000;fill-opacity:1;"><g transform="translate(180.864962, 363.374971)"><path style="stroke:none" d="M 1.96875 0 C 1.6875 0 1.546875 -0.140625 1.546875 -0.421875 L 1.546875 -17.078125 C 1.546875 -17.359375 1.6875 -17.5 1.96875 -17.5 L 4.65625 -17.5 C 4.863281 -17.5 5.03125 -17.40625 5.15625 -17.21875 L 8.78125 -11.375 C 8.8125 -11.320312 8.847656 -11.296875 8.890625 -11.296875 C 8.929688 -11.296875 8.957031 -11.320312 8.96875 -11.375 L 12.65625 -17.21875 C 12.769531 -17.40625 12.9375 -17.5 13.15625 -17.5 L 15.828125 -17.5 C 16.109375 -17.5 16.25 -17.359375 16.25 -17.078125 L 16.25 -0.421875 C 16.25 -0.140625 16.109375 0 15.828125 0 L 13.15625 0 C 12.863281 0 12.71875 -0.140625 12.71875 -0.421875 L 12.71875 -11.25 C 12.71875 -11.3125 12.695312 -11.351562 12.65625 -11.375 C 12.613281 -11.394531 12.578125 -11.367188 12.546875 -11.296875 L 10.03125 -7.171875 C 9.90625 -6.992188 9.738281 -6.90625 9.53125 -6.90625 L 8.25 -6.90625 C 8.03125 -6.90625 7.863281 -6.992188 7.75 -7.171875 L 5.25 -11.296875 C 5.21875 -11.367188 5.179688 -11.394531 5.140625 -11.375 C 5.097656 -11.351562 5.078125 -11.3125 5.078125 -11.25 L 5.078125 -0.421875 C 5.078125 -0.140625 4.9375 0 4.65625 0 Z M 1.96875 0 "/></g></g><g style="fill:#000000;fill-opacity:1;"><g transform="translate(200.462132, 363.374971)"><path style="stroke:none" d="M 1.953125 0 C 1.671875 0 1.53125 -0.140625 1.53125 -0.421875 L 1.53125 -17.078125 C 1.53125 -17.359375 1.671875 -17.5 1.953125 -17.5 L 4.625 -17.5 C 4.90625 -17.5 5.046875 -17.359375 5.046875 -17.078125 L 5.046875 -0.421875 C 5.046875 -0.140625 4.90625 0 4.625 0 Z M 1.953125 0 "/></g></g><g style="fill:#000000;fill-opacity:1;"><g transform="translate(208.861077, 363.374971)"><path style="stroke:none" d="M 1.953125 0 C 1.671875 0 1.53125 -0.140625 1.53125 -0.421875 L 1.53125 -17.078125 C 1.53125 -17.359375 1.671875 -17.5 1.953125 -17.5 L 4.53125 -17.5 C 4.738281 -17.5 4.90625 -17.40625 5.03125 -17.21875 L 11.28125 -6.828125 C 11.3125 -6.753906 11.347656 -6.726562 11.390625 -6.75 C 11.429688 -6.769531 11.453125 -6.8125 11.453125 -6.875 L 11.453125 -17.078125 C 11.453125 -17.359375 11.59375 -17.5 11.875 -17.5 L 14.5 -17.5 C 14.78125 -17.5 14.921875 -17.359375 14.921875 -17.078125 L 14.921875 -0.421875 C 14.921875 -0.140625 14.78125 0 14.5 0 L 11.953125 0 C 11.753906 0 11.585938 -0.0976562 11.453125 -0.296875 L 5.171875 -10.796875 C 5.140625 -10.867188 5.101562 -10.894531 5.0625 -10.875 C 5.019531 -10.851562 5 -10.8125 5 -10.75 L 5.03125 -0.421875 C 5.03125 -0.140625 4.882812 0 4.59375 0 Z M 1.953125 0 "/></g></g><g style="fill:#000000;fill-opacity:1;"><g transform="translate(227.133456, 363.374971)"><path style="stroke:none" d="M 13.46875 -17.5 C 13.757812 -17.5 13.90625 -17.359375 13.90625 -17.078125 L 13.90625 -14.875 C 13.90625 -14.59375 13.757812 -14.453125 13.46875 -14.453125 L 9.15625 -14.453125 C 9.050781 -14.453125 9 -14.398438 9 -14.296875 L 9 -0.421875 C 9 -0.140625 8.859375 0 8.578125 0 L 5.90625 0 C 5.613281 0 5.46875 -0.140625 5.46875 -0.421875 L 5.46875 -14.296875 C 5.46875 -14.398438 5.421875 -14.453125 5.328125 -14.453125 L 1.125 -14.453125 C 0.84375 -14.453125 0.703125 -14.59375 0.703125 -14.875 L 0.703125 -17.078125 C 0.703125 -17.359375 0.84375 -17.5 1.125 -17.5 Z M 13.46875 -17.5 "/></g></g><g style="fill:#000000;fill-opacity:1;"><g transform="translate(243.581132, 363.374971)"><path style="stroke:none" d="M 7.75 0.28125 C 6.445312 0.28125 5.300781 0.015625 4.3125 -0.515625 C 3.320312 -1.054688 2.550781 -1.804688 2 -2.765625 C 1.445312 -3.722656 1.171875 -4.828125 1.171875 -6.078125 L 1.171875 -11.421875 C 1.171875 -12.660156 1.445312 -13.753906 2 -14.703125 C 2.550781 -15.648438 3.320312 -16.382812 4.3125 -16.90625 C 5.300781 -17.4375 6.445312 -17.703125 7.75 -17.703125 C 9.0625 -17.703125 10.210938 -17.4375 11.203125 -16.90625 C 12.203125 -16.382812 12.972656 -15.648438 13.515625 -14.703125 C 14.066406 -13.753906 14.34375 -12.660156 14.34375 -11.421875 L 14.34375 -6.078125 C 14.34375 -4.828125 14.066406 -3.71875 13.515625 -2.75 C 12.972656 -1.78125 12.203125 -1.03125 11.203125 -0.5 C 10.210938 0.0195312 9.0625 0.28125 7.75 0.28125 Z M 7.75 -2.75 C 8.664062 -2.75 9.40625 -3.039062 9.96875 -3.625 C 10.539062 -4.207031 10.828125 -4.984375 10.828125 -5.953125 L 10.828125 -11.453125 C 10.828125 -12.421875 10.546875 -13.195312 9.984375 -13.78125 C 9.429688 -14.375 8.6875 -14.671875 7.75 -14.671875 C 6.832031 -14.671875 6.09375 -14.375 5.53125 -13.78125 C 4.976562 -13.195312 4.703125 -12.421875 4.703125 -11.453125 L 4.703125 -5.953125 C 4.703125 -4.984375 4.976562 -4.207031 5.53125 -3.625 C 6.09375 -3.039062 6.832031 -2.75 7.75 -2.75 Z M 7.75 -2.75 "/></g></g><g style="fill:#000000;fill-opacity:1;"><g transform="translate(260.928657, 363.374971)"><path style="stroke:none" d="M 1.953125 0 C 1.671875 0 1.53125 -0.140625 1.53125 -0.421875 L 1.53125 -17.078125 C 1.53125 -17.359375 1.671875 -17.5 1.953125 -17.5 L 4.53125 -17.5 C 4.738281 -17.5 4.90625 -17.40625 5.03125 -17.21875 L 11.28125 -6.828125 C 11.3125 -6.753906 11.347656 -6.726562 11.390625 -6.75 C 11.429688 -6.769531 11.453125 -6.8125 11.453125 -6.875 L 11.453125 -17.078125 C 11.453125 -17.359375 11.59375 -17.5 11.875 -17.5 L 14.5 -17.5 C 14.78125 -17.5 14.921875 -17.359375 14.921875 -17.078125 L 14.921875 -0.421875 C 14.921875 -0.140625 14.78125 0 14.5 0 L 11.953125 0 C 11.753906 0 11.585938 -0.0976562 11.453125 -0.296875 L 5.171875 -10.796875 C 5.140625 -10.867188 5.101562 -10.894531 5.0625 -10.875 C 5.019531 -10.851562 5 -10.8125 5 -10.75 L 5.03125 -0.421875 C 5.03125 -0.140625 4.882812 0 4.59375 0 Z M 1.953125 0 "/></g></g><g style="fill:#000000;fill-opacity:1;"><g transform="translate(279.207701, 363.374971)"><path style="stroke:none" d=""/></g></g></g></svg>