<svg xmlns="http://www.w3.org/2000/svg" xmlns:xlink="http://www.w3.org/1999/xlink" width="400" zoomAndPan="magnify" viewBox="0 0 300 383.999986" height="512" preserveAspectRatio="xMidYMid meet" version="1.2"><defs><clipPath id="2f99a11067"><path d="M 0 5.378906 L 300 5.378906 L 300 378.878906 L 0 378.878906 Z M 0 5.378906 "/></clipPath></defs><g id="501459f722"><g clip-rule="nonzero" clip-path="url(#2f99a11067)"><path style=" stroke:none;fill-rule:nonzero;fill:#e68b53;fill-opacity:1;" d="M 43.6875 5.386719 C 45.027344 6.003906 46.492188 5.804688 47.886719 6.023438 C 64.167969 8.597656 75.171875 24.507812 71.742188 40.605469 C 71.351562 42.429688 70.886719 44.253906 70.277344 46.023438 C 67.808594 53.214844 63.265625 58.414062 56.097656 61.417969 C 47.0625 65.191406 38.195312 65.996094 29.386719 61.019531 C 25.214844 58.660156 21.785156 55.441406 19.074219 51.476562 C 18.285156 50.328125 17.496094 49.175781 16.5 47.714844 C 15.132812 51.761719 13.820312 55.429688 12.652344 59.144531 C 11.910156 61.511719 13.097656 63.300781 14.796875 64.78125 C 18.363281 67.878906 21.925781 70.976562 25.546875 74.007812 C 27.875 75.957031 30.070312 78.039062 32.160156 80.234375 C 35.289062 83.53125 38.421875 86.734375 42.519531 88.976562 C 46.140625 90.953125 48.875 94.164062 51.507812 97.292969 C 54.292969 100.609375 57.992188 102.527344 61.554688 104.695312 C 62.65625 105.359375 63.949219 105.253906 65.210938 105.121094 C 74.394531 104.179688 83.382812 104.597656 91.859375 108.78125 C 93.246094 109.464844 94.566406 109.238281 96.003906 108.828125 C 101.390625 107.308594 106.714844 105.570312 112.414062 105.332031 C 118.183594 105.09375 123.277344 106.625 128.085938 109.710938 C 130.785156 111.441406 132.78125 111.035156 134.84375 109.132812 C 135.964844 108.097656 136.304688 106.910156 136.03125 105.519531 C 134.917969 99.894531 133.152344 94.753906 127.734375 91.570312 C 117.773438 85.71875 115.875 70.519531 120.605469 64.019531 C 121.925781 62.207031 123.210938 60.324219 125.042969 59.070312 C 134.699219 52.464844 144.898438 49.109375 156.433594 54.128906 C 159.457031 55.441406 161.621094 58.054688 164.75 59.269531 C 165.984375 59.753906 166.78125 61.578125 166.746094 62.890625 C 166.621094 67.28125 169.898438 68.191406 172.894531 69.390625 C 176.5625 70.863281 176.617188 70.804688 175.449219 74.578125 C 175.136719 75.585938 175.695312 75.929688 176.378906 76.128906 C 179.136719 76.90625 179.734375 79.890625 181.777344 81.382812 C 181.988281 81.535156 182.089844 82.152344 181.957031 82.371094 C 180.515625 84.710938 181.503906 87.226562 181.304688 89.652344 C 181.035156 92.835938 179.261719 95.132812 176.457031 96.511719 C 174.953125 97.253906 173.28125 97.671875 171.667969 98.15625 C 166.441406 99.714844 164.367188 103.175781 165.507812 108.582031 C 165.6875 109.445312 166.023438 110.28125 166.242188 111.148438 C 166.535156 112.34375 167.191406 112.839844 168.511719 112.859375 C 173.253906 112.925781 177.140625 114.890625 180.800781 117.933594 C 186.832031 122.949219 192.230469 128.386719 195.566406 135.609375 C 195.9375 136.417969 196.554688 137.1875 196.679688 138.023438 C 197.324219 142.582031 200.203125 145.546875 203.472656 148.4375 C 206.953125 151.515625 209.652344 155.335938 212.265625 159.167969 C 213.136719 160.441406 214.136719 161.179688 215.703125 161.285156 C 222.042969 161.722656 227.800781 163.984375 233.425781 166.808594 C 240.050781 170.132812 247.332031 171.265625 254.570312 172.0625 C 258.925781 172.546875 262.410156 170.066406 265.207031 166.84375 C 266.507812 165.34375 267.867188 163.917969 269.691406 163.128906 C 272.515625 161.894531 274.089844 159.632812 275.15625 156.90625 C 275.414062 156.238281 275.527344 155.394531 276.390625 155.375 C 277.40625 155.355469 277.625 156.304688 277.855469 157.039062 C 278.964844 160.582031 276.972656 163.035156 274.710938 165.265625 C 272.949219 166.996094 272.675781 168.585938 274.167969 170.65625 C 275.632812 172.6875 277.339844 173.058594 279.449219 171.984375 C 282.890625 170.246094 286.550781 169.144531 290.292969 168.300781 C 291.160156 168.097656 292.050781 167.976562 292.9375 167.898438 C 294.125 167.796875 295.550781 167.796875 295.796875 169.191406 C 296.042969 170.589844 294.761719 171.074219 293.5625 171.339844 C 290.140625 172.109375 286.988281 173.554688 283.890625 175.121094 C 282.824219 175.65625 281.199219 175.957031 281.675781 177.621094 C 282.148438 179.292969 283.785156 178.609375 284.886719 178.554688 C 287.101562 178.429688 289.296875 177.964844 291.519531 177.78125 C 293.105469 177.648438 294.730469 177.660156 296.320312 177.792969 C 297.695312 177.917969 299.21875 178.4375 299.152344 180.0625 C 299.074219 181.945312 297.296875 181.402344 296.214844 181.367188 C 291.492188 181.195312 287.167969 183.695312 282.359375 183.152344 C 283.726562 184.757812 285.550781 184.683594 287.195312 185.023438 C 290.597656 185.726562 294.039062 186.242188 297.441406 186.90625 C 298.628906 187.144531 300.292969 187.4375 299.902344 189.0625 C 299.558594 190.480469 298.066406 190.433594 296.738281 190.117188 C 295.464844 189.8125 294.160156 189.699219 292.574219 190.097656 C 293.980469 191.058594 295.246094 191.828125 296.375 192.75 C 296.871094 193.148438 297.488281 193.84375 296.824219 194.574219 C 296.355469 195.097656 295.71875 194.945312 295.082031 194.707031 C 288.851562 192.3125 282.445312 190.726562 275.8125 189.796875 C 272.410156 189.320312 269.148438 187.902344 265.8125 186.914062 C 262.117188 185.824219 258.363281 185.042969 254.488281 185.546875 C 242.019531 187.171875 229.789062 185.347656 217.566406 183.132812 C 214.410156 182.5625 211.324219 181.640625 208.09375 181.5 C 205.867188 181.394531 204.605469 179.683594 203.160156 178.230469 C 202.464844 179.273438 202.75 180.1875 202.75 181.042969 C 202.769531 191.90625 202.882812 202.777344 202.847656 213.636719 C 202.835938 216.453125 201.15625 218.847656 200.203125 221.421875 C 198.695312 225.507812 196.839844 229.46875 195.738281 233.710938 C 195.585938 234.308594 195.101562 235.097656 195.328125 235.484375 C 197.4375 239.289062 194.84375 242.070312 193.332031 245.054688 C 192.765625 246.1875 192.414062 246.957031 193.46875 248.085938 C 194.644531 249.351562 194.371094 251.109375 194.171875 252.6875 C 193.734375 256.144531 193.457031 259.605469 193.535156 263.082031 C 193.636719 267.890625 192.421875 272.445312 191.035156 276.957031 C 189.257812 282.726562 188.839844 288.457031 190.9375 294.253906 C 191.660156 296.257812 191.957031 298.425781 192.746094 300.402344 C 197.707031 312.878906 196.527344 325.746094 195.28125 338.625 C 195.121094 340.257812 194.558594 341.730469 193.753906 343.136719 C 192.59375 345.144531 191.585938 347.195312 191.15625 349.53125 C 190.71875 351.957031 189.277344 353.582031 186.699219 353.808594 C 185.238281 353.933594 184.136719 354.550781 183.394531 355.738281 C 178.613281 363.445312 170.917969 364.898438 162.78125 365.328125 C 159.132812 365.515625 155.464844 365.394531 151.832031 364.929688 C 150.332031 364.738281 149.078125 364.957031 147.863281 365.90625 C 146.816406 366.722656 145.628906 367.359375 144.460938 368.007812 C 139.242188 370.886719 134.253906 370.761719 129.597656 366.773438 C 129.53125 366.714844 129.445312 366.675781 129.386719 366.601562 C 124.589844 360.707031 117.59375 359.902344 110.828125 358.597656 C 103.566406 357.203125 96.203125 356.574219 88.855469 355.863281 C 86.59375 355.644531 85.367188 356.003906 85.359375 358.695312 C 85.351562 361.109375 84.789062 363.636719 82.109375 364.644531 C 79.476562 365.632812 77.460938 364.101562 75.191406 362.921875 C 71.722656 361.117188 68.28125 358.730469 63.949219 359.617188 C 63.234375 359.757812 62.609375 359.96875 61.980469 360.347656 C 56.480469 363.683594 51.613281 367.722656 47.90625 373.042969 C 45.96875 375.828125 43.003906 377.054688 39.972656 378.148438 C 39.792969 378.148438 39.613281 378.148438 39.441406 378.148438 C 33.699219 376.558594 31.496094 372.246094 30.867188 366.828125 C 30.507812 363.671875 30.726562 360.59375 31.269531 357.375 C 31.722656 354.65625 34.222656 352.601562 33.445312 349.648438 C 33.378906 349.382812 33.871094 348.839844 34.222656 348.621094 C 35.296875 347.972656 35.800781 347.089844 35.953125 345.847656 C 36.078125 344.847656 36.730469 343.992188 37.664062 343.574219 C 38.679688 343.117188 38.792969 342.207031 39.277344 341.417969 C 40.941406 338.699219 43.582031 336.714844 45.332031 334.003906 C 45.578125 333.617188 46.28125 333.683594 46.300781 332.789062 C 46.339844 330.71875 47.707031 329.671875 49.65625 329.320312 C 50.386719 329.1875 51.15625 329.195312 50.664062 328.066406 C 47.972656 321.859375 52.8125 317.800781 55.71875 313.960938 C 59.332031 309.203125 65.449219 309.019531 70.601562 311.632812 C 72.074219 312.375 73.042969 313.296875 72.988281 315.101562 C 72.929688 316.898438 73.859375 318.304688 75.019531 319.617188 C 77.738281 322.6875 80.160156 326.023438 81.996094 329.660156 C 83.449219 332.558594 84.714844 334.042969 87.886719 333.9375 C 92.820312 333.777344 97.742188 333.367188 103.074219 333.035156 C 96.574219 323.503906 91.488281 313.535156 84.550781 304.648438 C 80.226562 299.101562 74.488281 294.945312 70.542969 289.121094 C 69.964844 288.277344 69.289062 288.160156 68.566406 288.855469 C 67.921875 289.464844 67.371094 290.167969 66.753906 290.792969 C 66.050781 291.507812 65.640625 292.820312 64.261719 292.332031 C 63.035156 291.90625 62.609375 290.8125 62.390625 289.617188 C 61.925781 287.03125 62.828125 284.039062 60.167969 282.078125 C 60.050781 281.996094 60.023438 281.746094 60.035156 281.578125 C 60.289062 276.433594 56.097656 274.085938 52.800781 272.207031 C 50.121094 270.675781 47.367188 268.871094 44.152344 267.855469 C 38.738281 266.132812 33.691406 263.320312 27.75 263.480469 C 26.25 263.519531 24.738281 263.207031 23.238281 263.027344 C 21.394531 262.808594 19.835938 262.007812 18.601562 260.621094 C 16.289062 258.019531 16.539062 256.058594 19.597656 254.386719 C 22.722656 252.675781 26.109375 251.527344 29.5 250.414062 C 40.066406 246.945312 51.0625 246.691406 62.011719 246.007812 C 62.449219 245.976562 62.894531 246.140625 63.332031 246.140625 C 66.25 246.15625 69.195312 246.472656 72.066406 246.101562 C 77.644531 245.378906 83.191406 244.582031 88.820312 245.378906 C 92.4375 245.890625 94.09375 249.789062 92.03125 252.726562 C 91.25 253.835938 90.519531 255.042969 90.757812 256.429688 C 91.953125 263.347656 88.648438 270.011719 89.664062 276.910156 C 89.691406 277.070312 89.636719 277.28125 89.550781 277.421875 C 88.980469 278.46875 89.390625 279.179688 90.167969 279.988281 C 93.683594 283.648438 97.296875 287.238281 100.574219 291.109375 C 105.296875 296.65625 112.054688 299.375 117.585938 303.777344 C 117.945312 304.0625 118.324219 304.355469 118.742188 303.945312 C 121.101562 301.675781 123.960938 302.558594 126.632812 302.855469 C 128.75 303.082031 129.015625 302.597656 128.464844 300.628906 C 125.949219 291.773438 124.816406 282.746094 124.332031 273.507812 C 123.914062 265.410156 123.886719 257.34375 123.914062 249.246094 C 123.921875 246.023438 124.484375 242.898438 125.054688 239.734375 C 126.433594 232.082031 132.609375 226.820312 134.679688 219.5 C 135.347656 217.15625 136.238281 215.414062 133.738281 213.800781 C 132.734375 213.152344 132 212.128906 132.742188 210.84375 C 133.445312 209.636719 134.40625 208.726562 135.992188 209.03125 C 136.257812 209.078125 136.523438 209.105469 136.78125 209.164062 C 138.984375 209.65625 139.640625 207.738281 140.714844 206.566406 C 141.816406 205.371094 140.410156 204.667969 139.9375 203.851562 C 138.746094 201.796875 136.695312 200.125 136.753906 197.53125 C 136.78125 196.039062 136.144531 195.039062 135.308594 193.96875 C 130.441406 187.75 125.746094 181.574219 122.042969 174.410156 C 117.5 165.621094 113.785156 156.753906 111.558594 147.171875 C 110.230469 141.453125 107.351562 139.085938 101.582031 138.410156 C 97.582031 137.945312 93.570312 137.859375 89.570312 138.109375 C 84.855469 138.402344 80.464844 137.335938 76.523438 134.960938 C 68.234375 129.992188 59.140625 126.828125 50.378906 122.921875 C 45.710938 120.839844 41.132812 118.417969 37.683594 114.671875 C 31.171875 107.621094 24.339844 100.847656 19.019531 92.730469 C 14.855469 86.390625 12.023438 79.246094 7.214844 73.363281 C 3.871094 69.257812 0.808594 65.09375 -0.652344 59.925781 C -0.652344 58.851562 -0.652344 57.789062 -0.652344 56.714844 C 0.0898438 52.980469 0.554688 49.167969 1.636719 45.539062 C 2.617188 42.25 1.902344 38.667969 3.300781 35.644531 C 4.734375 32.539062 5.75 29.382812 6.472656 26.085938 C 6.902344 24.136719 7.605469 22.398438 9.230469 21.058594 C 12.386719 18.464844 15.445312 15.753906 18.542969 13.09375 C 19.664062 12.132812 20.652344 10.652344 22.105469 12.855469 C 22.773438 13.875 23.285156 12.609375 23.722656 12.265625 C 27.789062 9.09375 32.292969 6.9375 37.40625 6.042969 C 38.976562 5.765625 40.617188 6.0625 42.121094 5.367188 C 42.613281 5.386719 43.148438 5.386719 43.6875 5.386719 Z M 43.6875 5.386719 "/></g><g style="fill:#000000;fill-opacity:1;"><g transform="translate(108.645611, 363.374971)"><path style="stroke:none" d="M 11.921875 -9.15625 C 11.867188 -9.132812 11.84375 -9.101562 11.84375 -9.0625 C 11.84375 -9.019531 11.867188 -8.984375 11.921875 -8.953125 C 13.492188 -8.171875 14.28125 -6.820312 14.28125 -4.90625 C 14.28125 -3.28125 13.726562 -2.054688 12.625 -1.234375 C 11.519531 -0.410156 10.078125 0 8.296875 0 L 1.953125 0 C 1.671875 0 1.53125 -0.140625 1.53125 -0.421875 L 1.53125 -17.078125 C 1.53125 -17.359375 1.671875 -17.5 1.953125 -17.5 L 8.09375 -17.5 C 12.050781 -17.5 14.03125 -15.898438 14.03125 -12.703125 C 14.03125 -11.015625 13.328125 -9.832031 11.921875 -9.15625 Z M 5.203125 -14.46875 C 5.097656 -14.46875 5.046875 -14.421875 5.046875 -14.328125 L 5.046875 -10.46875 C 5.046875 -10.375 5.097656 -10.328125 5.203125 -10.328125 L 8.09375 -10.328125 C 8.882812 -10.328125 9.492188 -10.507812 9.921875 -10.875 C 10.359375 -11.238281 10.578125 -11.738281 10.578125 -12.375 C 10.578125 -13.019531 10.359375 -13.53125 9.921875 -13.90625 C 9.492188 -14.28125 8.882812 -14.46875 8.09375 -14.46875 Z M 8.296875 -3.046875 C 9.066406 -3.046875 9.664062 -3.238281 10.09375 -3.625 C 10.53125 -4.019531 10.75 -4.5625 10.75 -5.25 C 10.75 -5.9375 10.53125 -6.472656 10.09375 -6.859375 C 9.664062 -7.253906 9.0625 -7.453125 8.28125 -7.453125 L 5.203125 -7.453125 C 5.097656 -7.453125 5.046875 -7.398438 5.046875 -7.296875 L 5.046875 -3.203125 C 5.046875 -3.097656 5.097656 -3.046875 5.203125 -3.046875 Z M 8.296875 -3.046875 "/></g></g><g style="fill:#000000;fill-opacity:1;"><g transform="translate(125.968143, 363.374971)"><path style="stroke:none" d="M 12.78125 0 C 12.539062 0 12.378906 -0.113281 12.296875 -0.34375 L 11.59375 -2.671875 C 11.582031 -2.753906 11.535156 -2.796875 11.453125 -2.796875 L 5.328125 -2.796875 C 5.242188 -2.796875 5.191406 -2.753906 5.171875 -2.671875 L 4.46875 -0.34375 C 4.382812 -0.113281 4.226562 0 4 0 L 1.09375 0 C 0.945312 0 0.835938 -0.046875 0.765625 -0.140625 C 0.703125 -0.234375 0.695312 -0.34375 0.75 -0.46875 L 6.078125 -17.15625 C 6.160156 -17.382812 6.316406 -17.5 6.546875 -17.5 L 10.21875 -17.5 C 10.457031 -17.5 10.617188 -17.382812 10.703125 -17.15625 L 16.03125 -0.46875 C 16.039062 -0.4375 16.046875 -0.390625 16.046875 -0.328125 C 16.046875 -0.222656 16.007812 -0.140625 15.9375 -0.078125 C 15.875 -0.0234375 15.785156 0 15.671875 0 Z M 6.046875 -5.703125 C 6.035156 -5.585938 6.078125 -5.53125 6.171875 -5.53125 L 10.59375 -5.53125 C 10.695312 -5.53125 10.738281 -5.585938 10.71875 -5.703125 L 8.46875 -13.328125 C 8.457031 -13.390625 8.429688 -13.421875 8.390625 -13.421875 C 8.347656 -13.421875 8.3125 -13.390625 8.28125 -13.328125 Z M 6.046875 -5.703125 "/></g></g><g style="fill:#000000;fill-opacity:1;"><g transform="translate(144.565477, 363.374971)"><path style="stroke:none" d="M 7.453125 0.203125 C 6.148438 0.203125 5.003906 -0.0078125 4.015625 -0.4375 C 3.035156 -0.875 2.28125 -1.484375 1.75 -2.265625 C 1.21875 -3.054688 0.953125 -3.976562 0.953125 -5.03125 L 0.953125 -5.453125 C 0.953125 -5.734375 1.09375 -5.875 1.375 -5.875 L 4 -5.875 C 4.28125 -5.875 4.421875 -5.765625 4.421875 -5.546875 L 4.421875 -5.203125 C 4.421875 -4.535156 4.722656 -3.972656 5.328125 -3.515625 C 5.941406 -3.054688 6.738281 -2.828125 7.71875 -2.828125 C 8.601562 -2.828125 9.257812 -3.015625 9.6875 -3.390625 C 10.113281 -3.765625 10.328125 -4.226562 10.328125 -4.78125 C 10.328125 -5.175781 10.191406 -5.507812 9.921875 -5.78125 C 9.660156 -6.0625 9.300781 -6.304688 8.84375 -6.515625 C 8.394531 -6.722656 7.671875 -7.007812 6.671875 -7.375 C 5.535156 -7.757812 4.582031 -8.148438 3.8125 -8.546875 C 3.050781 -8.953125 2.40625 -9.5 1.875 -10.1875 C 1.34375 -10.875 1.078125 -11.726562 1.078125 -12.75 C 1.078125 -13.75 1.332031 -14.625 1.84375 -15.375 C 2.363281 -16.125 3.085938 -16.695312 4.015625 -17.09375 C 4.941406 -17.5 5.992188 -17.703125 7.171875 -17.703125 C 8.441406 -17.703125 9.578125 -17.472656 10.578125 -17.015625 C 11.578125 -16.566406 12.351562 -15.9375 12.90625 -15.125 C 13.46875 -14.320312 13.75 -13.390625 13.75 -12.328125 L 13.75 -12.078125 C 13.75 -11.796875 13.609375 -11.65625 13.328125 -11.65625 L 10.703125 -11.65625 C 10.421875 -11.65625 10.28125 -11.738281 10.28125 -11.90625 L 10.28125 -12.15625 C 10.28125 -12.851562 9.988281 -13.445312 9.40625 -13.9375 C 8.832031 -14.425781 8.046875 -14.671875 7.046875 -14.671875 C 6.242188 -14.671875 5.625 -14.503906 5.1875 -14.171875 C 4.757812 -13.835938 4.546875 -13.378906 4.546875 -12.796875 C 4.546875 -12.378906 4.671875 -12.03125 4.921875 -11.75 C 5.171875 -11.46875 5.550781 -11.207031 6.0625 -10.96875 C 6.570312 -10.738281 7.359375 -10.441406 8.421875 -10.078125 C 9.585938 -9.640625 10.507812 -9.257812 11.1875 -8.9375 C 11.875 -8.613281 12.488281 -8.117188 13.03125 -7.453125 C 13.570312 -6.785156 13.84375 -5.925781 13.84375 -4.875 C 13.84375 -3.851562 13.582031 -2.957031 13.0625 -2.1875 C 12.539062 -1.425781 11.800781 -0.835938 10.84375 -0.421875 C 9.882812 -0.00390625 8.753906 0.203125 7.453125 0.203125 Z M 7.453125 0.203125 "/></g></g><g style="fill:#000000;fill-opacity:1;"><g transform="translate(161.188122, 363.374971)"><path style="stroke:none" d="M 1.953125 0 C 1.671875 0 1.53125 -0.140625 1.53125 -0.421875 L 1.53125 -17.078125 C 1.53125 -17.359375 1.671875 -17.5 1.953125 -17.5 L 4.625 -17.5 C 4.90625 -17.5 5.046875 -17.359375 5.046875 -17.078125 L 5.046875 -10.25 C 5.046875 -10.1875 5.066406 -10.144531 5.109375 -10.125 C 5.148438 -10.101562 5.1875 -10.117188 5.21875 -10.171875 L 10.921875 -17.25 C 11.035156 -17.414062 11.210938 -17.5 11.453125 -17.5 L 14.46875 -17.5 C 14.59375 -17.5 14.6875 -17.476562 14.75 -17.4375 C 14.8125 -17.394531 14.84375 -17.332031 14.84375 -17.25 C 14.84375 -17.1875 14.800781 -17.09375 14.71875 -16.96875 L 9.28125 -10.03125 C 9.226562 -9.976562 9.226562 -9.910156 9.28125 -9.828125 L 15.046875 -0.5 C 15.097656 -0.4375 15.125 -0.363281 15.125 -0.28125 C 15.125 -0.09375 15.007812 0 14.78125 0 L 11.75 0 C 11.53125 0 11.363281 -0.09375 11.25 -0.28125 L 6.875 -7.375 C 6.851562 -7.425781 6.816406 -7.453125 6.765625 -7.453125 C 6.722656 -7.453125 6.6875 -7.425781 6.65625 -7.375 L 5.125 -5.421875 C 5.070312 -5.359375 5.046875 -5.300781 5.046875 -5.25 L 5.046875 -0.421875 C 5.046875 -0.140625 4.90625 0 4.625 0 Z M 1.953125 0 "/></g></g><g style="fill:#000000;fill-opacity:1;"><g transform="translate(178.660628, 363.374971)"><path style="stroke:none" d="M 13.671875 -14.90625 C 13.671875 -14.613281 13.53125 -14.46875 13.25 -14.46875 L 5.203125 -14.46875 C 5.097656 -14.46875 5.046875 -14.421875 5.046875 -14.328125 L 5.046875 -10.5 C 5.046875 -10.394531 5.097656 -10.34375 5.203125 -10.34375 L 10.421875 -10.34375 C 10.703125 -10.34375 10.84375 -10.203125 10.84375 -9.921875 L 10.84375 -7.75 C 10.84375 -7.46875 10.703125 -7.328125 10.421875 -7.328125 L 5.203125 -7.328125 C 5.097656 -7.328125 5.046875 -7.273438 5.046875 -7.171875 L 5.046875 -3.171875 C 5.046875 -3.078125 5.097656 -3.03125 5.203125 -3.03125 L 13.25 -3.03125 C 13.53125 -3.03125 13.671875 -2.882812 13.671875 -2.59375 L 13.671875 -0.421875 C 13.671875 -0.140625 13.53125 0 13.25 0 L 1.953125 0 C 1.671875 0 1.53125 -0.140625 1.53125 -0.421875 L 1.53125 -17.078125 C 1.53125 -17.359375 1.671875 -17.5 1.953125 -17.5 L 13.25 -17.5 C 13.53125 -17.5 13.671875 -17.359375 13.671875 -17.078125 Z M 13.671875 -14.90625 "/></g></g><g style="fill:#000000;fill-opacity:1;"><g transform="translate(195.083311, 363.374971)"><path style="stroke:none" d="M 13.46875 -17.5 C 13.757812 -17.5 13.90625 -17.359375 13.90625 -17.078125 L 13.90625 -14.875 C 13.90625 -14.59375 13.757812 -14.453125 13.46875 -14.453125 L 9.15625 -14.453125 C 9.050781 -14.453125 9 -14.398438 9 -14.296875 L 9 -0.421875 C 9 -0.140625 8.859375 0 8.578125 0 L 5.90625 0 C 5.613281 0 5.46875 -0.140625 5.46875 -0.421875 L 5.46875 -14.296875 C 5.46875 -14.398438 5.421875 -14.453125 5.328125 -14.453125 L 1.125 -14.453125 C 0.84375 -14.453125 0.703125 -14.59375 0.703125 -14.875 L 0.703125 -17.078125 C 0.703125 -17.359375 0.84375 -17.5 1.125 -17.5 Z M 13.46875 -17.5 "/></g></g><g style="fill:#000000;fill-opacity:1;"><g transform="translate(211.530987, 363.374971)"><path style="stroke:none" d="M 11.921875 -9.15625 C 11.867188 -9.132812 11.84375 -9.101562 11.84375 -9.0625 C 11.84375 -9.019531 11.867188 -8.984375 11.921875 -8.953125 C 13.492188 -8.171875 14.28125 -6.820312 14.28125 -4.90625 C 14.28125 -3.28125 13.726562 -2.054688 12.625 -1.234375 C 11.519531 -0.410156 10.078125 0 8.296875 0 L 1.953125 0 C 1.671875 0 1.53125 -0.140625 1.53125 -0.421875 L 1.53125 -17.078125 C 1.53125 -17.359375 1.671875 -17.5 1.953125 -17.5 L 8.09375 -17.5 C 12.050781 -17.5 14.03125 -15.898438 14.03125 -12.703125 C 14.03125 -11.015625 13.328125 -9.832031 11.921875 -9.15625 Z M 5.203125 -14.46875 C 5.097656 -14.46875 5.046875 -14.421875 5.046875 -14.328125 L 5.046875 -10.46875 C 5.046875 -10.375 5.097656 -10.328125 5.203125 -10.328125 L 8.09375 -10.328125 C 8.882812 -10.328125 9.492188 -10.507812 9.921875 -10.875 C 10.359375 -11.238281 10.578125 -11.738281 10.578125 -12.375 C 10.578125 -13.019531 10.359375 -13.53125 9.921875 -13.90625 C 9.492188 -14.28125 8.882812 -14.46875 8.09375 -14.46875 Z M 8.296875 -3.046875 C 9.066406 -3.046875 9.664062 -3.238281 10.09375 -3.625 C 10.53125 -4.019531 10.75 -4.5625 10.75 -5.25 C 10.75 -5.9375 10.53125 -6.472656 10.09375 -6.859375 C 9.664062 -7.253906 9.0625 -7.453125 8.28125 -7.453125 L 5.203125 -7.453125 C 5.097656 -7.453125 5.046875 -7.398438 5.046875 -7.296875 L 5.046875 -3.203125 C 5.046875 -3.097656 5.097656 -3.046875 5.203125 -3.046875 Z M 8.296875 -3.046875 "/></g></g><g style="fill:#000000;fill-opacity:1;"><g transform="translate(228.853518, 363.374971)"><path style="stroke:none" d="M 12.78125 0 C 12.539062 0 12.378906 -0.113281 12.296875 -0.34375 L 11.59375 -2.671875 C 11.582031 -2.753906 11.535156 -2.796875 11.453125 -2.796875 L 5.328125 -2.796875 C 5.242188 -2.796875 5.191406 -2.753906 5.171875 -2.671875 L 4.46875 -0.34375 C 4.382812 -0.113281 4.226562 0 4 0 L 1.09375 0 C 0.945312 0 0.835938 -0.046875 0.765625 -0.140625 C 0.703125 -0.234375 0.695312 -0.34375 0.75 -0.46875 L 6.078125 -17.15625 C 6.160156 -17.382812 6.316406 -17.5 6.546875 -17.5 L 10.21875 -17.5 C 10.457031 -17.5 10.617188 -17.382812 10.703125 -17.15625 L 16.03125 -0.46875 C 16.039062 -0.4375 16.046875 -0.390625 16.046875 -0.328125 C 16.046875 -0.222656 16.007812 -0.140625 15.9375 -0.078125 C 15.875 -0.0234375 15.785156 0 15.671875 0 Z M 6.046875 -5.703125 C 6.035156 -5.585938 6.078125 -5.53125 6.171875 -5.53125 L 10.59375 -5.53125 C 10.695312 -5.53125 10.738281 -5.585938 10.71875 -5.703125 L 8.46875 -13.328125 C 8.457031 -13.390625 8.429688 -13.421875 8.390625 -13.421875 C 8.347656 -13.421875 8.3125 -13.390625 8.28125 -13.328125 Z M 6.046875 -5.703125 "/></g></g><g style="fill:#000000;fill-opacity:1;"><g transform="translate(247.450853, 363.374971)"><path style="stroke:none" d="M 1.953125 0 C 1.671875 0 1.53125 -0.140625 1.53125 -0.421875 L 1.53125 -17.078125 C 1.53125 -17.359375 1.671875 -17.5 1.953125 -17.5 L 4.625 -17.5 C 4.90625 -17.5 5.046875 -17.359375 5.046875 -17.078125 L 5.046875 -3.171875 C 5.046875 -3.078125 5.097656 -3.03125 5.203125 -3.03125 L 13.21875 -3.03125 C 13.507812 -3.03125 13.65625 -2.882812 13.65625 -2.59375 L 13.65625 -0.421875 C 13.65625 -0.140625 13.507812 0 13.21875 0 Z M 1.953125 0 "/></g></g><g style="fill:#000000;fill-opacity:1;"><g transform="translate(263.573575, 363.374971)"><path style="stroke:none" d="M 1.953125 0 C 1.671875 0 1.53125 -0.140625 1.53125 -0.421875 L 1.53125 -17.078125 C 1.53125 -17.359375 1.671875 -17.5 1.953125 -17.5 L 4.625 -17.5 C 4.90625 -17.5 5.046875 -17.359375 5.046875 -17.078125 L 5.046875 -3.171875 C 5.046875 -3.078125 5.097656 -3.03125 5.203125 -3.03125 L 13.21875 -3.03125 C 13.507812 -3.03125 13.65625 -2.882812 13.65625 -2.59375 L 13.65625 -0.421875 C 13.65625 -0.140625 13.507812 0 13.21875 0 Z M 1.953125 0 "/></g></g><g style="fill:#000000;fill-opacity:1;"><g transform="translate(279.704195, 363.374971)"><path style="stroke:none" d=""/></g></g></g></svg>