<svg xmlns="http://www.w3.org/2000/svg" xmlns:xlink="http://www.w3.org/1999/xlink" width="400" zoomAndPan="magnify" viewBox="0 0 300 383.999986" height="512" preserveAspectRatio="xMidYMid meet" version="1.2"><defs><clipPath id="98d83b6020"><path d="M 0 39.644531 L 117 39.644531 L 117 372 L 0 372 Z M 0 39.644531 "/></clipPath><clipPath id="cb60f127db"><path d="M 186.785156 51.507812 L 300 51.507812 L 300 374.070312 L 186.785156 374.070312 Z M 186.785156 51.507812 "/></clipPath></defs><g id="74beb0f813"><g clip-rule="nonzero" clip-path="url(#98d83b6020)"><path style=" stroke:none;fill-rule:nonzero;fill:#5fe144;fill-opacity:1;" d="M 116.027344 366.433594 C 115.613281 366.023438 112.320312 366.1875 111.824219 366.105469 C 111.332031 366.023438 110.34375 365.199219 109.023438 364.785156 C 107.707031 364.375 103.339844 362.148438 99.058594 360.089844 C 94.773438 358.03125 88.84375 354.984375 83.324219 350.699219 C 77.804688 346.417969 69.816406 336.945312 66.355469 321.375 C 62.894531 305.808594 59.679688 289.414062 58.363281 282.082031 C 57.046875 274.75 57.375 272.445312 57.375 272.445312 C 57.375 272.445312 63.71875 270.054688 64.128906 267.253906 C 64.542969 264.453125 61.742188 249.542969 59.765625 246.003906 C 57.785156 242.457031 58.035156 239.90625 52.925781 234.964844 C 47.820312 230.023438 46.253906 228.457031 44.277344 227.714844 C 43.289062 226.398438 38.511719 219.972656 32.167969 218.40625 C 25.824219 216.839844 -5.0625 209.316406 -9.015625 209.234375 C -8.113281 205.445312 -12.203125 200.980469 -12.121094 196.203125 C -12.039062 191.425781 -0.71875 177.878906 1.753906 174.996094 C 4.222656 172.109375 11.195312 169.054688 18.789062 157.855469 C 18.789062 157.855469 23.597656 167.667969 25.5625 171.398438 C 27.523438 175.125 30.566406 176.699219 30.566406 176.699219 C 30.566406 176.699219 28.011719 179.050781 26.148438 179.640625 C 24.285156 180.230469 23.894531 181.605469 22.222656 182.976562 C 20.554688 184.355469 19.964844 187.003906 20.949219 187.589844 C 21.929688 188.179688 24.183594 188.082031 25.953125 186.609375 C 27.71875 185.136719 28.109375 183.863281 29.78125 183.566406 C 31.449219 183.273438 34.296875 182.78125 36.453125 182.195312 C 36.257812 184.355469 36.453125 187.589844 38.222656 187.589844 C 39.988281 187.589844 40.574219 185.921875 40.773438 184.253906 C 40.96875 184.058594 41.164062 184.746094 41.164062 184.746094 C 41.164062 184.746094 40.96875 186.511719 40.574219 188.375 C 40.183594 190.242188 39.789062 193.480469 41.65625 193.871094 C 43.519531 194.265625 43.914062 193.285156 44.402344 191.027344 C 44.894531 188.769531 45.679688 187.003906 45.972656 184.746094 C 46.363281 184.84375 48.035156 184.84375 48.035156 184.84375 C 48.035156 184.84375 47.640625 185.921875 46.957031 187.6875 C 46.265625 189.457031 44.5 194.363281 46.265625 194.855469 C 48.035156 195.34375 48.722656 194.167969 49.703125 192.007812 C 50.683594 189.847656 51.960938 185.921875 52.351562 185.335938 C 52.84375 185.335938 53.921875 185.136719 53.921875 185.136719 C 53.921875 185.136719 53.824219 186.21875 53.332031 188.574219 C 52.84375 190.929688 52.746094 192.597656 54.019531 192.792969 C 55.296875 192.988281 56.082031 191.910156 56.375 190.730469 C 56.671875 189.554688 57.0625 187.789062 57.652344 186.414062 C 58.242188 185.039062 59.417969 181.800781 59.125 180.917969 C 59.515625 180.625 60.972656 179.273438 61.199219 178.199219 C 61.523438 176.65625 61.085938 174.929688 60.5 172.183594 C 59.910156 169.433594 60.617188 167.058594 60.222656 165.292969 C 61.035156 164.640625 63.050781 161.976562 63.050781 161.976562 C 63.050781 161.976562 63.933594 162.664062 67.074219 160.40625 C 70.214844 158.148438 74.453125 156.203125 75.273438 152.753906 C 75.816406 150.476562 74.296875 147.003906 74.296875 147.003906 C 74.296875 147.003906 75.90625 141.859375 76.984375 140.089844 C 78.066406 138.324219 79.636719 136.167969 79.929688 134.496094 C 80.222656 132.828125 78.828125 131.386719 77.550781 131.386719 C 77.769531 129.871094 76.875 128.308594 75.597656 127.917969 C 74.324219 127.523438 73.539062 127.375 73.539062 127.375 C 73.539062 127.375 73.550781 126.058594 72.667969 124.976562 C 71.785156 123.898438 68.65625 123.46875 68.65625 123.46875 C 68.65625 123.46875 68.152344 122.621094 67.859375 121.152344 C 67.5625 119.679688 67.660156 117.617188 67.269531 116.734375 C 66.875 115.851562 66.875 114.871094 66.875 114.871094 C 66.875 114.871094 67.660156 114.183594 68.644531 114.28125 C 69.625 114.378906 70.800781 112.710938 70.410156 111.828125 C 71.683594 111.730469 72.46875 110.75 72.46875 110.0625 C 72.46875 109.375 71.882812 108.292969 73.453125 106.332031 C 73.746094 105.941406 74.335938 107.410156 75.609375 107.410156 C 76.886719 107.410156 78.554688 106.921875 79.242188 104.761719 C 79.929688 102.601562 78.949219 99.363281 79.636719 96.714844 C 80.222656 96.8125 81.304688 96.027344 81.304688 96.027344 C 81.304688 96.027344 80.714844 98.089844 80.417969 98.675781 C 80.125 99.265625 81.988281 98.773438 86.011719 92.789062 C 84.738281 97.402344 85.328125 99.070312 85.523438 99.558594 C 85.71875 100.050781 86.40625 97.304688 88.46875 94.847656 C 90.527344 92.398438 93.179688 87.488281 93.179688 87.488281 C 93.179688 87.488281 92 91.121094 92 92.101562 C 92 92.886719 92.882812 90.53125 94.0625 89.058594 C 95.238281 87.585938 98.378906 81.109375 97.59375 74.730469 C 98.183594 75.125 98.773438 75.515625 98.96875 75.910156 C 99.164062 76.300781 100.046875 74.140625 98.085938 70.117188 C 96.121094 66.09375 91.019531 64.425781 91.019531 64.425781 C 91.019531 64.425781 93.472656 64.035156 94.0625 64.328125 C 94.648438 64.621094 94.160156 61.089844 88.371094 60.402344 C 89.449219 58.339844 89.054688 55.105469 88.664062 54.90625 C 88.269531 54.710938 85.914062 56.476562 85.621094 56.871094 C 85.328125 55.300781 84.34375 51.371094 82.675781 50.097656 C 81.988281 49.605469 82.085938 52.160156 81.5 52.550781 C 80.519531 50.390625 76.984375 46.371094 73.945312 46.664062 C 71.785156 43.71875 69.625 43.03125 66.289062 41.753906 C 62.949219 40.480469 59.605469 39.652344 59.113281 39.847656 C 58.621094 40.042969 60.832031 40.9375 61.714844 42.015625 C 62.597656 43.09375 63.832031 43.71875 63.832031 43.71875 C 63.832031 43.71875 59.417969 41.953125 54.707031 41.855469 C 49.996094 41.753906 44.960938 40.226562 44.46875 40.714844 C 43.980469 41.207031 46.273438 42.347656 47.941406 43.425781 C 43.820312 43.230469 35.140625 43.425781 33.515625 44.292969 C 32.527344 44.820312 36.480469 45.984375 37.855469 46.570312 C 34.910156 47.257812 32.429688 48.824219 27.328125 49.019531 C 25.660156 49.117188 26.34375 50.292969 28.109375 51.277344 C 25.070312 51.570312 22.027344 50.980469 21.734375 51.371094 C 21.4375 51.765625 24.183594 54.121094 25.167969 54.316406 C 22.714844 54.515625 20.066406 54.808594 19.179688 54.90625 C 18.296875 55.003906 19.179688 57.164062 20.554688 58.046875 C 18.691406 58.539062 17.414062 58.734375 17.023438 59.125 C 16.628906 59.519531 18.257812 61.796875 19.632812 62.191406 C 18.0625 62.582031 16.207031 64.015625 15.835938 64.683594 C 15.292969 65.660156 18.332031 65.011719 20.609375 66.417969 C 18.15625 66.617188 15.15625 68.742188 14.960938 69.433594 C 14.765625 70.117188 18.296875 69.628906 19.476562 70.511719 C 18.101562 70.609375 17.121094 72.082031 16.824219 72.769531 C 16.53125 73.457031 19.179688 72.574219 20.257812 73.457031 C 18.984375 74.242188 18.003906 75.910156 17.609375 77.476562 C 17.511719 78.363281 19.179688 77.1875 20.554688 78.070312 C 19.671875 78.953125 18.691406 81.304688 18.789062 81.996094 C 18.886719 82.679688 19.671875 81.601562 20.457031 81.699219 C 19.867188 82.289062 19.375 82.976562 19.375 82.976562 C 19.375 82.976562 15.550781 83.5625 14.078125 84.644531 C 13.292969 85.132812 13.980469 86.410156 13.980469 86.410156 C 13.980469 86.410156 4.066406 86.210938 1.023438 87.292969 C -2.015625 88.371094 -9.617188 90.726562 -16.699219 96.324219 C -23.785156 101.925781 -29.550781 103.246094 -45.203125 122.523438 C -60.851562 141.796875 -60.105469 148.878906 -69.496094 163.539062 C -78.886719 178.203125 -80.917969 196.25 -83.789062 211.0625 C -85.144531 218.0625 -85.382812 239.597656 -85.21875 241.082031 C -85.054688 242.5625 -81.257812 243.28125 -81.257812 243.28125 C -81.257812 243.28125 -72.714844 261.238281 -58.378906 262.886719 C -44.046875 264.535156 -40.257812 263.054688 -36.800781 263.21875 C -33.339844 263.382812 -26.914062 263.21875 -26.914062 263.21875 C -26.914062 263.21875 -8.359375 266.019531 -1.605469 265.523438 C -3.253906 269.3125 -4.898438 274.421875 -5.558594 289.90625 C -6.21875 305.394531 -6.21875 317.585938 -11.820312 330.105469 C -17.421875 342.628906 -22.363281 351.855469 -18.082031 356.464844 C -15.113281 359.597656 -9.84375 360.089844 -3.582031 361.246094 C 2.675781 362.398438 9.761719 364.375 14.046875 366.515625 C 18.328125 368.660156 21.664062 369.113281 27.71875 369.359375 C 29.699219 370.472656 32.664062 371.089844 33.28125 369.234375 C 34.886719 370.222656 38.839844 370.839844 39.335938 369.480469 C 40.570312 370.222656 42.425781 369.976562 43.167969 369.480469 C 44.15625 370.222656 49.550781 369.234375 49.796875 367.175781 C 50.042969 365.117188 49.304688 364.621094 48.480469 364.621094 C 47.65625 364.621094 46.253906 364.539062 46.253906 364.539062 C 46.253906 364.539062 44.609375 364.210938 43.867188 363.550781 C 43.125 362.890625 40.242188 361.820312 37.441406 360.171875 C 34.640625 358.527344 30.4375 357.375 27.804688 355.726562 C 25.167969 354.078125 16.597656 345.015625 13.632812 341.640625 C 10.667969 338.261719 9.101562 334.308594 10.917969 326.5625 C 12.726562 318.820312 24.097656 288.175781 28.214844 277.386719 C 28.378906 277.386719 28.707031 277.304688 28.707031 277.304688 C 28.707031 277.304688 27.308594 287.765625 33.074219 299.132812 C 38.839844 310.5 46.667969 325.246094 50.867188 336.613281 C 55.070312 347.980469 53.75 351.769531 53.089844 355.890625 C 52.433594 360.007812 51.609375 366.351562 55.8125 368.660156 C 60.011719 370.964844 69.15625 368.492188 73.851562 368.410156 C 78.546875 368.328125 83.078125 367.503906 95.84375 371.046875 C 103.753906 372.777344 106.554688 370.472656 107.378906 370.554688 C 108.203125 370.632812 111.988281 372.035156 114.542969 370.554688 C 117.097656 369.070312 116.933594 367.339844 116.027344 366.433594 Z M 43.433594 113.707031 C 46.976562 113.871094 48.128906 113.460938 49.203125 112.882812 C 50.269531 112.304688 50.847656 111.648438 51.835938 112.390625 C 52.824219 113.132812 58.261719 118.484375 59.578125 118.898438 C 60.898438 119.308594 62.546875 118.816406 62.546875 118.816406 C 62.546875 118.816406 62.792969 122.523438 62.296875 124.085938 C 61.804688 125.652344 60.566406 129.359375 58.015625 129.851562 C 58.589844 127.628906 58.179688 125.734375 56.695312 125.652344 C 55.214844 125.570312 54.472656 126.886719 53.8125 127.628906 C 53.15625 128.371094 52.195312 130.289062 52.28125 131.277344 C 52.363281 132.269531 53.15625 134.21875 54.0625 135.371094 C 54.964844 136.527344 57.4375 138.75 57.4375 138.75 C 57.4375 138.75 56.367188 140.230469 55.542969 140.972656 C 54.71875 141.714844 53.894531 142.949219 53.894531 142.949219 L 52.90625 143.445312 C 52.90625 143.445312 50.4375 134.796875 48.625 131.417969 C 46.8125 128.039062 45.246094 125.734375 45.246094 125.734375 C 45.246094 125.734375 45.492188 123.015625 43.351562 120.214844 C 41.210938 117.414062 38.65625 114.285156 38.65625 114.285156 C 38.65625 114.285156 39.890625 113.542969 43.433594 113.707031 "/></g><path style=" stroke:none;fill-rule:nonzero;fill:#5fe144;fill-opacity:1;" d="M 137.980469 172.789062 L 137.914062 172.789062 C 138.230469 172.683594 138.46875 172.402344 138.515625 172.058594 C 138.660156 171.984375 138.746094 171.894531 138.746094 171.796875 C 138.746094 171.679688 138.617188 171.566406 138.40625 171.484375 C 138.210938 171.074219 137.808594 170.636719 137.402344 170.441406 C 136.796875 170.167969 136.535156 169.714844 136.429688 169.332031 C 136.566406 169.273438 136.644531 169.195312 136.644531 169.113281 C 136.644531 169.015625 136.539062 168.929688 136.363281 168.867188 C 136.367188 168.75 136.382812 168.664062 136.394531 168.644531 C 136.433594 168.578125 136.128906 168.453125 135.621094 168.328125 C 135.160156 167.324219 133.933594 164.421875 133.886719 161.871094 C 133.863281 160.730469 133.933594 160.019531 134.027344 159.578125 C 134.277344 159.570312 134.476562 159.457031 134.476562 159.316406 C 134.476562 159.292969 134.46875 159.273438 134.460938 159.25 L 134.714844 159.25 C 135.078125 159.25 135.371094 158.980469 135.382812 158.640625 C 135.496094 158.59375 135.5625 158.535156 135.5625 158.464844 C 135.5625 158.378906 135.445312 158.304688 135.265625 158.257812 C 135.152344 158.105469 134.972656 158 134.765625 157.984375 C 134.816406 157.933594 134.84375 157.871094 134.84375 157.800781 C 134.84375 157.601562 134.59375 157.4375 134.285156 157.4375 L 133.839844 157.4375 C 133.964844 157.238281 134.078125 157.023438 134.179688 156.785156 L 134.296875 156.785156 C 134.605469 156.785156 134.859375 156.675781 134.859375 156.542969 C 134.859375 156.417969 134.644531 156.320312 134.371094 156.304688 C 134.632812 155.535156 134.789062 154.640625 134.789062 153.757812 C 134.789062 153.355469 134.589844 152.613281 134.257812 151.902344 L 133.296875 154.464844 L 132.835938 154.292969 L 133.6875 152.019531 L 133.945312 151.320312 C 133.695312 150.902344 133.398438 150.539062 133.074219 150.316406 C 133.132812 150.273438 133.171875 150.195312 133.171875 150.101562 C 133.171875 149.96875 133.089844 149.859375 132.992188 149.859375 L 132.878906 149.859375 C 132.878906 149.855469 132.878906 149.855469 132.878906 149.851562 C 132.878906 149.492188 132.664062 149.203125 132.394531 149.203125 C 132.128906 149.203125 131.910156 149.492188 131.910156 149.851562 C 131.910156 149.855469 131.914062 149.855469 131.914062 149.859375 L 131.796875 149.859375 C 131.699219 149.859375 131.621094 149.96875 131.621094 150.101562 C 131.621094 150.195312 131.660156 150.273438 131.71875 150.316406 C 130.726562 151.003906 130.003906 152.992188 130.003906 153.757812 C 130.003906 154.640625 130.15625 155.535156 130.421875 156.304688 C 130.148438 156.320312 129.933594 156.417969 129.933594 156.542969 C 129.933594 156.675781 130.183594 156.785156 130.496094 156.785156 L 130.609375 156.785156 C 130.714844 157.023438 130.828125 157.238281 130.953125 157.4375 L 130.507812 157.4375 C 130.199219 157.4375 129.949219 157.601562 129.949219 157.800781 C 129.949219 157.871094 129.976562 157.933594 130.027344 157.984375 C 129.820312 158 129.636719 158.105469 129.527344 158.257812 C 129.347656 158.304688 129.230469 158.378906 129.230469 158.464844 C 129.230469 158.535156 129.296875 158.59375 129.410156 158.640625 C 129.421875 158.980469 129.714844 159.25 130.078125 159.25 L 130.332031 159.25 C 130.320312 159.273438 130.316406 159.292969 130.316406 159.316406 C 130.316406 159.460938 130.527344 159.578125 130.792969 159.578125 L 130.804688 159.578125 C 130.910156 160.015625 130.988281 160.710938 130.984375 161.820312 C 130.972656 164.296875 129.710938 167.203125 129.203125 168.273438 C 128.671875 168.410156 128.351562 168.554688 128.394531 168.644531 C 128.40625 168.664062 128.425781 168.746094 128.429688 168.867188 C 128.253906 168.929688 128.148438 169.015625 128.148438 169.113281 C 128.148438 169.203125 128.234375 169.28125 128.386719 169.34375 C 128.289062 169.71875 128.03125 170.160156 127.390625 170.441406 C 126.984375 170.617188 126.578125 171.0625 126.382812 171.484375 C 126.175781 171.570312 126.046875 171.679688 126.046875 171.796875 C 126.046875 171.894531 126.132812 171.984375 126.277344 172.058594 C 126.320312 172.402344 126.5625 172.683594 126.878906 172.789062 L 126.8125 172.789062 C 126.566406 172.789062 125.6875 173.070312 125.6875 173.414062 C 125.6875 173.757812 125.886719 174.039062 126.136719 174.039062 L 138.65625 174.039062 C 138.902344 174.039062 139.101562 173.757812 139.101562 173.414062 C 139.101562 173.070312 138.226562 172.789062 137.980469 172.789062 "/><path style=" stroke:none;fill-rule:nonzero;fill:#5fe144;fill-opacity:1;" d="M 157.609375 172.789062 L 157.539062 172.789062 C 157.859375 172.683594 158.097656 172.402344 158.144531 172.058594 C 158.289062 171.984375 158.371094 171.894531 158.371094 171.796875 C 158.371094 171.6875 158.261719 171.585938 158.074219 171.503906 C 157.902344 170.902344 157.46875 170.050781 157.03125 169.839844 C 156.425781 169.566406 156.160156 169.117188 156.054688 168.734375 C 156.191406 168.675781 156.273438 168.597656 156.273438 168.511719 C 156.273438 168.417969 156.167969 168.332031 155.992188 168.269531 C 155.992188 168.148438 156.007812 168.066406 156.023438 168.046875 C 156.058594 167.980469 155.785156 167.867188 155.320312 167.746094 C 155.007812 166.355469 154.085938 162.035156 154.039062 159.421875 C 153.996094 157.28125 154.164062 156.273438 154.277344 155.847656 C 154.539062 155.816406 154.730469 155.714844 154.730469 155.59375 C 154.730469 155.570312 154.722656 155.550781 154.710938 155.53125 L 155.042969 155.53125 C 155.511719 155.53125 155.894531 155.257812 155.914062 154.917969 C 156.054688 154.871094 156.144531 154.8125 156.144531 154.746094 C 156.144531 154.65625 155.992188 154.582031 155.757812 154.535156 C 155.613281 154.382812 155.378906 154.277344 155.109375 154.261719 C 155.171875 154.210938 155.210938 154.148438 155.210938 154.082031 C 155.210938 153.894531 154.933594 153.742188 154.578125 153.71875 C 154.554688 153.378906 154.304688 153.109375 153.996094 153.109375 L 153.988281 153.109375 C 154.011719 153.015625 154.035156 152.925781 154.054688 152.835938 L 154.136719 152.835938 C 154.480469 152.835938 154.757812 152.71875 154.757812 152.574219 C 154.757812 152.433594 154.484375 152.316406 154.144531 152.316406 C 154.160156 152.179688 154.171875 152.058594 154.171875 151.957031 C 154.171875 151.722656 154.164062 151.488281 154.148438 151.257812 C 154.171875 151.019531 154.476562 149.675781 155.203125 148.53125 C 155.324219 148.296875 155.070312 147.988281 154.925781 148.085938 C 154.792969 148.179688 154.449219 148.449219 154.273438 148.449219 C 154.097656 148.449219 154.097656 147.988281 153.824219 147.988281 C 153.761719 147.988281 153.695312 148.027344 153.625 148.089844 C 153.390625 147.519531 153.050781 147.070312 152.699219 146.808594 C 152.753906 146.765625 152.796875 146.675781 152.796875 146.574219 C 152.796875 146.429688 152.71875 146.3125 152.621094 146.3125 L 152.507812 146.3125 C 152.507812 146.308594 152.507812 146.308594 152.507812 146.304688 C 152.507812 145.917969 152.292969 145.605469 152.023438 145.605469 C 151.757812 145.605469 151.539062 145.917969 151.539062 146.304688 C 151.539062 146.308594 151.539062 146.308594 151.539062 146.3125 L 151.425781 146.3125 C 151.328125 146.3125 151.25 146.429688 151.25 146.574219 C 151.25 146.675781 151.289062 146.765625 151.347656 146.808594 C 150.992188 147.070312 150.65625 147.519531 150.421875 148.085938 C 150.351562 148.027344 150.289062 147.988281 150.226562 147.988281 C 149.957031 147.988281 149.957031 148.449219 149.777344 148.449219 C 149.601562 148.449219 149.257812 148.179688 149.125 148.085938 C 148.980469 147.988281 148.722656 148.296875 148.847656 148.53125 C 149.542969 149.628906 149.867188 150.90625 149.898438 151.21875 C 149.882812 151.464844 149.875 151.710938 149.875 151.957031 C 149.875 152.058594 149.882812 152.179688 149.902344 152.316406 C 149.5625 152.316406 149.289062 152.433594 149.289062 152.574219 C 149.289062 152.71875 149.566406 152.835938 149.910156 152.835938 L 149.992188 152.835938 C 150.007812 152.925781 150.03125 153.015625 150.054688 153.109375 L 150.050781 153.109375 C 149.746094 153.109375 149.496094 153.378906 149.46875 153.71875 C 149.113281 153.742188 148.835938 153.894531 148.835938 154.082031 C 148.835938 154.148438 148.875 154.210938 148.9375 154.261719 C 148.667969 154.277344 148.433594 154.382812 148.289062 154.535156 C 148.054688 154.582031 147.902344 154.65625 147.902344 154.746094 C 147.902344 154.8125 147.988281 154.871094 148.132812 154.917969 C 148.152344 155.257812 148.53125 155.53125 149.003906 155.53125 L 149.335938 155.53125 C 149.324219 155.550781 149.316406 155.570312 149.316406 155.59375 C 149.316406 155.714844 149.515625 155.820312 149.78125 155.847656 C 149.90625 156.273438 150.097656 157.269531 150.085938 159.371094 C 150.074219 161.917969 149.09375 166.238281 148.746094 167.691406 C 148.265625 167.824219 147.980469 167.960938 148.023438 168.046875 C 148.03125 168.066406 148.050781 168.144531 148.058594 168.265625 C 147.882812 168.328125 147.773438 168.417969 147.773438 168.511719 C 147.773438 168.601562 147.863281 168.679688 148.011719 168.742188 C 147.917969 169.117188 147.660156 169.558594 147.019531 169.839844 C 146.582031 170.03125 146.144531 170.894531 145.972656 171.503906 C 145.785156 171.585938 145.675781 171.6875 145.675781 171.796875 C 145.675781 171.894531 145.761719 171.984375 145.90625 172.058594 C 145.949219 172.402344 146.1875 172.683594 146.507812 172.789062 L 146.441406 172.789062 C 146.191406 172.789062 145.3125 173.070312 145.3125 173.414062 C 145.3125 173.757812 145.515625 174.039062 145.765625 174.039062 L 158.28125 174.039062 C 158.53125 174.039062 158.730469 173.757812 158.730469 173.414062 C 158.730469 173.070312 157.855469 172.789062 157.609375 172.789062 "/><path style=" stroke:none;fill-rule:nonzero;fill:#5fe144;fill-opacity:1;" d="M 108.03125 172.789062 L 107.964844 172.789062 C 108.285156 172.683594 108.523438 172.402344 108.570312 172.058594 C 108.714844 171.984375 108.796875 171.894531 108.796875 171.796875 C 108.796875 171.660156 108.632812 171.34375 108.367188 171.0625 C 108.152344 170.488281 107.804688 169.859375 107.457031 169.691406 C 106.851562 169.417969 106.585938 168.964844 106.484375 168.585938 C 106.617188 168.523438 106.699219 168.449219 106.699219 168.363281 C 106.699219 168.269531 106.59375 168.179688 106.421875 168.117188 C 106.421875 167.996094 106.4375 167.914062 106.449219 167.894531 C 106.484375 167.835938 106.21875 167.726562 105.765625 167.613281 C 105.476562 166.089844 104.515625 160.886719 104.464844 158.21875 C 104.429688 156.285156 104.535156 155.449219 104.621094 155.089844 C 104.847656 155.046875 105.007812 154.953125 105.007812 154.84375 C 105.007812 154.820312 105 154.800781 104.988281 154.777344 L 105.320312 154.777344 C 105.792969 154.777344 106.171875 154.507812 106.1875 154.167969 C 106.335938 154.121094 106.421875 154.058594 106.421875 153.996094 C 106.421875 153.90625 106.269531 153.832031 106.035156 153.785156 C 105.890625 153.628906 105.65625 153.527344 105.386719 153.511719 C 105.449219 153.457031 105.488281 153.398438 105.488281 153.328125 C 105.488281 153.144531 105.210938 152.992188 104.855469 152.96875 C 104.828125 152.628906 104.578125 152.359375 104.273438 152.359375 L 104.265625 152.359375 C 104.289062 152.265625 104.308594 152.175781 104.328125 152.085938 L 104.410156 152.085938 C 104.757812 152.085938 105.035156 151.96875 105.035156 151.824219 C 105.035156 151.683594 104.757812 151.566406 104.417969 151.566406 C 104.4375 151.429688 104.445312 151.308594 104.445312 151.207031 C 104.445312 150.972656 104.4375 150.738281 104.421875 150.507812 C 104.445312 150.269531 104.976562 148.175781 105.703125 147.027344 C 105.828125 146.796875 105.601562 146.582031 105.425781 146.585938 C 105.210938 146.589844 104.195312 146.078125 104.125 146.136719 C 103.9375 145.679688 103.628906 145.300781 103.292969 145.035156 L 103.304688 145.035156 C 103.464844 145.035156 103.597656 144.917969 103.597656 144.773438 C 103.597656 144.628906 103.464844 144.515625 103.304688 144.515625 L 103.109375 144.515625 C 103.109375 144.511719 103.109375 144.507812 103.109375 144.503906 C 103.109375 144.21875 102.914062 143.972656 102.625 143.863281 L 102.523438 143.324219 L 103.339844 143.460938 L 103.339844 142.738281 L 102.523438 142.878906 L 102.660156 142.042969 L 101.941406 142.042969 L 102.078125 142.878906 L 101.261719 142.738281 L 101.261719 143.460938 L 102.078125 143.324219 L 101.976562 143.863281 C 101.6875 143.972656 101.488281 144.21875 101.488281 144.503906 C 101.488281 144.507812 101.488281 144.511719 101.488281 144.515625 L 101.296875 144.515625 C 101.132812 144.515625 101 144.628906 101 144.773438 C 101 144.917969 101.132812 145.035156 101.296875 145.035156 L 101.300781 145.035156 C 100.96875 145.300781 100.660156 145.679688 100.472656 146.132812 C 100.402344 146.078125 99.371094 146.589844 99.175781 146.585938 C 99 146.582031 98.773438 146.796875 98.898438 147.027344 C 99.59375 148.125 100.140625 150.15625 100.175781 150.472656 C 100.160156 150.714844 100.148438 150.960938 100.148438 151.207031 C 100.148438 151.308594 100.160156 151.429688 100.175781 151.566406 C 99.835938 151.570312 99.566406 151.683594 99.566406 151.824219 C 99.566406 151.96875 99.84375 152.085938 100.1875 152.085938 L 100.265625 152.085938 C 100.285156 152.175781 100.304688 152.265625 100.328125 152.359375 L 100.324219 152.359375 C 100.023438 152.359375 99.769531 152.628906 99.746094 152.96875 C 99.390625 152.992188 99.113281 153.144531 99.113281 153.328125 C 99.113281 153.398438 99.152344 153.457031 99.214844 153.511719 C 98.945312 153.527344 98.710938 153.628906 98.566406 153.785156 C 98.332031 153.832031 98.179688 153.90625 98.179688 153.996094 C 98.179688 154.058594 98.265625 154.121094 98.410156 154.167969 C 98.425781 154.507812 98.808594 154.777344 99.28125 154.777344 L 99.613281 154.777344 C 99.601562 154.800781 99.59375 154.820312 99.59375 154.84375 C 99.59375 154.957031 99.757812 155.054688 99.996094 155.089844 C 100.09375 155.449219 100.222656 156.277344 100.210938 158.167969 C 100.199219 160.773438 99.175781 165.96875 98.851562 167.5625 C 98.386719 167.6875 98.109375 167.816406 98.148438 167.894531 C 98.160156 167.914062 98.179688 167.996094 98.183594 168.117188 C 98.011719 168.179688 97.902344 168.265625 97.902344 168.363281 C 97.902344 168.449219 97.992188 168.53125 98.140625 168.59375 C 98.042969 168.96875 97.789062 169.410156 97.144531 169.691406 C 96.796875 169.84375 96.445312 170.484375 96.230469 171.066406 C 95.964844 171.34375 95.804688 171.660156 95.804688 171.796875 C 95.804688 171.894531 95.886719 171.984375 96.03125 172.058594 C 96.078125 172.402344 96.316406 172.683594 96.636719 172.789062 L 96.566406 172.789062 C 96.316406 172.789062 95.441406 173.070312 95.441406 173.414062 C 95.441406 173.757812 95.644531 174.039062 95.890625 174.039062 L 108.707031 174.039062 C 108.957031 174.039062 109.160156 173.757812 109.160156 173.414062 C 109.160156 173.070312 108.28125 172.789062 108.03125 172.789062 "/><path style=" stroke:none;fill-rule:nonzero;fill:#5fe144;fill-opacity:1;" d="M 186.421875 172.796875 C 186.753906 172.695312 186.996094 172.410156 187.042969 172.058594 C 187.1875 171.984375 187.273438 171.894531 187.273438 171.796875 C 187.273438 171.679688 187.144531 171.570312 186.933594 171.484375 C 186.742188 171.074219 186.335938 170.640625 185.933594 170.441406 C 185.347656 170.175781 185.136719 169.746094 185.082031 169.371094 C 185.277344 169.308594 185.402344 169.21875 185.402344 169.113281 C 185.402344 169.011719 185.28125 168.921875 185.089844 168.859375 C 185.109375 168.746094 185.136719 168.664062 185.152344 168.644531 C 185.199219 168.558594 184.875 168.375 184.273438 168.210938 C 183.964844 167.570312 183.503906 167.09375 183.464844 165.011719 C 183.457031 164.484375 183.464844 164.082031 183.484375 163.773438 L 183.554688 163.773438 C 183.8125 163.773438 184.023438 163.652344 184.023438 163.507812 C 184.023438 163.488281 184.015625 163.464844 184.007812 163.445312 L 184.257812 163.445312 C 184.613281 163.445312 184.902344 163.171875 184.917969 162.832031 C 185.023438 162.785156 185.09375 162.726562 185.09375 162.660156 C 185.09375 162.574219 184.976562 162.496094 184.800781 162.449219 C 184.691406 162.296875 184.511719 162.191406 184.308594 162.175781 C 184.355469 162.125 184.382812 162.0625 184.382812 161.996094 C 184.382812 161.792969 184.136719 161.632812 183.835938 161.632812 L 183.3125 161.632812 C 183.792969 161.125 184.101562 160.394531 184.101562 159.726562 C 184.101562 158.554688 183.152344 157.808594 181.976562 157.808594 C 180.800781 157.808594 179.847656 158.554688 179.847656 159.726562 C 179.847656 160.394531 180.15625 161.125 180.640625 161.632812 L 180.117188 161.632812 C 179.8125 161.632812 179.566406 161.792969 179.566406 161.996094 C 179.566406 162.0625 179.597656 162.125 179.644531 162.175781 C 179.441406 162.191406 179.261719 162.296875 179.152344 162.449219 C 178.976562 162.496094 178.859375 162.574219 178.859375 162.660156 C 178.859375 162.726562 178.929688 162.785156 179.035156 162.832031 C 179.046875 163.171875 179.339844 163.445312 179.691406 163.445312 L 179.941406 163.445312 C 179.933594 163.464844 179.929688 163.488281 179.929688 163.507812 C 179.929688 163.652344 180.140625 163.773438 180.394531 163.773438 L 180.523438 163.773438 C 180.550781 164.070312 180.566406 164.460938 180.5625 164.960938 C 180.554688 166.960938 180.074219 167.453125 179.734375 168.132812 C 179.074219 168.300781 178.742188 168.523438 178.800781 168.644531 C 178.8125 168.664062 178.839844 168.742188 178.867188 168.855469 C 178.675781 168.921875 178.550781 169.011719 178.550781 169.113281 C 178.550781 169.21875 178.683594 169.316406 178.894531 169.378906 C 178.847656 169.746094 178.640625 170.167969 178.019531 170.441406 C 177.613281 170.617188 177.207031 171.066406 177.015625 171.484375 C 176.804688 171.570312 176.679688 171.679688 176.679688 171.796875 C 176.679688 171.894531 176.761719 171.984375 176.90625 172.058594 C 176.953125 172.410156 177.199219 172.695312 177.527344 172.796875 C 177.222656 172.84375 176.523438 173.101562 176.523438 173.414062 C 176.523438 173.757812 176.71875 174.039062 176.957031 174.039062 L 186.992188 174.039062 C 187.234375 174.039062 187.425781 173.757812 187.425781 173.414062 C 187.425781 173.101562 186.730469 172.84375 186.421875 172.796875 "/><path style=" stroke:none;fill-rule:nonzero;fill:#5fe144;fill-opacity:1;" d="M 245.941406 179.878906 C 246.269531 179.777344 246.515625 179.492188 246.5625 179.140625 C 246.707031 179.066406 246.792969 178.976562 246.792969 178.878906 C 246.792969 178.761719 246.664062 178.652344 246.453125 178.566406 C 246.257812 178.15625 245.855469 177.722656 245.449219 177.523438 C 244.867188 177.261719 244.65625 176.828125 244.601562 176.453125 C 244.796875 176.390625 244.917969 176.300781 244.917969 176.199219 C 244.917969 176.097656 244.796875 176.003906 244.609375 175.941406 C 244.628906 175.828125 244.65625 175.746094 244.667969 175.726562 C 244.71875 175.644531 244.398438 175.457031 243.792969 175.292969 C 243.484375 174.65625 243.023438 174.175781 242.984375 172.097656 C 242.976562 171.570312 242.984375 171.164062 243.007812 170.855469 L 243.074219 170.855469 C 243.332031 170.855469 243.542969 170.738281 243.542969 170.59375 C 243.542969 170.570312 243.535156 170.546875 243.527344 170.527344 L 243.777344 170.527344 C 244.132812 170.527344 244.421875 170.253906 244.433594 169.914062 C 244.542969 169.871094 244.609375 169.808594 244.609375 169.742188 C 244.609375 169.65625 244.492188 169.578125 244.316406 169.53125 C 244.207031 169.378906 244.03125 169.277344 243.828125 169.261719 C 243.875 169.207031 243.902344 169.144531 243.902344 169.078125 C 243.902344 168.878906 243.65625 168.714844 243.355469 168.714844 L 242.832031 168.714844 C 243.3125 168.207031 243.621094 167.476562 243.621094 166.808594 C 243.621094 165.632812 242.667969 164.890625 241.496094 164.890625 C 240.320312 164.890625 239.367188 165.632812 239.367188 166.808594 C 239.367188 167.476562 239.675781 168.207031 240.15625 168.714844 L 239.636719 168.714844 C 239.332031 168.714844 239.085938 168.878906 239.085938 169.078125 C 239.085938 169.144531 239.113281 169.207031 239.164062 169.261719 C 238.960938 169.277344 238.78125 169.378906 238.671875 169.53125 C 238.492188 169.578125 238.378906 169.65625 238.378906 169.742188 C 238.378906 169.808594 238.445312 169.871094 238.554688 169.914062 C 238.566406 170.253906 238.855469 170.527344 239.210938 170.527344 L 239.464844 170.527344 C 239.453125 170.546875 239.449219 170.570312 239.449219 170.59375 C 239.449219 170.738281 239.65625 170.855469 239.914062 170.855469 L 240.042969 170.855469 C 240.070312 171.15625 240.085938 171.542969 240.082031 172.046875 C 240.074219 174.042969 239.59375 174.535156 239.253906 175.214844 C 238.59375 175.386719 238.261719 175.609375 238.320312 175.726562 C 238.328125 175.746094 238.359375 175.828125 238.382812 175.941406 C 238.191406 176.003906 238.070312 176.097656 238.070312 176.199219 C 238.070312 176.304688 238.203125 176.402344 238.410156 176.464844 C 238.367188 176.832031 238.160156 177.25 237.539062 177.523438 C 237.132812 177.703125 236.726562 178.148438 236.535156 178.570312 C 236.324219 178.652344 236.199219 178.761719 236.199219 178.878906 C 236.199219 178.976562 236.28125 179.066406 236.425781 179.140625 C 236.472656 179.492188 236.71875 179.777344 237.046875 179.878906 C 236.742188 179.921875 236.042969 180.183594 236.042969 180.496094 C 236.042969 180.84375 236.238281 181.121094 236.476562 181.121094 L 246.511719 181.121094 C 246.75 181.121094 246.945312 180.84375 246.945312 180.496094 C 246.945312 180.183594 246.246094 179.921875 245.941406 179.878906 "/><path style=" stroke:none;fill-rule:nonzero;fill:#5fe144;fill-opacity:1;" d="M 154.160156 172.796875 C 154.488281 172.695312 154.734375 172.410156 154.78125 172.058594 C 154.925781 171.984375 155.011719 171.894531 155.011719 171.796875 C 155.011719 171.679688 154.882812 171.570312 154.671875 171.484375 C 154.476562 171.074219 154.074219 170.640625 153.667969 170.441406 C 153.085938 170.175781 152.875 169.746094 152.820312 169.371094 C 153.015625 169.308594 153.136719 169.21875 153.136719 169.113281 C 153.136719 169.011719 153.015625 168.921875 152.828125 168.859375 C 152.847656 168.746094 152.875 168.664062 152.886719 168.644531 C 152.9375 168.558594 152.617188 168.375 152.011719 168.210938 C 151.703125 167.570312 151.242188 167.09375 151.203125 165.011719 C 151.195312 164.484375 151.203125 164.082031 151.222656 163.773438 L 151.292969 163.773438 C 151.550781 163.773438 151.761719 163.652344 151.761719 163.507812 C 151.761719 163.488281 151.753906 163.464844 151.746094 163.445312 L 151.996094 163.445312 C 152.351562 163.445312 152.640625 163.171875 152.652344 162.832031 C 152.761719 162.785156 152.828125 162.726562 152.828125 162.660156 C 152.828125 162.574219 152.714844 162.496094 152.539062 162.449219 C 152.425781 162.296875 152.25 162.191406 152.046875 162.175781 C 152.09375 162.125 152.121094 162.0625 152.121094 161.996094 C 152.121094 161.792969 151.878906 161.632812 151.574219 161.632812 L 151.050781 161.632812 C 151.535156 161.125 151.839844 160.394531 151.839844 159.726562 C 151.839844 158.554688 150.886719 157.808594 149.714844 157.808594 C 148.539062 157.808594 147.585938 158.554688 147.585938 159.726562 C 147.585938 160.394531 147.894531 161.125 148.378906 161.632812 L 147.855469 161.632812 C 147.550781 161.632812 147.308594 161.792969 147.308594 161.996094 C 147.308594 162.0625 147.332031 162.125 147.382812 162.175781 C 147.175781 162.191406 147 162.296875 146.890625 162.449219 C 146.714844 162.496094 146.597656 162.574219 146.597656 162.660156 C 146.597656 162.726562 146.664062 162.785156 146.773438 162.832031 C 146.785156 163.171875 147.074219 163.445312 147.429688 163.445312 L 147.679688 163.445312 C 147.675781 163.464844 147.667969 163.488281 147.667969 163.507812 C 147.667969 163.652344 147.875 163.773438 148.132812 163.773438 L 148.261719 163.773438 C 148.289062 164.070312 148.304688 164.460938 148.300781 164.960938 C 148.292969 166.960938 147.8125 167.453125 147.472656 168.132812 C 146.8125 168.300781 146.480469 168.523438 146.539062 168.644531 C 146.546875 168.664062 146.578125 168.742188 146.601562 168.855469 C 146.410156 168.921875 146.289062 169.011719 146.289062 169.113281 C 146.289062 169.21875 146.421875 169.316406 146.632812 169.378906 C 146.585938 169.746094 146.378906 170.167969 145.757812 170.441406 C 145.351562 170.617188 144.945312 171.066406 144.753906 171.484375 C 144.542969 171.570312 144.417969 171.679688 144.417969 171.796875 C 144.417969 171.894531 144.5 171.984375 144.644531 172.058594 C 144.691406 172.410156 144.9375 172.695312 145.265625 172.796875 C 144.960938 172.84375 144.265625 173.101562 144.265625 173.414062 C 144.265625 173.757812 144.457031 174.039062 144.695312 174.039062 L 154.730469 174.039062 C 154.96875 174.039062 155.164062 173.757812 155.164062 173.414062 C 155.164062 173.101562 154.464844 172.84375 154.160156 172.796875 "/><path style=" stroke:none;fill-rule:nonzero;fill:#5fe144;fill-opacity:1;" d="M 121.886719 172.796875 C 122.214844 172.695312 122.464844 172.410156 122.511719 172.058594 C 122.65625 171.984375 122.742188 171.894531 122.742188 171.796875 C 122.742188 171.679688 122.613281 171.570312 122.402344 171.484375 C 122.207031 171.074219 121.800781 170.640625 121.398438 170.441406 C 120.8125 170.175781 120.605469 169.746094 120.546875 169.371094 C 120.742188 169.308594 120.867188 169.21875 120.867188 169.113281 C 120.867188 169.011719 120.746094 168.921875 120.558594 168.859375 C 120.574219 168.746094 120.601562 168.664062 120.617188 168.644531 C 120.667969 168.558594 120.34375 168.375 119.738281 168.210938 C 119.429688 167.570312 118.96875 167.09375 118.933594 165.011719 C 118.921875 164.484375 118.933594 164.082031 118.953125 163.773438 L 119.019531 163.773438 C 119.28125 163.773438 119.488281 163.652344 119.488281 163.507812 C 119.488281 163.488281 119.484375 163.464844 119.476562 163.445312 L 119.726562 163.445312 C 120.082031 163.445312 120.371094 163.171875 120.382812 162.832031 C 120.492188 162.785156 120.558594 162.726562 120.558594 162.660156 C 120.558594 162.574219 120.441406 162.496094 120.265625 162.449219 C 120.15625 162.296875 119.980469 162.191406 119.773438 162.175781 C 119.824219 162.125 119.851562 162.0625 119.851562 161.996094 C 119.851562 161.792969 119.601562 161.632812 119.300781 161.632812 L 118.78125 161.632812 C 119.261719 161.125 119.566406 160.394531 119.566406 159.726562 C 119.566406 158.554688 118.617188 157.808594 117.441406 157.808594 C 116.269531 157.808594 115.316406 158.554688 115.316406 159.726562 C 115.316406 160.394531 115.625 161.125 116.105469 161.632812 L 115.585938 161.632812 C 115.28125 161.632812 115.03125 161.792969 115.03125 161.996094 C 115.03125 162.0625 115.0625 162.125 115.109375 162.175781 C 114.90625 162.191406 114.726562 162.296875 114.617188 162.449219 C 114.441406 162.496094 114.324219 162.574219 114.324219 162.660156 C 114.324219 162.726562 114.394531 162.785156 114.5 162.832031 C 114.515625 163.171875 114.804688 163.445312 115.160156 163.445312 L 115.410156 163.445312 C 115.398438 163.464844 115.398438 163.488281 115.398438 163.507812 C 115.398438 163.652344 115.605469 163.773438 115.863281 163.773438 L 115.992188 163.773438 C 116.015625 164.070312 116.03125 164.460938 116.027344 164.960938 C 116.019531 166.960938 115.539062 167.453125 115.199219 168.132812 C 114.539062 168.300781 114.207031 168.523438 114.265625 168.644531 C 114.273438 168.664062 114.308594 168.742188 114.332031 168.855469 C 114.140625 168.921875 114.019531 169.011719 114.019531 169.113281 C 114.019531 169.21875 114.152344 169.316406 114.359375 169.378906 C 114.3125 169.746094 114.105469 170.167969 113.488281 170.441406 C 113.078125 170.617188 112.671875 171.066406 112.480469 171.484375 C 112.269531 171.570312 112.144531 171.679688 112.144531 171.796875 C 112.144531 171.894531 112.230469 171.984375 112.371094 172.058594 C 112.417969 172.410156 112.667969 172.695312 112.996094 172.796875 C 112.6875 172.84375 111.992188 173.101562 111.992188 173.414062 C 111.992188 173.757812 112.1875 174.039062 112.425781 174.039062 L 122.460938 174.039062 C 122.699219 174.039062 122.894531 173.757812 122.894531 173.414062 C 122.894531 173.101562 122.195312 172.84375 121.886719 172.796875 "/><path style=" stroke:none;fill-rule:nonzero;fill:#5fe144;fill-opacity:1;" d="M 81.03125 180.632812 C 81.359375 180.53125 81.605469 180.246094 81.652344 179.898438 C 81.796875 179.824219 81.882812 179.734375 81.882812 179.636719 C 81.882812 179.515625 81.753906 179.40625 81.542969 179.324219 C 81.347656 178.910156 80.945312 178.476562 80.539062 178.28125 C 79.953125 178.015625 79.746094 177.582031 79.691406 177.210938 C 79.886719 177.144531 80.007812 177.054688 80.007812 176.953125 C 80.007812 176.851562 79.890625 176.761719 79.699219 176.695312 C 79.71875 176.582031 79.746094 176.503906 79.757812 176.480469 C 79.808594 176.398438 79.484375 176.210938 78.878906 176.046875 C 78.574219 175.410156 78.113281 174.933594 78.074219 172.851562 C 78.0625 172.324219 78.074219 171.921875 78.09375 171.609375 L 78.164062 171.609375 C 78.421875 171.609375 78.628906 171.492188 78.628906 171.347656 C 78.628906 171.324219 78.625 171.300781 78.613281 171.28125 L 78.867188 171.28125 C 79.222656 171.28125 79.511719 171.011719 79.523438 170.671875 C 79.632812 170.625 79.699219 170.5625 79.699219 170.496094 C 79.699219 170.410156 79.585938 170.332031 79.410156 170.285156 C 79.296875 170.132812 79.121094 170.03125 78.917969 170.015625 C 78.964844 169.960938 78.992188 169.902344 78.992188 169.832031 C 78.992188 169.632812 78.746094 169.46875 78.441406 169.46875 L 77.921875 169.46875 C 78.402344 168.964844 78.710938 168.230469 78.710938 167.566406 C 78.710938 166.390625 77.757812 165.648438 76.582031 165.648438 C 75.410156 165.648438 74.457031 166.390625 74.457031 167.566406 C 74.457031 168.230469 74.765625 168.964844 75.246094 169.46875 L 74.726562 169.46875 C 74.421875 169.46875 74.175781 169.632812 74.175781 169.832031 C 74.175781 169.902344 74.203125 169.960938 74.25 170.015625 C 74.046875 170.03125 73.871094 170.132812 73.761719 170.285156 C 73.582031 170.332031 73.46875 170.410156 73.46875 170.496094 C 73.46875 170.5625 73.535156 170.625 73.644531 170.671875 C 73.65625 171.011719 73.945312 171.28125 74.300781 171.28125 L 74.550781 171.28125 C 74.542969 171.300781 74.539062 171.324219 74.539062 171.347656 C 74.539062 171.492188 74.746094 171.609375 75.003906 171.609375 L 75.132812 171.609375 C 75.15625 171.910156 75.171875 172.300781 75.171875 172.800781 C 75.164062 174.796875 74.683594 175.292969 74.34375 175.972656 C 73.679688 176.140625 73.351562 176.363281 73.410156 176.480469 C 73.417969 176.503906 73.449219 176.582031 73.476562 176.695312 C 73.28125 176.757812 73.160156 176.851562 73.160156 176.953125 C 73.160156 177.058594 73.292969 177.15625 73.503906 177.21875 C 73.457031 177.585938 73.25 178.003906 72.628906 178.28125 C 72.222656 178.457031 71.816406 178.902344 71.621094 179.324219 C 71.414062 179.40625 71.285156 179.519531 71.285156 179.636719 C 71.285156 179.734375 71.371094 179.824219 71.515625 179.898438 C 71.5625 180.246094 71.808594 180.53125 72.136719 180.632812 C 71.832031 180.679688 71.132812 180.9375 71.132812 181.25 C 71.132812 181.597656 71.328125 181.878906 71.566406 181.878906 L 81.601562 181.878906 C 81.839844 181.878906 82.035156 181.597656 82.035156 181.25 C 82.035156 180.9375 81.335938 180.679688 81.03125 180.632812 "/><path style=" stroke:none;fill-rule:nonzero;fill:#5fe144;fill-opacity:1;" d="M 74.367188 180.796875 C 74.695312 180.695312 74.941406 180.410156 74.992188 180.058594 C 75.132812 179.984375 75.21875 179.894531 75.21875 179.796875 C 75.21875 179.679688 75.089844 179.570312 74.878906 179.484375 C 74.683594 179.074219 74.28125 178.636719 73.875 178.441406 C 73.289062 178.175781 73.082031 177.746094 73.027344 177.371094 C 73.222656 177.308594 73.34375 177.21875 73.34375 177.113281 C 73.34375 177.011719 73.226562 176.921875 73.035156 176.859375 C 73.054688 176.742188 73.082031 176.667969 73.09375 176.644531 C 73.144531 176.558594 72.820312 176.375 72.214844 176.210938 C 71.910156 175.570312 71.449219 175.09375 71.410156 173.011719 C 71.398438 172.488281 71.410156 172.082031 71.433594 171.769531 L 71.5 171.769531 C 71.757812 171.769531 71.964844 171.65625 71.964844 171.507812 C 71.964844 171.488281 71.960938 171.464844 71.953125 171.445312 L 72.203125 171.445312 C 72.558594 171.445312 72.847656 171.171875 72.859375 170.832031 C 72.96875 170.785156 73.035156 170.726562 73.035156 170.660156 C 73.035156 170.574219 72.921875 170.496094 72.742188 170.449219 C 72.632812 170.296875 72.457031 170.191406 72.253906 170.179688 C 72.300781 170.125 72.328125 170.0625 72.328125 169.996094 C 72.328125 169.792969 72.082031 169.632812 71.777344 169.632812 L 71.257812 169.632812 C 71.738281 169.125 72.046875 168.394531 72.046875 167.726562 C 72.046875 166.554688 71.09375 165.808594 69.917969 165.808594 C 68.746094 165.808594 67.792969 166.554688 67.792969 167.726562 C 67.792969 168.394531 68.101562 169.125 68.582031 169.632812 L 68.0625 169.632812 C 67.757812 169.632812 67.511719 169.792969 67.511719 169.996094 C 67.511719 170.0625 67.539062 170.125 67.585938 170.179688 C 67.382812 170.191406 67.207031 170.296875 67.097656 170.449219 C 66.917969 170.496094 66.804688 170.574219 66.804688 170.660156 C 66.804688 170.726562 66.871094 170.785156 66.980469 170.832031 C 66.992188 171.171875 67.28125 171.445312 67.636719 171.445312 L 67.886719 171.445312 C 67.878906 171.464844 67.871094 171.488281 67.871094 171.507812 C 67.871094 171.65625 68.082031 171.769531 68.339844 171.769531 L 68.464844 171.769531 C 68.492188 172.070312 68.507812 172.460938 68.507812 172.960938 C 68.496094 174.960938 68.019531 175.453125 67.679688 176.132812 C 67.015625 176.300781 66.6875 176.527344 66.746094 176.644531 C 66.753906 176.664062 66.785156 176.742188 66.8125 176.855469 C 66.617188 176.917969 66.496094 177.011719 66.496094 177.113281 C 66.496094 177.222656 66.628906 177.316406 66.835938 177.378906 C 66.792969 177.746094 66.585938 178.167969 65.964844 178.441406 C 65.558594 178.617188 65.152344 179.066406 64.957031 179.484375 C 64.75 179.570312 64.621094 179.679688 64.621094 179.796875 C 64.621094 179.894531 64.707031 179.984375 64.851562 180.058594 C 64.898438 180.410156 65.144531 180.695312 65.472656 180.796875 C 65.167969 180.839844 64.46875 181.101562 64.46875 181.414062 C 64.46875 181.757812 64.664062 182.039062 64.902344 182.039062 L 74.9375 182.039062 C 75.175781 182.039062 75.371094 181.757812 75.371094 181.414062 C 75.371094 181.101562 74.671875 180.839844 74.367188 180.796875 "/><path style=" stroke:none;fill-rule:nonzero;fill:#5fe144;fill-opacity:1;" d="M 167.054688 172.789062 L 166.988281 172.789062 C 167.308594 172.683594 167.546875 172.402344 167.59375 172.058594 C 167.734375 171.984375 167.820312 171.894531 167.820312 171.796875 C 167.820312 171.679688 167.699219 171.574219 167.496094 171.492188 C 167.308594 171.027344 166.894531 170.492188 166.480469 170.289062 C 165.816406 169.992188 165.5625 169.382812 165.480469 168.894531 C 165.628906 168.832031 165.722656 168.753906 165.722656 168.664062 C 165.722656 168.566406 165.617188 168.480469 165.445312 168.417969 C 165.445312 168.296875 165.460938 168.214844 165.472656 168.195312 C 165.496094 168.152344 165.371094 168.089844 165.140625 168.015625 C 165.53125 167.960938 165.789062 167.890625 165.863281 167.796875 C 167.101562 165.980469 166.691406 164.195312 165.421875 163.367188 C 164.160156 162.542969 161.933594 159.957031 161.796875 159.765625 C 161.65625 159.574219 161.875 159.214844 162.894531 158.941406 C 163.910156 158.664062 164.460938 159.1875 164.710938 159.65625 C 164.957031 160.121094 165.421875 159.902344 165.671875 159.738281 C 165.917969 159.574219 166.179688 159.980469 166.277344 159.601562 C 166.304688 159.496094 165.683594 159.152344 165.683594 159.152344 L 165.8125 158.96875 C 165.8125 158.96875 166.222656 159.214844 166.304688 159.214844 C 166.386719 159.214844 166.609375 158.71875 166.609375 158.71875 C 166.609375 158.71875 166.828125 158.851562 166.929688 158.664062 C 167.027344 158.453125 167.046875 157.433594 166.527344 157.015625 C 166.71875 156.847656 166.691406 156.328125 166.140625 156.164062 C 165.589844 155.996094 163.636719 154.898438 163.25 154.703125 C 163.25 154.484375 163.003906 154.292969 162.398438 154.238281 C 161.796875 154.183594 161.132812 153.632812 161.050781 153.578125 C 160.859375 153.414062 160.941406 151.925781 160.804688 151.871094 C 160.117188 151.679688 159.675781 152.859375 159.648438 153.109375 C 159.210938 153.109375 157.972656 153.660156 157.917969 154.070312 C 157.640625 154.046875 156.597656 155.117188 156.734375 155.613281 C 156.542969 155.640625 155.574219 156.960938 156.09375 157.402344 C 155.992188 157.921875 155.691406 159.105469 156.15625 159.242188 C 156.296875 159.902344 156.464844 161.03125 156.960938 161.140625 C 157.070312 161.910156 157.039062 163.066406 157.53125 163.148438 C 157.558594 163.808594 157.285156 164.742188 157.585938 164.964844 C 157.367188 165.484375 156.871094 165.816406 157.039062 166.035156 C 156.652344 166.257812 156.40625 166.558594 156.542969 166.808594 C 156.046875 166.972656 155.90625 167.382812 156.183594 167.550781 C 156.597656 167.742188 156.976562 167.882812 157.335938 167.988281 C 157.113281 168.070312 156.996094 168.140625 157.023438 168.195312 C 157.03125 168.210938 157.046875 168.296875 157.054688 168.417969 C 156.882812 168.480469 156.773438 168.566406 156.773438 168.664062 C 156.773438 168.757812 156.875 168.839844 157.039062 168.902344 C 156.964844 169.382812 156.722656 169.980469 156.015625 170.289062 C 155.601562 170.472656 155.183594 171.019531 154.996094 171.492188 C 154.796875 171.574219 154.675781 171.679688 154.675781 171.796875 C 154.675781 171.894531 154.757812 171.984375 154.902344 172.058594 C 154.949219 172.402344 155.1875 172.683594 155.507812 172.789062 L 155.4375 172.789062 C 155.191406 172.789062 154.3125 173.070312 154.3125 173.414062 C 154.3125 173.757812 154.515625 174.039062 154.765625 174.039062 L 167.730469 174.039062 C 167.980469 174.039062 168.183594 173.757812 168.183594 173.414062 C 168.183594 173.070312 167.304688 172.789062 167.054688 172.789062 "/><path style=" stroke:none;fill-rule:nonzero;fill:#5fe144;fill-opacity:1;" d="M 242.226562 180.085938 L 242.15625 180.085938 C 242.476562 179.980469 242.714844 179.699219 242.761719 179.355469 C 242.90625 179.28125 242.988281 179.191406 242.988281 179.09375 C 242.988281 178.976562 242.863281 178.867188 242.652344 178.78125 C 242.457031 178.371094 242.054688 177.9375 241.648438 177.738281 C 241.042969 177.464844 240.78125 177.015625 240.675781 176.632812 C 240.8125 176.570312 240.890625 176.496094 240.890625 176.414062 C 240.890625 176.316406 240.785156 176.226562 240.613281 176.164062 C 240.613281 176.046875 240.628906 175.960938 240.640625 175.941406 C 240.679688 175.878906 240.375 175.753906 239.867188 175.625 C 239.40625 174.621094 238.179688 171.722656 238.132812 169.167969 C 238.113281 168.027344 238.179688 167.320312 238.273438 166.875 C 238.523438 166.871094 238.722656 166.753906 238.722656 166.613281 C 238.722656 166.59375 238.714844 166.570312 238.707031 166.550781 L 238.960938 166.550781 C 239.324219 166.550781 239.617188 166.277344 239.628906 165.9375 C 239.742188 165.890625 239.808594 165.832031 239.808594 165.765625 C 239.808594 165.679688 239.691406 165.601562 239.511719 165.554688 C 239.398438 165.402344 239.21875 165.296875 239.011719 165.28125 C 239.0625 165.230469 239.089844 165.167969 239.089844 165.101562 C 239.089844 164.898438 238.839844 164.738281 238.53125 164.738281 L 238.085938 164.738281 C 238.210938 164.539062 238.324219 164.320312 238.429688 164.082031 L 238.542969 164.082031 C 238.851562 164.082031 239.101562 163.972656 239.101562 163.839844 C 239.101562 163.714844 238.890625 163.617188 238.617188 163.601562 C 238.878906 162.832031 239.035156 161.9375 239.035156 161.054688 C 239.035156 160.652344 238.835938 159.910156 238.5 159.199219 L 237.539062 161.761719 L 237.082031 161.589844 L 237.9375 159.320312 L 238.191406 158.617188 C 237.941406 158.199219 237.644531 157.835938 237.320312 157.613281 C 237.378906 157.570312 237.417969 157.492188 237.417969 157.398438 C 237.417969 157.265625 237.335938 157.15625 237.238281 157.15625 L 237.125 157.15625 C 237.125 157.15625 237.125 157.152344 237.125 157.152344 C 237.125 156.789062 236.910156 156.5 236.640625 156.5 C 236.375 156.5 236.160156 156.789062 236.160156 157.152344 C 236.160156 157.152344 236.160156 157.15625 236.160156 157.15625 L 236.046875 157.15625 C 235.945312 157.15625 235.867188 157.265625 235.867188 157.398438 C 235.867188 157.492188 235.90625 157.570312 235.960938 157.613281 C 234.972656 158.300781 234.25 160.289062 234.25 161.054688 C 234.25 161.9375 234.40625 162.832031 234.671875 163.601562 C 234.394531 163.617188 234.179688 163.714844 234.179688 163.839844 C 234.179688 163.972656 234.429688 164.082031 234.742188 164.082031 L 234.855469 164.082031 C 234.960938 164.320312 235.074219 164.539062 235.199219 164.738281 L 234.753906 164.738281 C 234.445312 164.738281 234.195312 164.898438 234.195312 165.101562 C 234.195312 165.167969 234.222656 165.230469 234.269531 165.28125 C 234.066406 165.296875 233.886719 165.402344 233.773438 165.554688 C 233.59375 165.601562 233.476562 165.679688 233.476562 165.765625 C 233.476562 165.832031 233.542969 165.890625 233.65625 165.9375 C 233.667969 166.277344 233.960938 166.550781 234.324219 166.550781 L 234.578125 166.550781 C 234.570312 166.570312 234.5625 166.59375 234.5625 166.613281 C 234.5625 166.757812 234.773438 166.878906 235.035156 166.878906 L 235.050781 166.878906 C 235.15625 167.3125 235.234375 168.007812 235.230469 169.117188 C 235.21875 171.59375 233.957031 174.503906 233.449219 175.570312 C 232.917969 175.707031 232.597656 175.851562 232.640625 175.941406 C 232.652344 175.960938 232.671875 176.046875 232.675781 176.164062 C 232.5 176.226562 232.394531 176.3125 232.394531 176.414062 C 232.394531 176.5 232.484375 176.578125 232.632812 176.640625 C 232.539062 177.015625 232.277344 177.457031 231.636719 177.738281 C 231.230469 177.917969 230.824219 178.363281 230.632812 178.785156 C 230.421875 178.867188 230.292969 178.976562 230.292969 179.09375 C 230.292969 179.191406 230.378906 179.28125 230.523438 179.355469 C 230.566406 179.699219 230.808594 179.980469 231.125 180.085938 L 231.058594 180.085938 C 230.808594 180.085938 229.933594 180.367188 229.933594 180.710938 C 229.933594 181.058594 230.136719 181.335938 230.382812 181.335938 L 242.902344 181.335938 C 243.148438 181.335938 243.351562 181.058594 243.351562 180.710938 C 243.351562 180.367188 242.472656 180.085938 242.226562 180.085938 "/><path style=" stroke:none;fill-rule:nonzero;fill:#5fe144;fill-opacity:1;" d="M 218.851562 172.789062 L 218.785156 172.789062 C 219.105469 172.683594 219.34375 172.402344 219.386719 172.058594 C 219.53125 171.984375 219.617188 171.894531 219.617188 171.796875 C 219.617188 171.679688 219.496094 171.574219 219.292969 171.492188 C 219.105469 171.027344 218.691406 170.492188 218.273438 170.289062 C 217.609375 169.992188 217.359375 169.382812 217.273438 168.894531 C 217.425781 168.832031 217.515625 168.753906 217.515625 168.664062 C 217.515625 168.566406 217.410156 168.480469 217.238281 168.417969 C 217.242188 168.296875 217.253906 168.214844 217.265625 168.195312 C 217.292969 168.152344 217.167969 168.089844 216.933594 168.015625 C 216.707031 167.230469 215.972656 164.523438 215.917969 161.871094 C 215.878906 159.945312 216.117188 159.246094 216.308594 158.992188 C 216.480469 158.984375 216.605469 158.964844 216.605469 158.941406 L 216.605469 158.542969 C 216.789062 158.535156 216.925781 158.515625 216.925781 158.492188 L 216.925781 158.101562 C 217.191406 158.101562 217.402344 158.09375 217.402344 157.917969 L 217.402344 154.890625 C 217.402344 154.707031 217.171875 154.78125 216.886719 154.78125 L 216.386719 154.78125 L 216.386719 155.996094 L 215.878906 155.996094 L 215.878906 154.78125 L 213.464844 154.78125 L 213.464844 155.996094 L 212.5625 155.996094 L 212.5625 154.78125 L 210.144531 154.78125 L 210.144531 155.996094 L 209.640625 155.996094 L 209.640625 154.78125 L 209.175781 154.78125 C 208.890625 154.78125 208.660156 154.707031 208.660156 154.890625 L 208.660156 157.917969 C 208.660156 158.09375 208.871094 158.101562 209.140625 158.101562 L 209.140625 158.492188 C 209.140625 158.515625 209.273438 158.535156 209.460938 158.542969 L 209.460938 158.941406 C 209.460938 158.96875 209.605469 158.988281 209.796875 158.996094 C 210.003906 159.246094 210.261719 159.9375 210.253906 161.820312 C 210.238281 164.398438 209.441406 167.125 209.171875 167.972656 C 208.921875 168.058594 208.789062 168.136719 208.816406 168.195312 C 208.828125 168.210938 208.84375 168.296875 208.851562 168.417969 C 208.675781 168.480469 208.566406 168.566406 208.566406 168.664062 C 208.566406 168.757812 208.667969 168.839844 208.832031 168.902344 C 208.761719 169.382812 208.519531 169.980469 207.8125 170.289062 C 207.394531 170.472656 206.976562 171.019531 206.792969 171.492188 C 206.589844 171.574219 206.472656 171.679688 206.472656 171.796875 C 206.472656 171.894531 206.554688 171.984375 206.699219 172.058594 C 206.746094 172.402344 206.984375 172.683594 207.304688 172.789062 L 207.234375 172.789062 C 206.988281 172.789062 206.109375 173.070312 206.109375 173.414062 C 206.109375 173.757812 206.3125 174.039062 206.558594 174.039062 L 219.527344 174.039062 C 219.777344 174.039062 219.976562 173.757812 219.976562 173.414062 C 219.976562 173.070312 219.101562 172.789062 218.851562 172.789062 "/><path style=" stroke:none;fill-rule:nonzero;fill:#5fe144;fill-opacity:1;" d="M 88.691406 180.496094 L 88.625 180.496094 C 88.941406 180.390625 89.179688 180.109375 89.226562 179.765625 C 89.371094 179.691406 89.457031 179.601562 89.457031 179.503906 C 89.457031 179.386719 89.332031 179.28125 89.132812 179.195312 C 88.941406 178.734375 88.527344 178.199219 88.113281 177.996094 C 87.449219 177.695312 87.199219 177.085938 87.113281 176.601562 C 87.265625 176.539062 87.355469 176.457031 87.355469 176.371094 C 87.355469 176.273438 87.25 176.1875 87.078125 176.125 C 87.082031 176 87.097656 175.917969 87.109375 175.898438 C 87.132812 175.859375 87.007812 175.796875 86.777344 175.722656 C 87.164062 175.667969 87.425781 175.59375 87.5 175.503906 C 88.738281 173.6875 88.324219 171.898438 87.058594 171.074219 C 85.792969 170.25 83.566406 167.664062 83.429688 167.472656 C 83.292969 167.277344 83.511719 166.921875 84.53125 166.644531 C 85.546875 166.371094 86.097656 166.894531 86.34375 167.363281 C 86.59375 167.832031 87.058594 167.609375 87.308594 167.445312 C 87.554688 167.277344 87.8125 167.6875 87.910156 167.304688 C 87.941406 167.199219 87.316406 166.859375 87.316406 166.859375 L 87.445312 166.675781 C 87.445312 166.675781 87.855469 166.921875 87.941406 166.921875 C 88.023438 166.921875 88.242188 166.425781 88.242188 166.425781 C 88.242188 166.425781 88.464844 166.558594 88.5625 166.367188 C 88.664062 166.160156 88.679688 165.140625 88.160156 164.722656 C 88.351562 164.554688 88.324219 164.03125 87.773438 163.867188 C 87.222656 163.703125 85.273438 162.605469 84.886719 162.410156 C 84.886719 162.191406 84.640625 162 84.035156 161.945312 C 83.429688 161.886719 82.769531 161.339844 82.6875 161.28125 C 82.492188 161.117188 82.578125 159.632812 82.4375 159.578125 C 81.75 159.386719 81.3125 160.566406 81.285156 160.816406 C 80.84375 160.816406 79.605469 161.367188 79.550781 161.777344 C 79.277344 161.75 78.230469 162.824219 78.367188 163.320312 C 78.175781 163.347656 77.207031 164.664062 77.730469 165.105469 C 77.628906 165.628906 77.324219 166.8125 77.792969 166.949219 C 77.929688 167.609375 78.101562 168.738281 78.597656 168.847656 C 78.707031 169.617188 78.671875 170.773438 79.167969 170.855469 C 79.195312 171.515625 78.917969 172.449219 79.21875 172.667969 C 79 173.191406 78.503906 173.523438 78.671875 173.742188 C 78.285156 173.964844 78.039062 174.265625 78.175781 174.511719 C 77.679688 174.675781 77.542969 175.089844 77.820312 175.253906 C 78.230469 175.449219 78.613281 175.589844 78.96875 175.695312 C 78.746094 175.773438 78.628906 175.847656 78.65625 175.898438 C 78.664062 175.917969 78.683594 176 78.691406 176.125 C 78.515625 176.1875 78.40625 176.273438 78.40625 176.371094 C 78.40625 176.464844 78.507812 176.546875 78.671875 176.609375 C 78.601562 177.085938 78.359375 177.6875 77.652344 177.996094 C 77.234375 178.179688 76.820312 178.722656 76.632812 179.199219 C 76.429688 179.28125 76.308594 179.386719 76.308594 179.503906 C 76.308594 179.601562 76.394531 179.691406 76.539062 179.765625 C 76.582031 180.109375 76.820312 180.390625 77.140625 180.496094 L 77.074219 180.496094 C 76.824219 180.496094 75.949219 180.773438 75.949219 181.121094 C 75.949219 181.464844 76.152344 181.746094 76.398438 181.746094 L 89.367188 181.746094 C 89.613281 181.746094 89.816406 181.464844 89.816406 181.121094 C 89.816406 180.773438 88.941406 180.496094 88.691406 180.496094 "/><path style=" stroke:none;fill-rule:nonzero;fill:#5fe144;fill-opacity:1;" d="M 221.597656 181.953125 L 93.984375 181.953125 L 93.984375 173.730469 L 221.597656 173.730469 L 221.597656 181.953125 "/><path style=" stroke:none;fill-rule:nonzero;fill:#5fe144;fill-opacity:1;" d="M 202.664062 172.789062 L 202.597656 172.789062 C 202.917969 172.683594 203.152344 172.402344 203.203125 172.058594 C 203.34375 171.984375 203.429688 171.894531 203.429688 171.796875 C 203.429688 171.660156 203.265625 171.34375 202.996094 171.0625 C 202.78125 170.488281 202.433594 169.859375 202.089844 169.691406 C 201.484375 169.417969 201.21875 168.964844 201.117188 168.585938 C 201.25 168.523438 201.332031 168.449219 201.332031 168.363281 C 201.332031 168.269531 201.222656 168.179688 201.050781 168.117188 C 201.050781 167.996094 201.070312 167.914062 201.082031 167.894531 C 201.117188 167.835938 200.847656 167.726562 200.398438 167.613281 C 200.105469 166.089844 199.144531 160.886719 199.097656 158.21875 C 199.0625 156.285156 199.167969 155.449219 199.253906 155.089844 C 199.480469 155.046875 199.640625 154.953125 199.640625 154.84375 C 199.640625 154.820312 199.632812 154.800781 199.617188 154.777344 L 199.953125 154.777344 C 200.421875 154.777344 200.804688 154.507812 200.820312 154.167969 C 200.964844 154.121094 201.054688 154.058594 201.054688 153.996094 C 201.054688 153.90625 200.902344 153.832031 200.667969 153.785156 C 200.523438 153.628906 200.285156 153.527344 200.015625 153.511719 C 200.082031 153.457031 200.117188 153.398438 200.117188 153.328125 C 200.117188 153.144531 199.84375 152.992188 199.484375 152.96875 C 199.460938 152.628906 199.210938 152.359375 198.90625 152.359375 L 198.898438 152.359375 C 198.917969 152.265625 198.941406 152.175781 198.960938 152.085938 L 199.042969 152.085938 C 199.390625 152.085938 199.667969 151.96875 199.667969 151.824219 C 199.667969 151.683594 199.390625 151.566406 199.050781 151.566406 C 199.066406 151.429688 199.074219 151.308594 199.074219 151.207031 C 199.074219 150.972656 199.070312 150.738281 199.054688 150.507812 C 199.074219 150.269531 199.609375 148.175781 200.332031 147.027344 C 200.457031 146.796875 200.234375 146.582031 200.054688 146.585938 C 199.839844 146.589844 198.824219 146.078125 198.757812 146.136719 C 198.570312 145.679688 198.257812 145.300781 197.925781 145.035156 L 197.933594 145.035156 C 198.097656 145.035156 198.230469 144.917969 198.230469 144.773438 C 198.230469 144.628906 198.097656 144.515625 197.933594 144.515625 L 197.742188 144.515625 C 197.742188 144.511719 197.742188 144.507812 197.742188 144.503906 C 197.742188 144.21875 197.542969 143.972656 197.257812 143.863281 L 197.15625 143.324219 L 197.972656 143.460938 L 197.972656 142.738281 L 197.15625 142.878906 L 197.292969 142.042969 L 196.570312 142.042969 L 196.707031 142.878906 L 195.894531 142.738281 L 195.894531 143.460938 L 196.707031 143.324219 L 196.605469 143.863281 C 196.320312 143.972656 196.121094 144.21875 196.121094 144.503906 C 196.121094 144.507812 196.121094 144.511719 196.121094 144.515625 L 195.929688 144.515625 C 195.765625 144.515625 195.632812 144.628906 195.632812 144.773438 C 195.632812 144.917969 195.765625 145.035156 195.929688 145.035156 C 195.601562 145.300781 195.289062 145.679688 195.101562 146.132812 C 195.035156 146.078125 194 146.589844 193.808594 146.585938 C 193.628906 146.582031 193.40625 146.796875 193.53125 147.027344 C 194.222656 148.125 194.769531 150.15625 194.804688 150.472656 C 194.789062 150.714844 194.78125 150.960938 194.78125 151.207031 C 194.78125 151.308594 194.789062 151.429688 194.808594 151.566406 C 194.46875 151.570312 194.195312 151.683594 194.195312 151.824219 C 194.195312 151.96875 194.476562 152.085938 194.820312 152.085938 L 194.894531 152.085938 C 194.914062 152.175781 194.9375 152.265625 194.960938 152.359375 L 194.957031 152.359375 C 194.652344 152.359375 194.402344 152.628906 194.378906 152.96875 C 194.023438 152.992188 193.746094 153.144531 193.746094 153.328125 C 193.746094 153.398438 193.78125 153.457031 193.847656 153.511719 C 193.574219 153.527344 193.34375 153.628906 193.195312 153.785156 C 192.964844 153.832031 192.808594 153.90625 192.808594 153.996094 C 192.808594 154.058594 192.898438 154.121094 193.042969 154.167969 C 193.058594 154.507812 193.441406 154.777344 193.910156 154.777344 L 194.242188 154.777344 C 194.230469 154.800781 194.222656 154.820312 194.222656 154.84375 C 194.222656 154.957031 194.390625 155.054688 194.625 155.089844 C 194.726562 155.449219 194.851562 156.277344 194.84375 158.167969 C 194.832031 160.773438 193.808594 165.96875 193.480469 167.5625 C 193.015625 167.6875 192.742188 167.816406 192.78125 167.894531 C 192.789062 167.914062 192.8125 167.996094 192.816406 168.117188 C 192.640625 168.179688 192.53125 168.265625 192.53125 168.363281 C 192.53125 168.449219 192.621094 168.53125 192.769531 168.59375 C 192.675781 168.96875 192.417969 169.410156 191.777344 169.691406 C 191.425781 169.84375 191.074219 170.484375 190.863281 171.066406 C 190.597656 171.34375 190.433594 171.660156 190.433594 171.796875 C 190.433594 171.894531 190.515625 171.984375 190.660156 172.058594 C 190.707031 172.402344 190.945312 172.683594 191.265625 172.789062 L 191.199219 172.789062 C 190.949219 172.789062 190.074219 173.070312 190.074219 173.414062 C 190.074219 173.757812 190.277344 174.039062 190.523438 174.039062 L 203.339844 174.039062 C 203.589844 174.039062 203.789062 173.757812 203.789062 173.414062 C 203.789062 173.070312 202.914062 172.789062 202.664062 172.789062 "/><path style=" stroke:none;fill-rule:nonzero;fill:#5fe144;fill-opacity:1;" d="M 297.332031 181.15625 C 296.1875 181.152344 34.941406 181.117188 34.21875 181.15625 C 33.488281 181.191406 37.515625 188.921875 38.359375 188.910156 C 38.621094 188.910156 63.492188 188.910156 97.597656 188.910156 C 97.308594 189.664062 97.152344 190.457031 97.152344 191.277344 C 97.152344 196.152344 102.632812 200.105469 109.394531 200.105469 C 111.132812 200.105469 113.765625 199.339844 116.519531 199.339844 C 132.03125 199.339844 130.277344 209.695312 143.054688 210.042969 C 143.554688 210.054688 144.046875 210.046875 144.53125 210.019531 C 145.007812 211.328125 145.722656 212.269531 146.675781 212.503906 C 146.667969 212.679688 146.65625 212.859375 146.65625 213.046875 C 146.613281 215.492188 147.300781 217.382812 148.039062 218.707031 L 147.945312 225.207031 C 145.851562 227.476562 143.925781 230.648438 143.953125 235.59375 C 143.976562 240.695312 145.464844 246.445312 147.59375 248.644531 L 147.539062 252.363281 C 145.308594 254.988281 143.535156 262.027344 143.261719 268.511719 C 142.992188 275.015625 144.90625 279.316406 147.089844 282.445312 L 147.03125 286.40625 C 146.675781 286.484375 146.304688 286.527344 145.917969 286.527344 C 140.941406 286.527344 140.207031 302.347656 145.371094 303.5625 C 145.652344 305.335938 146.160156 306.71875 146.710938 307.769531 L 146.605469 314.9375 C 145.789062 315.398438 145.027344 316.082031 144.667969 317.117188 C 144.289062 318.195312 144.015625 319.652344 143.945312 321.28125 C 142.480469 328.578125 143.589844 343.285156 145.734375 344.335938 C 145.882812 344.410156 146.023438 344.507812 146.160156 344.613281 L 146.023438 353.839844 L 141.738281 353.839844 C 140.902344 353.839844 140.226562 355.128906 140.203125 356.734375 L 136.074219 356.734375 C 135.09375 356.734375 134.273438 359.53125 134.054688 363.28125 L 123.378906 363.28125 C 121.558594 363.28125 120.082031 367.09375 120.082031 371.800781 C 120.136719 371.980469 195.351562 371.789062 195.382812 371.800781 C 195.382812 367.09375 193.90625 363.28125 192.082031 363.28125 L 181.410156 363.28125 C 181.191406 359.53125 180.371094 356.734375 179.390625 356.734375 L 175.261719 356.734375 C 175.238281 355.128906 174.5625 353.839844 173.726562 353.839844 L 168.660156 353.839844 L 168.519531 344.613281 C 168.65625 344.507812 168.796875 344.410156 168.945312 344.335938 C 171.09375 343.285156 172.203125 328.582031 170.738281 321.285156 C 170.664062 319.652344 170.390625 318.195312 170.015625 317.117188 C 169.652344 316.082031 168.894531 315.398438 168.078125 314.941406 L 167.972656 307.769531 C 168.523438 306.71875 169.03125 305.335938 169.308594 303.5625 C 174.472656 302.351562 173.742188 286.527344 168.765625 286.527344 C 168.378906 286.527344 168.007812 286.484375 167.652344 286.40625 L 167.59375 282.445312 C 169.777344 279.3125 171.691406 275.015625 171.417969 268.511719 C 171.148438 262.027344 169.371094 254.988281 167.144531 252.363281 L 167.085938 248.644531 C 169.21875 246.445312 170.707031 240.695312 170.730469 235.59375 C 170.753906 230.648438 168.832031 227.476562 166.738281 225.207031 L 166.640625 218.707031 C 167.378906 217.382812 168.070312 215.492188 168.027344 213.046875 C 168.023438 212.859375 168.015625 212.679688 168.003906 212.503906 C 168.957031 212.273438 169.667969 211.335938 170.144531 210.039062 C 170.484375 210.046875 170.824219 210.050781 171.167969 210.042969 C 183.945312 209.695312 182.191406 199.339844 197.699219 199.339844 C 200.457031 199.339844 203.089844 200.105469 204.832031 200.105469 C 211.589844 200.105469 217.070312 196.152344 217.070312 191.277344 C 217.070312 190.457031 216.910156 189.667969 216.621094 188.914062 C 259.3125 188.914062 292.894531 188.914062 293.191406 188.910156 C 294.003906 188.902344 298.476562 181.15625 297.332031 181.15625 "/><g clip-rule="nonzero" clip-path="url(#cb60f127db)"><path style=" stroke:none;fill-rule:nonzero;fill:#5fe144;fill-opacity:1;" d="M 395.359375 212.355469 C 394.859375 210.996094 394.738281 210.128906 394.738281 210.128906 C 394.738281 210.128906 395.105469 209.511719 395.105469 208.523438 C 395.105469 207.535156 394.859375 205.683594 394.859375 205.683594 C 394.859375 205.683594 396.34375 205.3125 395.972656 203.457031 C 395.605469 201.605469 392.761719 197.402344 391.773438 194.066406 C 390.785156 190.730469 389.054688 184.800781 384.976562 176.769531 C 380.902344 168.738281 372.992188 154.15625 370.890625 148.226562 C 368.789062 142.292969 361.378906 128.457031 359.648438 125.367188 C 352.109375 109.675781 340.675781 101.019531 333.472656 96.414062 C 326.277344 91.808594 309.867188 87.679688 309.003906 87.96875 C 308.140625 88.257812 306.988281 89.121094 306.988281 89.121094 C 306.988281 89.121094 302.863281 88.160156 299.3125 86.433594 C 297.101562 85.359375 291.648438 83.125 287.476562 81.410156 C 286.828125 80.480469 286.4375 79.191406 285.640625 78.40625 C 284.3125 77.09375 284.320312 75.75 283.222656 74.207031 C 282.019531 72.519531 280.34375 70.613281 279.027344 68.996094 C 277.726562 67.398438 272.441406 61.585938 270.816406 60.429688 C 269.136719 59.234375 262 54.429688 259.839844 53.644531 C 253.085938 51.191406 249.996094 52.109375 247.617188 52.082031 C 244.984375 52.054688 241.917969 52.347656 241.132812 54.878906 C 237.0625 54.371094 234.015625 57.671875 231.1875 60.683594 C 228.546875 63.496094 226.472656 67.121094 224.90625 70.628906 C 222.996094 74.910156 222.984375 79.347656 222.464844 83.917969 C 222.007812 87.855469 222.59375 96.394531 223.964844 100.277344 C 224.730469 102.4375 229.558594 103.738281 231.054688 103.324219 C 231.601562 103.171875 232.351562 102.847656 233.207031 102.417969 C 234.503906 103.59375 235.617188 104.59375 236.070312 105.242188 C 236.742188 106.203125 239.046875 105.53125 239.046875 105.53125 C 239.046875 105.53125 240.101562 105.625 240.679688 107.640625 C 241.253906 109.65625 242.886719 112.441406 243.460938 114.648438 C 244.035156 116.855469 245.1875 117.71875 246.628906 117.527344 C 248.066406 117.335938 249.988281 115.414062 250.5625 115.320312 C 251.136719 115.222656 253.152344 117.429688 253.152344 118.007812 C 253.152344 118.582031 254.882812 119.445312 255.839844 118.675781 C 255.839844 119.347656 257.089844 120.789062 257.855469 120.019531 C 259.007812 118.964844 260.257812 120.5 261.40625 122.226562 C 262.558594 123.957031 266.109375 124.433594 267.355469 122.902344 C 268.601562 121.367188 271.195312 116.757812 272.441406 115.128906 C 273.691406 113.496094 274.265625 113.785156 275.707031 113.785156 C 277.144531 113.785156 278.96875 113.015625 280.214844 113.015625 C 281.464844 113.015625 282.765625 114.359375 282.765625 114.359375 C 280.652344 118.726562 281.058594 120.21875 281.058594 120.21875 C 281.058594 120.21875 279.824219 124.585938 279.742188 126.148438 C 279.660156 127.714844 280.730469 128.207031 280.730469 128.207031 C 280.730469 128.207031 280.402344 130.761719 281.058594 135.292969 C 281.71875 139.824219 279.199219 142.210938 279.035156 145.175781 C 276.890625 149.957031 273.414062 157.675781 273.414062 157.675781 C 273.414062 157.675781 265.835938 153.886719 263.777344 152.320312 C 261.71875 150.753906 257.519531 145.894531 255.292969 143.34375 C 253.070312 140.789062 245.820312 136.835938 241.867188 134.691406 C 237.914062 132.550781 235.605469 130.820312 233.546875 129.914062 C 231.488281 129.007812 228.933594 130.738281 228.933594 130.738281 C 228.933594 130.738281 222.835938 129.996094 221.355469 130.164062 C 219.871094 130.328125 219.542969 130.902344 218.71875 131.972656 C 217.894531 133.042969 218.222656 135.023438 218.800781 137.082031 C 214.519531 142.1875 215.671875 142.597656 215.175781 143.753906 C 214.683594 144.90625 213.777344 148.121094 213.859375 148.613281 C 213.941406 149.109375 215.421875 149.765625 216.578125 149.023438 C 219.210938 146.882812 219.789062 143.257812 219.789062 143.257812 C 219.789062 143.257812 220.449219 142.847656 220.695312 142.519531 C 220.941406 142.765625 222.097656 142.847656 222.097656 142.847656 C 222.097656 142.847656 222.425781 143.425781 223.167969 143.507812 C 223.90625 143.589844 225.886719 143.835938 227.203125 144.164062 C 228.523438 144.496094 229.921875 144.496094 230.332031 143.753906 C 231.160156 141.859375 229.015625 141.117188 229.015625 141.117188 L 229.429688 140.703125 C 229.921875 141.53125 233.792969 144.496094 233.792969 144.496094 C 233.792969 144.496094 231.652344 145.234375 230.25 146.058594 C 227.039062 147.871094 225.96875 149.519531 226.628906 150.921875 C 227.285156 152.320312 230.5 151.992188 232.144531 151.332031 C 233.792969 150.671875 234.125 149.929688 235.933594 148.941406 C 237.75 147.953125 239.066406 148.285156 240.300781 148.777344 C 241.539062 149.273438 243.597656 150.589844 245.078125 150.839844 C 245.652344 152.648438 246.808594 153.0625 249.113281 157.429688 C 251.421875 161.792969 260.070312 171.925781 262.292969 173.324219 C 261.390625 174.972656 260.976562 176.703125 260.976562 176.703125 C 260.976562 176.703125 259.90625 178.019531 259.410156 177.9375 C 258.917969 177.855469 257.683594 177.855469 256.445312 177.773438 C 255.210938 177.691406 252.722656 177.046875 252.289062 179.542969 C 251.988281 181.261719 255.210938 181.316406 255.953125 181.398438 C 256.695312 181.480469 259 183.210938 262.050781 183.621094 C 265.09375 184.035156 269.296875 181.644531 269.296875 181.644531 C 269.296875 181.644531 272.511719 182.636719 274.15625 183.128906 C 275.804688 183.621094 279.839844 183.292969 279.839844 183.292969 C 279.839844 183.292969 280.171875 184.117188 281.40625 184.117188 C 282.640625 184.117188 283.136719 182.636719 283.136719 182.636719 C 283.136719 182.636719 288.078125 182.46875 289.480469 182.140625 C 290.878906 181.8125 292.445312 182.800781 294.175781 183.046875 C 295.902344 183.292969 299.691406 182.714844 300.683594 180.984375 C 301.671875 179.257812 298.542969 178.269531 296.398438 178.019531 C 294.257812 177.773438 293.351562 177.195312 292.363281 177.195312 C 291.375 177.195312 289.890625 177.363281 288.984375 176.949219 C 289.890625 175.878906 297.371094 159.921875 297.371094 159.921875 L 298.855469 157.246094 C 298.855469 157.246094 300.335938 159.59375 305.03125 163.054688 C 309.726562 166.511719 320.972656 178.867188 323.441406 183.9375 C 325.914062 189 331.71875 196.660156 331.71875 196.660156 C 331.71875 196.660156 330.359375 197.402344 331.601562 201.109375 C 332.832031 204.816406 331.351562 206.421875 331.847656 208.398438 C 330.605469 208.277344 325.421875 209.511719 323.6875 209.757812 C 322.453125 208.648438 314.792969 210.75 309.851562 210.625 C 304.910156 210.5 308.863281 212.601562 308.863281 212.601562 C 308.863281 212.601562 290.203125 214.824219 282.050781 215.195312 C 273.894531 215.566406 263.144531 219.519531 259.808594 222.855469 C 256.472656 226.191406 253.753906 234.472656 252.886719 238.179688 C 250.171875 240.773438 245.351562 249.917969 245.351562 259.183594 C 245.351562 268.453125 245.597656 270.304688 243.25 279.203125 C 240.902344 288.097656 238.183594 313.304688 233.488281 322.203125 C 228.792969 331.097656 230.769531 333.074219 229.660156 335.792969 C 228.546875 338.511719 222.246094 344.195312 219.648438 346.171875 C 217.054688 348.148438 217.796875 349.753906 217.671875 350.496094 C 216.191406 350.621094 212.484375 352.722656 211.617188 354.449219 C 210.628906 353.832031 205.933594 356.550781 203.957031 357.664062 C 191.726562 358.28125 189.128906 359.519531 187.894531 360.503906 C 186.660156 361.492188 186.414062 369.15625 187.523438 370.019531 C 191.109375 371.875 206.429688 372.367188 213.96875 371.875 C 221.503906 371.378906 232.996094 372.121094 241.523438 371.996094 C 260.054688 375.332031 275.871094 373.726562 283.65625 373.355469 C 291.441406 372.988281 304.785156 371.875 306.019531 371.257812 C 307.257812 370.636719 307.007812 366.683594 307.007812 366.683594 C 307.007812 366.683594 309.480469 367.546875 310.46875 366.683594 C 311.457031 365.820312 314.914062 358.777344 313.929688 354.699219 C 312.941406 350.621094 312.449219 347.777344 312.695312 341.722656 C 312.941406 335.667969 314.296875 330.355469 312.324219 320.59375 C 310.34375 310.835938 307.996094 295.511719 307.75 289.457031 C 307.378906 276.359375 300.210938 262.273438 300.210938 262.273438 C 300.210938 262.273438 306.761719 264.25 328.632812 264.128906 C 350.503906 264.003906 367.429688 259.0625 377.5625 254.613281 C 387.695312 250.164062 393.378906 236.820312 394 233.113281 C 394.738281 235.585938 395.359375 235.210938 396.34375 231.382812 C 397.332031 227.550781 395.851562 213.714844 395.359375 212.355469 Z M 272.433594 343.257812 C 272.242188 343.386719 270.019531 344.59375 268.429688 346.117188 C 266.84375 347.640625 265.382812 350.695312 265.382812 350.695312 C 265.382812 350.695312 266.523438 347.007812 268.242188 343.195312 C 269.957031 339.382812 270.78125 335.886719 270.78125 335.886719 C 270.78125 335.886719 270.972656 338.808594 271.800781 340.144531 C 272.625 341.480469 272.625 343.128906 272.433594 343.257812 "/></g><g style="fill:#000000;fill-opacity:1;"><g transform="translate(195.97956, 349.796339)"><path style="stroke:none" d="M 7.671875 0.203125 C 6.367188 0.203125 5.226562 -0.0507812 4.25 -0.5625 C 3.269531 -1.070312 2.507812 -1.785156 1.96875 -2.703125 C 1.4375 -3.617188 1.171875 -4.675781 1.171875 -5.875 L 1.171875 -11.65625 C 1.171875 -12.851562 1.4375 -13.910156 1.96875 -14.828125 C 2.507812 -15.742188 3.269531 -16.453125 4.25 -16.953125 C 5.226562 -17.453125 6.367188 -17.703125 7.671875 -17.703125 C 8.953125 -17.703125 10.082031 -17.460938 11.0625 -16.984375 C 12.039062 -16.515625 12.800781 -15.84375 13.34375 -14.96875 C 13.882812 -14.09375 14.15625 -13.078125 14.15625 -11.921875 C 14.15625 -11.773438 14.019531 -11.6875 13.75 -11.65625 L 11.078125 -11.46875 L 10.96875 -11.46875 C 10.738281 -11.46875 10.625 -11.507812 10.625 -11.59375 L 10.625 -11.75 C 10.625 -12.632812 10.351562 -13.34375 9.8125 -13.875 C 9.269531 -14.40625 8.554688 -14.671875 7.671875 -14.671875 C 6.773438 -14.671875 6.054688 -14.40625 5.515625 -13.875 C 4.972656 -13.34375 4.703125 -12.632812 4.703125 -11.75 L 4.703125 -5.71875 C 4.703125 -4.851562 4.972656 -4.15625 5.515625 -3.625 C 6.054688 -3.09375 6.773438 -2.828125 7.671875 -2.828125 C 8.554688 -2.828125 9.269531 -3.09375 9.8125 -3.625 C 10.351562 -4.15625 10.625 -4.851562 10.625 -5.71875 C 10.625 -5.800781 10.660156 -5.875 10.734375 -5.9375 C 10.804688 -6 10.910156 -6.019531 11.046875 -6 L 13.71875 -5.875 C 14.007812 -5.84375 14.15625 -5.800781 14.15625 -5.75 L 14.15625 -5.625 C 14.15625 -4.476562 13.882812 -3.460938 13.34375 -2.578125 C 12.800781 -1.691406 12.039062 -1.003906 11.0625 -0.515625 C 10.082031 -0.0351562 8.953125 0.203125 7.671875 0.203125 Z M 7.671875 0.203125 "/></g></g><g style="fill:#000000;fill-opacity:1;"><g transform="translate(213.002141, 349.796339)"><path style="stroke:none" d="M 10.828125 -17.078125 C 10.828125 -17.359375 10.96875 -17.5 11.25 -17.5 L 13.921875 -17.5 C 14.203125 -17.5 14.34375 -17.359375 14.34375 -17.078125 L 14.34375 -0.421875 C 14.34375 -0.140625 14.203125 0 13.921875 0 L 11.25 0 C 10.96875 0 10.828125 -0.140625 10.828125 -0.421875 L 10.828125 -7.171875 C 10.828125 -7.273438 10.773438 -7.328125 10.671875 -7.328125 L 5.203125 -7.328125 C 5.097656 -7.328125 5.046875 -7.273438 5.046875 -7.171875 L 5.046875 -0.421875 C 5.046875 -0.140625 4.90625 0 4.625 0 L 1.953125 0 C 1.671875 0 1.53125 -0.140625 1.53125 -0.421875 L 1.53125 -17.078125 C 1.53125 -17.359375 1.671875 -17.5 1.953125 -17.5 L 4.625 -17.5 C 4.90625 -17.5 5.046875 -17.359375 5.046875 -17.078125 L 5.046875 -10.5 C 5.046875 -10.394531 5.097656 -10.34375 5.203125 -10.34375 L 10.671875 -10.34375 C 10.773438 -10.34375 10.828125 -10.394531 10.828125 -10.5 Z M 10.828125 -17.078125 "/></g></g><g style="fill:#000000;fill-opacity:1;"><g transform="translate(230.524646, 349.796339)"><path style="stroke:none" d="M 13.671875 -14.90625 C 13.671875 -14.613281 13.53125 -14.46875 13.25 -14.46875 L 5.203125 -14.46875 C 5.097656 -14.46875 5.046875 -14.421875 5.046875 -14.328125 L 5.046875 -10.5 C 5.046875 -10.394531 5.097656 -10.34375 5.203125 -10.34375 L 10.421875 -10.34375 C 10.703125 -10.34375 10.84375 -10.203125 10.84375 -9.921875 L 10.84375 -7.75 C 10.84375 -7.46875 10.703125 -7.328125 10.421875 -7.328125 L 5.203125 -7.328125 C 5.097656 -7.328125 5.046875 -7.273438 5.046875 -7.171875 L 5.046875 -3.171875 C 5.046875 -3.078125 5.097656 -3.03125 5.203125 -3.03125 L 13.25 -3.03125 C 13.53125 -3.03125 13.671875 -2.882812 13.671875 -2.59375 L 13.671875 -0.421875 C 13.671875 -0.140625 13.53125 0 13.25 0 L 1.953125 0 C 1.671875 0 1.53125 -0.140625 1.53125 -0.421875 L 1.53125 -17.078125 C 1.53125 -17.359375 1.671875 -17.5 1.953125 -17.5 L 13.25 -17.5 C 13.53125 -17.5 13.671875 -17.359375 13.671875 -17.078125 Z M 13.671875 -14.90625 "/></g></g><g style="fill:#000000;fill-opacity:1;"><g transform="translate(246.947329, 349.796339)"><path style="stroke:none" d="M 7.453125 0.203125 C 6.148438 0.203125 5.003906 -0.0078125 4.015625 -0.4375 C 3.035156 -0.875 2.28125 -1.484375 1.75 -2.265625 C 1.21875 -3.054688 0.953125 -3.976562 0.953125 -5.03125 L 0.953125 -5.453125 C 0.953125 -5.734375 1.09375 -5.875 1.375 -5.875 L 4 -5.875 C 4.28125 -5.875 4.421875 -5.765625 4.421875 -5.546875 L 4.421875 -5.203125 C 4.421875 -4.535156 4.722656 -3.972656 5.328125 -3.515625 C 5.941406 -3.054688 6.738281 -2.828125 7.71875 -2.828125 C 8.601562 -2.828125 9.257812 -3.015625 9.6875 -3.390625 C 10.113281 -3.765625 10.328125 -4.226562 10.328125 -4.78125 C 10.328125 -5.175781 10.191406 -5.507812 9.921875 -5.78125 C 9.660156 -6.0625 9.300781 -6.304688 8.84375 -6.515625 C 8.394531 -6.722656 7.671875 -7.007812 6.671875 -7.375 C 5.535156 -7.757812 4.582031 -8.148438 3.8125 -8.546875 C 3.050781 -8.953125 2.40625 -9.5 1.875 -10.1875 C 1.34375 -10.875 1.078125 -11.726562 1.078125 -12.75 C 1.078125 -13.75 1.332031 -14.625 1.84375 -15.375 C 2.363281 -16.125 3.085938 -16.695312 4.015625 -17.09375 C 4.941406 -17.5 5.992188 -17.703125 7.171875 -17.703125 C 8.441406 -17.703125 9.578125 -17.472656 10.578125 -17.015625 C 11.578125 -16.566406 12.351562 -15.9375 12.90625 -15.125 C 13.46875 -14.320312 13.75 -13.390625 13.75 -12.328125 L 13.75 -12.078125 C 13.75 -11.796875 13.609375 -11.65625 13.328125 -11.65625 L 10.703125 -11.65625 C 10.421875 -11.65625 10.28125 -11.738281 10.28125 -11.90625 L 10.28125 -12.15625 C 10.28125 -12.851562 9.988281 -13.445312 9.40625 -13.9375 C 8.832031 -14.425781 8.046875 -14.671875 7.046875 -14.671875 C 6.242188 -14.671875 5.625 -14.503906 5.1875 -14.171875 C 4.757812 -13.835938 4.546875 -13.378906 4.546875 -12.796875 C 4.546875 -12.378906 4.671875 -12.03125 4.921875 -11.75 C 5.171875 -11.46875 5.550781 -11.207031 6.0625 -10.96875 C 6.570312 -10.738281 7.359375 -10.441406 8.421875 -10.078125 C 9.585938 -9.640625 10.507812 -9.257812 11.1875 -8.9375 C 11.875 -8.613281 12.488281 -8.117188 13.03125 -7.453125 C 13.570312 -6.785156 13.84375 -5.925781 13.84375 -4.875 C 13.84375 -3.851562 13.582031 -2.957031 13.0625 -2.1875 C 12.539062 -1.425781 11.800781 -0.835938 10.84375 -0.421875 C 9.882812 -0.00390625 8.753906 0.203125 7.453125 0.203125 Z M 7.453125 0.203125 "/></g></g><g style="fill:#000000;fill-opacity:1;"><g transform="translate(263.569974, 349.796339)"><path style="stroke:none" d="M 7.453125 0.203125 C 6.148438 0.203125 5.003906 -0.0078125 4.015625 -0.4375 C 3.035156 -0.875 2.28125 -1.484375 1.75 -2.265625 C 1.21875 -3.054688 0.953125 -3.976562 0.953125 -5.03125 L 0.953125 -5.453125 C 0.953125 -5.734375 1.09375 -5.875 1.375 -5.875 L 4 -5.875 C 4.28125 -5.875 4.421875 -5.765625 4.421875 -5.546875 L 4.421875 -5.203125 C 4.421875 -4.535156 4.722656 -3.972656 5.328125 -3.515625 C 5.941406 -3.054688 6.738281 -2.828125 7.71875 -2.828125 C 8.601562 -2.828125 9.257812 -3.015625 9.6875 -3.390625 C 10.113281 -3.765625 10.328125 -4.226562 10.328125 -4.78125 C 10.328125 -5.175781 10.191406 -5.507812 9.921875 -5.78125 C 9.660156 -6.0625 9.300781 -6.304688 8.84375 -6.515625 C 8.394531 -6.722656 7.671875 -7.007812 6.671875 -7.375 C 5.535156 -7.757812 4.582031 -8.148438 3.8125 -8.546875 C 3.050781 -8.953125 2.40625 -9.5 1.875 -10.1875 C 1.34375 -10.875 1.078125 -11.726562 1.078125 -12.75 C 1.078125 -13.75 1.332031 -14.625 1.84375 -15.375 C 2.363281 -16.125 3.085938 -16.695312 4.015625 -17.09375 C 4.941406 -17.5 5.992188 -17.703125 7.171875 -17.703125 C 8.441406 -17.703125 9.578125 -17.472656 10.578125 -17.015625 C 11.578125 -16.566406 12.351562 -15.9375 12.90625 -15.125 C 13.46875 -14.320312 13.75 -13.390625 13.75 -12.328125 L 13.75 -12.078125 C 13.75 -11.796875 13.609375 -11.65625 13.328125 -11.65625 L 10.703125 -11.65625 C 10.421875 -11.65625 10.28125 -11.738281 10.28125 -11.90625 L 10.28125 -12.15625 C 10.28125 -12.851562 9.988281 -13.445312 9.40625 -13.9375 C 8.832031 -14.425781 8.046875 -14.671875 7.046875 -14.671875 C 6.242188 -14.671875 5.625 -14.503906 5.1875 -14.171875 C 4.757812 -13.835938 4.546875 -13.378906 4.546875 -12.796875 C 4.546875 -12.378906 4.671875 -12.03125 4.921875 -11.75 C 5.171875 -11.46875 5.550781 -11.207031 6.0625 -10.96875 C 6.570312 -10.738281 7.359375 -10.441406 8.421875 -10.078125 C 9.585938 -9.640625 10.507812 -9.257812 11.1875 -8.9375 C 11.875 -8.613281 12.488281 -8.117188 13.03125 -7.453125 C 13.570312 -6.785156 13.84375 -5.925781 13.84375 -4.875 C 13.84375 -3.851562 13.582031 -2.957031 13.0625 -2.1875 C 12.539062 -1.425781 11.800781 -0.835938 10.84375 -0.421875 C 9.882812 -0.00390625 8.753906 0.203125 7.453125 0.203125 Z M 7.453125 0.203125 "/></g></g></g></svg>