<svg xmlns="http://www.w3.org/2000/svg" xmlns:xlink="http://www.w3.org/1999/xlink" width="400" zoomAndPan="magnify" viewBox="0 0 300 383.999986" height="512" preserveAspectRatio="xMidYMid meet" version="1.2"><defs><clipPath id="1709fa799a"><path d="M 10 7 L 290.558594 7 L 290.558594 381 L 10 381 Z M 10 7 "/></clipPath></defs><g id="5376fd23ef"><g clip-rule="nonzero" clip-path="url(#1709fa799a)"><path style=" stroke:none;fill-rule:nonzero;fill:#ff6d4d;fill-opacity:1;" d="M 12.878906 344.625 C 13.058594 344.46875 13.265625 344.335938 13.4375 344.164062 C 15.972656 341.574219 18.796875 339.199219 20.960938 336.328125 C 23.175781 333.390625 27.257812 332.390625 28.5625 328.601562 C 28.71875 328.144531 29.472656 327.824219 30.011719 327.570312 C 35.480469 325.035156 38.84375 320.617188 41.214844 315.25 C 41.6875 314.179688 42.398438 313.082031 43.292969 312.355469 C 48.648438 307.996094 52.394531 302.367188 56.175781 296.714844 C 57.976562 294.023438 60.136719 291.515625 62.4375 289.226562 C 66.125 285.558594 70.027344 282.101562 73.921875 278.644531 C 75.164062 277.542969 75.441406 276.476562 75.175781 274.832031 C 74.617188 271.324219 75.652344 270.136719 79.273438 269.457031 C 81.785156 268.988281 83.132812 267.738281 83.574219 265.253906 C 83.765625 264.191406 83.699219 263.082031 83.734375 261.992188 C 83.867188 258.128906 84.027344 254.261719 84.101562 250.398438 C 84.136719 248.707031 84.089844 247.007812 83.914062 245.328125 C 83.082031 237.382812 82.203125 229.445312 81.308594 221.511719 C 81.199219 220.558594 81 219.585938 80.644531 218.703125 C 79.328125 215.445312 78.003906 212.1875 76.519531 209.007812 C 75.976562 207.839844 75.210938 206.488281 74.164062 205.902344 C 70.3125 203.738281 67.699219 200.367188 65.292969 196.917969 C 59.304688 188.339844 55.9375 178.792969 56.984375 168.234375 C 57.398438 164.078125 57.085938 160.304688 55.390625 156.59375 C 54.546875 154.742188 54.542969 152.964844 54.925781 150.957031 C 55.222656 149.402344 54.828125 147.636719 54.417969 146.050781 C 54.089844 144.792969 53.269531 143.65625 52.664062 142.472656 C 41.257812 120.234375 33.628906 96.902344 32.386719 71.765625 C 32.027344 64.480469 33.78125 57.839844 39.3125 52.589844 C 42.734375 49.347656 46.652344 48.035156 51.304688 49.019531 C 52.671875 49.308594 54.0625 49.503906 56.074219 49.851562 C 55.621094 47.726562 55.367188 46.21875 54.972656 44.746094 C 53.308594 38.492188 53.667969 32.316406 55.242188 26.078125 C 59.613281 8.734375 78.59375 2.691406 92.222656 10.414062 C 98.933594 14.21875 103.632812 19.570312 103.253906 27.828125 C 103.089844 31.417969 104.304688 33.789062 107.316406 35.605469 C 108.785156 36.488281 110.503906 37.414062 110.828125 39.613281 C 106.941406 42.148438 102.335938 40.734375 97.339844 42.140625 C 98.929688 43.058594 99.753906 43.613281 100.648438 44.03125 C 102.621094 44.949219 104.671875 45.714844 106.613281 46.695312 C 109.742188 48.273438 110.03125 48.929688 108.535156 52.097656 C 106.320312 56.792969 103.914062 61.402344 101.601562 66.054688 C 101.351562 66.558594 101.167969 67.097656 100.730469 68.164062 C 105.992188 67.996094 110.914062 69.460938 115.238281 65.699219 C 116.757812 64.378906 118.71875 63.476562 120.605469 62.703125 C 124.484375 61.117188 128.417969 61.117188 132.199219 63.113281 C 134.015625 64.074219 135.871094 65.019531 137.523438 66.226562 C 140.351562 68.300781 142.972656 70.65625 145.808594 72.71875 C 146.804688 73.441406 148.253906 74.164062 149.355469 73.988281 C 152.289062 73.519531 155.144531 72.566406 157.96875 71.820312 C 158.027344 70.621094 157.988281 69.886719 158.109375 69.183594 C 158.851562 64.796875 160.792969 61.136719 164.78125 58.882812 C 168.164062 56.972656 170.621094 57.996094 171.785156 61.625 C 172.097656 62.601562 172.472656 63.554688 172.820312 64.519531 C 173.777344 60.867188 176.539062 60.273438 179.445312 59.609375 C 207.546875 53.1875 235.632812 46.691406 263.730469 40.242188 C 269.867188 38.835938 276.03125 37.542969 282.179688 36.171875 C 283.875 35.792969 285.410156 35.753906 285.921875 37.839844 C 287.339844 43.59375 288.746094 49.351562 290.0625 55.128906 C 290.511719 57.09375 289.550781 58.398438 287.613281 58.933594 C 284.808594 59.703125 282.027344 60.566406 279.191406 61.1875 C 248.316406 67.972656 217.433594 74.722656 186.554688 81.484375 C 185.523438 81.710938 184.511719 82.027344 184.007812 82.160156 C 183.734375 84.4375 184.109375 86.65625 183.191406 87.988281 C 180.320312 92.148438 177.121094 96.117188 173.753906 99.898438 C 169.890625 104.234375 168.734375 104.230469 163.890625 101.050781 C 162.675781 100.25 161.480469 99.417969 160.292969 98.585938 C 158.824219 97.558594 157.367188 96.507812 155.816406 95.40625 C 154.015625 96.617188 152.425781 97.691406 150.828125 98.761719 C 144.6875 102.875 138.140625 104.570312 130.816406 102.425781 C 128.507812 101.75 126.070312 101.480469 123.679688 101.125 C 121.957031 100.867188 120.296875 100.996094 119.015625 102.46875 C 117.769531 103.90625 116.347656 103.792969 114.773438 102.9375 C 111.445312 101.136719 107.992188 102.042969 104.117188 102.308594 C 104.28125 103.796875 104.292969 104.972656 104.554688 106.089844 C 105.109375 108.449219 105.847656 110.761719 106.421875 113.113281 C 109.535156 125.886719 111.511719 138.769531 109.625 151.945312 C 109.375 153.683594 110.195312 154.59375 111.152344 155.734375 C 113.785156 158.882812 116.796875 161.855469 118.773438 165.386719 C 125.339844 177.109375 131.578125 189.023438 137.820312 200.921875 C 140.746094 206.5 143.351562 212.230469 144.023438 218.636719 C 144.171875 220.058594 144.714844 221.460938 145.214844 222.820312 C 145.53125 223.671875 146.109375 224.421875 146.585938 225.25 C 147.335938 225.058594 147.839844 225.023438 148.246094 224.808594 C 153.558594 222 154.503906 221.171875 156.535156 228.992188 C 158.324219 235.886719 160.390625 242.777344 163.117188 249.34375 C 165.203125 254.363281 166.554688 259.425781 167.066406 264.730469 C 167.421875 268.402344 168.140625 272.191406 165.859375 275.6875 C 165.355469 276.460938 165.550781 277.804688 165.671875 278.855469 C 166.476562 285.832031 167.285156 292.804688 168.207031 299.765625 C 169.8125 311.882812 170.976562 324.070312 174.160156 335.9375 C 174.65625 337.785156 175.066406 339.816406 174.816406 341.671875 C 174.5 344.042969 174.800781 345.867188 177.015625 347.027344 C 176.738281 347.828125 176.601562 348.421875 176.34375 348.957031 C 174.265625 353.257812 174.8125 357.246094 178.035156 360.699219 C 179.917969 362.71875 182.105469 364.464844 184.222656 366.257812 C 185.605469 367.425781 187.214844 368.339844 188.527344 369.574219 C 190.785156 371.695312 190.886719 373.589844 188.921875 375.949219 C 188.164062 376.855469 187.179688 377.660156 186.152344 378.246094 C 182.691406 380.21875 178.882812 381.308594 174.988281 380.433594 C 171.25 379.59375 167.425781 378.5 164.074219 376.707031 C 158.382812 373.664062 152.710938 370.847656 146.328125 369.492188 C 141.980469 368.566406 138.335938 366.078125 135.222656 362.902344 C 132.84375 360.476562 132.234375 357.667969 133.835938 354.59375 C 135.066406 352.234375 136.195312 349.761719 137.800781 347.671875 C 142.496094 341.550781 141.425781 334.855469 138.949219 328.691406 C 136.605469 322.847656 133.980469 317.152344 132.421875 311.023438 C 132.207031 310.175781 131.664062 309.074219 130.972656 308.761719 C 129.636719 308.160156 129.363281 307.117188 128.96875 305.960938 C 128.464844 304.472656 127.976562 302.941406 127.191406 301.597656 C 125.792969 299.207031 125.222656 296.980469 127.980469 294.722656 C 123.71875 291.34375 125.808594 286.527344 124.09375 282.285156 C 123.375 283.382812 122.605469 284.449219 121.945312 285.578125 C 120.304688 288.382812 119.179688 291.664062 117.003906 293.953125 C 111.867188 299.355469 107.171875 305.375 100.09375 308.589844 C 99.234375 308.980469 98.503906 309.699219 97.785156 310.34375 C 91.203125 316.246094 84.566406 322.085938 78.097656 328.109375 C 73.851562 332.0625 69.8125 336.242188 65.765625 340.402344 C 62.386719 343.867188 59.132812 347.457031 55.816406 350.980469 C 54.15625 352.746094 52.367188 354.398438 50.835938 356.265625 C 49.066406 358.433594 48.914062 360.050781 50.6875 362.171875 C 52.121094 363.882812 54.082031 365.171875 55.886719 366.554688 C 57.699219 367.945312 59.703125 369.101562 61.445312 370.570312 C 63.136719 372 63.871094 373.972656 62.972656 376.136719 C 62.113281 378.21875 60.132812 378.601562 58.144531 378.742188 C 57.183594 378.8125 56.191406 378.839844 55.242188 378.695312 C 48.195312 377.640625 41.601562 375.507812 35.980469 370.851562 C 32.53125 367.996094 28.789062 365.496094 25.347656 362.636719 C 20.976562 359.003906 16.621094 355.328125 12.554688 351.371094 C 9.484375 348.390625 9.734375 347.378906 12.878906 344.625 Z M 95.300781 56.234375 C 94.027344 56.28125 93.039062 56.820312 93.085938 58.503906 C 94.691406 58.503906 96.144531 58.503906 97.777344 58.503906 C 97.613281 56.609375 96.554688 56.1875 95.300781 56.234375 Z M 107.574219 49.40625 C 105.164062 48.449219 103.304688 47.710938 101.117188 46.839844 C 100.855469 49.730469 101.820312 52.722656 98.40625 53.976562 C 99.9375 56.375 102.210938 56.007812 104.34375 57.023438 C 105.394531 54.546875 106.359375 52.269531 107.574219 49.40625 Z M 99.480469 66.183594 C 100.757812 64.445312 101.921875 62.601562 102.949219 60.703125 C 103.851562 59.042969 102.867188 58.277344 101.105469 57.96875 C 99.21875 60.726562 97.457031 63.292969 95.621094 65.972656 C 97.085938 67.285156 98.359375 67.71875 99.480469 66.183594 Z M 94.507812 64.800781 C 95.382812 63.425781 95.976562 62.492188 97 60.875 C 94.917969 60.777344 93.539062 60.710938 92.160156 60.644531 C 92.003906 61.015625 91.84375 61.390625 91.683594 61.765625 C 92.507812 62.648438 93.332031 63.535156 94.507812 64.800781 Z M 94.507812 64.800781 "/></g><path style=" stroke:none;fill-rule:nonzero;fill:#ff6d4d;fill-opacity:1;" d="M 155.898438 176.910156 C 155.773438 176.703125 155.652344 176.492188 155.527344 176.285156 C 194.21875 157.929688 222.863281 129.253906 242.628906 91.359375 C 242.925781 91.804688 243.054688 91.910156 243.042969 92 C 242.988281 92.472656 242.949219 92.960938 242.8125 93.410156 C 237.386719 111.21875 228.386719 126.941406 215.125 140.058594 C 199.867188 155.148438 181.871094 166.136719 162.222656 174.53125 C 160.15625 175.414062 158.007812 176.121094 155.898438 176.910156 Z M 155.898438 176.910156 "/><path style=" stroke:none;fill-rule:nonzero;fill:#ff6d4d;fill-opacity:1;" d="M 187.417969 143.652344 C 175.960938 154.796875 162.863281 163.625 148.597656 170.765625 C 147.804688 171.164062 146.90625 171.355469 146.054688 171.648438 C 177.570312 152.355469 200.964844 126.160156 215.246094 91.949219 C 215.476562 92.054688 215.707031 92.164062 215.9375 92.273438 C 215.726562 93.527344 215.605469 94.808594 215.285156 96.039062 C 210.507812 114.546875 201.082031 130.355469 187.417969 143.652344 Z M 187.417969 143.652344 "/><g style="fill:#000000;fill-opacity:1;"><g transform="translate(169.320988, 361.874971)"><path style="stroke:none" d="M 7.671875 0.203125 C 6.367188 0.203125 5.226562 -0.0507812 4.25 -0.5625 C 3.269531 -1.070312 2.507812 -1.785156 1.96875 -2.703125 C 1.4375 -3.617188 1.171875 -4.675781 1.171875 -5.875 L 1.171875 -11.65625 C 1.171875 -12.851562 1.4375 -13.910156 1.96875 -14.828125 C 2.507812 -15.742188 3.269531 -16.453125 4.25 -16.953125 C 5.226562 -17.453125 6.367188 -17.703125 7.671875 -17.703125 C 8.953125 -17.703125 10.082031 -17.460938 11.0625 -16.984375 C 12.039062 -16.515625 12.800781 -15.84375 13.34375 -14.96875 C 13.882812 -14.09375 14.15625 -13.078125 14.15625 -11.921875 C 14.15625 -11.773438 14.019531 -11.6875 13.75 -11.65625 L 11.078125 -11.46875 L 10.96875 -11.46875 C 10.738281 -11.46875 10.625 -11.507812 10.625 -11.59375 L 10.625 -11.75 C 10.625 -12.632812 10.351562 -13.34375 9.8125 -13.875 C 9.269531 -14.40625 8.554688 -14.671875 7.671875 -14.671875 C 6.773438 -14.671875 6.054688 -14.40625 5.515625 -13.875 C 4.972656 -13.34375 4.703125 -12.632812 4.703125 -11.75 L 4.703125 -5.71875 C 4.703125 -4.851562 4.972656 -4.15625 5.515625 -3.625 C 6.054688 -3.09375 6.773438 -2.828125 7.671875 -2.828125 C 8.554688 -2.828125 9.269531 -3.09375 9.8125 -3.625 C 10.351562 -4.15625 10.625 -4.851562 10.625 -5.71875 C 10.625 -5.800781 10.660156 -5.875 10.734375 -5.9375 C 10.804688 -6 10.910156 -6.019531 11.046875 -6 L 13.71875 -5.875 C 14.007812 -5.84375 14.15625 -5.800781 14.15625 -5.75 L 14.15625 -5.625 C 14.15625 -4.476562 13.882812 -3.460938 13.34375 -2.578125 C 12.800781 -1.691406 12.039062 -1.003906 11.0625 -0.515625 C 10.082031 -0.0351562 8.953125 0.203125 7.671875 0.203125 Z M 7.671875 0.203125 "/></g></g><g style="fill:#000000;fill-opacity:1;"><g transform="translate(186.34357, 361.874971)"><path style="stroke:none" d="M 11.21875 0 C 11.007812 0 10.84375 -0.109375 10.71875 -0.328125 L 7.65625 -7.125 C 7.613281 -7.207031 7.550781 -7.25 7.46875 -7.25 L 5.203125 -7.25 C 5.097656 -7.25 5.046875 -7.195312 5.046875 -7.09375 L 5.046875 -0.421875 C 5.046875 -0.140625 4.90625 0 4.625 0 L 1.953125 0 C 1.671875 0 1.53125 -0.140625 1.53125 -0.421875 L 1.53125 -17.09375 C 1.53125 -17.382812 1.671875 -17.53125 1.953125 -17.53125 L 8.96875 -17.53125 C 10.039062 -17.53125 10.976562 -17.304688 11.78125 -16.859375 C 12.59375 -16.421875 13.21875 -15.800781 13.65625 -15 C 14.101562 -14.195312 14.328125 -13.28125 14.328125 -12.25 C 14.328125 -11.113281 14.039062 -10.132812 13.46875 -9.3125 C 12.90625 -8.5 12.125 -7.925781 11.125 -7.59375 C 11.070312 -7.582031 11.035156 -7.554688 11.015625 -7.515625 C 11.003906 -7.472656 11.015625 -7.4375 11.046875 -7.40625 L 14.34375 -0.5 C 14.394531 -0.4375 14.421875 -0.363281 14.421875 -0.28125 C 14.421875 -0.195312 14.382812 -0.128906 14.3125 -0.078125 C 14.25 -0.0234375 14.160156 0 14.046875 0 Z M 5.203125 -14.46875 C 5.097656 -14.46875 5.046875 -14.421875 5.046875 -14.328125 L 5.046875 -10.125 C 5.046875 -10.019531 5.097656 -9.96875 5.203125 -9.96875 L 8.453125 -9.96875 C 9.148438 -9.96875 9.71875 -10.171875 10.15625 -10.578125 C 10.601562 -10.992188 10.828125 -11.535156 10.828125 -12.203125 C 10.828125 -12.867188 10.601562 -13.410156 10.15625 -13.828125 C 9.71875 -14.253906 9.148438 -14.46875 8.453125 -14.46875 Z M 5.203125 -14.46875 "/></g></g><g style="fill:#000000;fill-opacity:1;"><g transform="translate(203.516126, 361.874971)"><path style="stroke:none" d="M 1.953125 0 C 1.671875 0 1.53125 -0.140625 1.53125 -0.421875 L 1.53125 -17.078125 C 1.53125 -17.359375 1.671875 -17.5 1.953125 -17.5 L 4.625 -17.5 C 4.90625 -17.5 5.046875 -17.359375 5.046875 -17.078125 L 5.046875 -0.421875 C 5.046875 -0.140625 4.90625 0 4.625 0 Z M 1.953125 0 "/></g></g><g style="fill:#000000;fill-opacity:1;"><g transform="translate(211.91507, 361.874971)"><path style="stroke:none" d="M 7.671875 0.203125 C 6.367188 0.203125 5.226562 -0.0507812 4.25 -0.5625 C 3.269531 -1.070312 2.507812 -1.785156 1.96875 -2.703125 C 1.4375 -3.617188 1.171875 -4.675781 1.171875 -5.875 L 1.171875 -11.65625 C 1.171875 -12.851562 1.4375 -13.910156 1.96875 -14.828125 C 2.507812 -15.742188 3.269531 -16.453125 4.25 -16.953125 C 5.226562 -17.453125 6.367188 -17.703125 7.671875 -17.703125 C 8.953125 -17.703125 10.082031 -17.460938 11.0625 -16.984375 C 12.039062 -16.515625 12.800781 -15.84375 13.34375 -14.96875 C 13.882812 -14.09375 14.15625 -13.078125 14.15625 -11.921875 C 14.15625 -11.773438 14.019531 -11.6875 13.75 -11.65625 L 11.078125 -11.46875 L 10.96875 -11.46875 C 10.738281 -11.46875 10.625 -11.507812 10.625 -11.59375 L 10.625 -11.75 C 10.625 -12.632812 10.351562 -13.34375 9.8125 -13.875 C 9.269531 -14.40625 8.554688 -14.671875 7.671875 -14.671875 C 6.773438 -14.671875 6.054688 -14.40625 5.515625 -13.875 C 4.972656 -13.34375 4.703125 -12.632812 4.703125 -11.75 L 4.703125 -5.71875 C 4.703125 -4.851562 4.972656 -4.15625 5.515625 -3.625 C 6.054688 -3.09375 6.773438 -2.828125 7.671875 -2.828125 C 8.554688 -2.828125 9.269531 -3.09375 9.8125 -3.625 C 10.351562 -4.15625 10.625 -4.851562 10.625 -5.71875 C 10.625 -5.800781 10.660156 -5.875 10.734375 -5.9375 C 10.804688 -6 10.910156 -6.019531 11.046875 -6 L 13.71875 -5.875 C 14.007812 -5.84375 14.15625 -5.800781 14.15625 -5.75 L 14.15625 -5.625 C 14.15625 -4.476562 13.882812 -3.460938 13.34375 -2.578125 C 12.800781 -1.691406 12.039062 -1.003906 11.0625 -0.515625 C 10.082031 -0.0351562 8.953125 0.203125 7.671875 0.203125 Z M 7.671875 0.203125 "/></g></g><g style="fill:#000000;fill-opacity:1;"><g transform="translate(228.937652, 361.874971)"><path style="stroke:none" d="M 1.953125 0 C 1.671875 0 1.53125 -0.140625 1.53125 -0.421875 L 1.53125 -17.078125 C 1.53125 -17.359375 1.671875 -17.5 1.953125 -17.5 L 4.625 -17.5 C 4.90625 -17.5 5.046875 -17.359375 5.046875 -17.078125 L 5.046875 -10.25 C 5.046875 -10.1875 5.066406 -10.144531 5.109375 -10.125 C 5.148438 -10.101562 5.1875 -10.117188 5.21875 -10.171875 L 10.921875 -17.25 C 11.035156 -17.414062 11.210938 -17.5 11.453125 -17.5 L 14.46875 -17.5 C 14.59375 -17.5 14.6875 -17.476562 14.75 -17.4375 C 14.8125 -17.394531 14.84375 -17.332031 14.84375 -17.25 C 14.84375 -17.1875 14.800781 -17.09375 14.71875 -16.96875 L 9.28125 -10.03125 C 9.226562 -9.976562 9.226562 -9.910156 9.28125 -9.828125 L 15.046875 -0.5 C 15.097656 -0.4375 15.125 -0.363281 15.125 -0.28125 C 15.125 -0.09375 15.007812 0 14.78125 0 L 11.75 0 C 11.53125 0 11.363281 -0.09375 11.25 -0.28125 L 6.875 -7.375 C 6.851562 -7.425781 6.816406 -7.453125 6.765625 -7.453125 C 6.722656 -7.453125 6.6875 -7.425781 6.65625 -7.375 L 5.125 -5.421875 C 5.070312 -5.359375 5.046875 -5.300781 5.046875 -5.25 L 5.046875 -0.421875 C 5.046875 -0.140625 4.90625 0 4.625 0 Z M 1.953125 0 "/></g></g><g style="fill:#000000;fill-opacity:1;"><g transform="translate(246.410158, 361.874971)"><path style="stroke:none" d="M 13.671875 -14.90625 C 13.671875 -14.613281 13.53125 -14.46875 13.25 -14.46875 L 5.203125 -14.46875 C 5.097656 -14.46875 5.046875 -14.421875 5.046875 -14.328125 L 5.046875 -10.5 C 5.046875 -10.394531 5.097656 -10.34375 5.203125 -10.34375 L 10.421875 -10.34375 C 10.703125 -10.34375 10.84375 -10.203125 10.84375 -9.921875 L 10.84375 -7.75 C 10.84375 -7.46875 10.703125 -7.328125 10.421875 -7.328125 L 5.203125 -7.328125 C 5.097656 -7.328125 5.046875 -7.273438 5.046875 -7.171875 L 5.046875 -3.171875 C 5.046875 -3.078125 5.097656 -3.03125 5.203125 -3.03125 L 13.25 -3.03125 C 13.53125 -3.03125 13.671875 -2.882812 13.671875 -2.59375 L 13.671875 -0.421875 C 13.671875 -0.140625 13.53125 0 13.25 0 L 1.953125 0 C 1.671875 0 1.53125 -0.140625 1.53125 -0.421875 L 1.53125 -17.078125 C 1.53125 -17.359375 1.671875 -17.5 1.953125 -17.5 L 13.25 -17.5 C 13.53125 -17.5 13.671875 -17.359375 13.671875 -17.078125 Z M 13.671875 -14.90625 "/></g></g><g style="fill:#000000;fill-opacity:1;"><g transform="translate(262.832841, 361.874971)"><path style="stroke:none" d="M 13.46875 -17.5 C 13.757812 -17.5 13.90625 -17.359375 13.90625 -17.078125 L 13.90625 -14.875 C 13.90625 -14.59375 13.757812 -14.453125 13.46875 -14.453125 L 9.15625 -14.453125 C 9.050781 -14.453125 9 -14.398438 9 -14.296875 L 9 -0.421875 C 9 -0.140625 8.859375 0 8.578125 0 L 5.90625 0 C 5.613281 0 5.46875 -0.140625 5.46875 -0.421875 L 5.46875 -14.296875 C 5.46875 -14.398438 5.421875 -14.453125 5.328125 -14.453125 L 1.125 -14.453125 C 0.84375 -14.453125 0.703125 -14.59375 0.703125 -14.875 L 0.703125 -17.078125 C 0.703125 -17.359375 0.84375 -17.5 1.125 -17.5 Z M 13.46875 -17.5 "/></g></g></g></svg>