<svg xmlns="http://www.w3.org/2000/svg" xmlns:xlink="http://www.w3.org/1999/xlink" width="400" zoomAndPan="magnify" viewBox="0 0 300 383.999986" height="512" preserveAspectRatio="xMidYMid meet" version="1.2"><defs><clipPath id="0738083324"><path d="M 24 5.28125 L 256.8125 5.28125 L 256.8125 367 L 24 367 Z M 24 5.28125 "/></clipPath><clipPath id="c3ef22bed1"><path d="M 28 321 L 84 321 L 84 376.53125 L 28 376.53125 Z M 28 321 "/></clipPath></defs><g id="8fc0fac338"><g clip-rule="nonzero" clip-path="url(#0738083324)"><path style=" stroke:none;fill-rule:nonzero;fill:#ffbd59;fill-opacity:1;" d="M 161.460938 292.601562 C 161.492188 294.027344 161.777344 295.402344 162.320312 296.722656 C 163.558594 299.46875 164.132812 302.421875 165.199219 305.222656 C 166.234375 308.007812 167.707031 310.542969 169.613281 312.824219 C 171.335938 314.863281 172.488281 317.339844 174.128906 319.445312 C 175.578125 321.355469 176.84375 323.410156 178.386719 325.273438 C 179.925781 327.289062 180.785156 329.558594 180.964844 332.089844 C 181.117188 333.773438 181.207031 336.542969 178.707031 337.699219 C 178.515625 337.753906 178.375 337.871094 178.285156 338.046875 C 178.199219 338.226562 178.191406 338.410156 178.265625 338.59375 C 178.695312 339.910156 178.324219 341.257812 178.40625 342.582031 C 178.46875 343.671875 178.136719 344.085938 177.078125 343.957031 C 175.796875 343.746094 175.21875 343.996094 175.367188 345.539062 C 175.570312 347.578125 173.644531 348.605469 171.683594 347.792969 C 170.839844 347.449219 170.230469 348.164062 170.074219 348.886719 C 169.765625 350.253906 168.773438 350.210938 167.816406 350.050781 C 167.429688 349.957031 167.042969 349.9375 166.648438 349.992188 C 166.257812 350.046875 165.886719 350.171875 165.542969 350.371094 C 165.199219 350.566406 164.898438 350.816406 164.652344 351.125 C 164.402344 351.433594 164.21875 351.777344 164.101562 352.15625 C 163.976562 352.558594 163.761719 352.898438 163.453125 353.183594 C 163.144531 353.464844 162.789062 353.652344 162.378906 353.746094 C 161.972656 353.835938 161.566406 353.820312 161.167969 353.695312 C 160.769531 353.570312 160.429688 353.351562 160.144531 353.042969 C 159.730469 352.625 159.257812 352.285156 158.730469 352.023438 C 155.722656 350.554688 154.488281 348.417969 155.113281 345.011719 C 155.730469 341.003906 155.75 336.992188 155.164062 332.976562 C 154.351562 333.132812 154.84375 334.277344 154 334.347656 C 153.816406 334.175781 153.703125 333.96875 153.660156 333.722656 C 153.613281 333.480469 153.648438 333.246094 153.757812 333.023438 C 154.34375 331.253906 153.828125 329.335938 154.570312 327.589844 C 154.847656 326.9375 154.933594 326.085938 154.316406 325.664062 C 153.699219 325.246094 153.050781 325.945312 152.554688 326.417969 C 152.058594 326.890625 151.515625 327.507812 150.953125 327.996094 C 150.792969 328.160156 150.601562 328.246094 150.371094 328.257812 C 150.144531 328.265625 149.945312 328.199219 149.773438 328.050781 C 149.3125 327.644531 149.652344 327.238281 149.898438 326.914062 C 150.726562 325.914062 151.679688 325.058594 152.757812 324.339844 C 153.511719 323.824219 153.511719 323.402344 153.089844 322.640625 C 151.691406 320.195312 151.050781 317.511719 150.351562 314.796875 C 149.855469 312.871094 148.667969 311.132812 149.035156 309.003906 C 147.050781 307.890625 147.109375 305.53125 145.949219 303.90625 C 145.289062 302.964844 144.988281 301.738281 143.597656 301.496094 C 143.40625 301.449219 143.246094 301.347656 143.125 301.191406 C 143 301.035156 142.933594 300.859375 142.925781 300.664062 C 142.859375 298 140.671875 296.542969 139.40625 294.601562 C 135.796875 289.070312 131.496094 284.070312 127.371094 278.894531 C 124.152344 274.835938 121.542969 270.417969 119.542969 265.640625 C 118.046875 262.242188 115.957031 259.257812 113.269531 256.691406 C 109.289062 252.710938 104.640625 249.078125 102.542969 243.480469 C 102.1875 242.640625 101.746094 241.84375 101.226562 241.089844 C 98.128906 236.148438 97.820312 230.914062 99.632812 225.484375 C 100.445312 223.046875 101.390625 220.644531 102.355469 218.261719 C 102.6875 217.425781 102.769531 216.816406 101.984375 216.171875 C 100.347656 214.839844 99.878906 212.734375 98.75 211.046875 C 98.511719 210.601562 98.460938 210.136719 98.601562 209.648438 C 99.128906 207.933594 98.480469 206.566406 97.644531 205.136719 C 96.214844 202.714844 95.214844 200.125 94.636719 197.375 C 94.238281 195.417969 93.132812 193.679688 92.621094 191.800781 C 92.011719 189.445312 90.582031 187.785156 89.144531 186.015625 C 87.410156 183.863281 86.664062 181.15625 85.386719 178.75 C 84.78125 177.550781 84.007812 176.46875 83.070312 175.507812 C 79.933594 172.394531 77.847656 168.574219 76.097656 164.585938 C 73.097656 157.867188 70.605469 150.964844 68.621094 143.878906 C 68.3125 142.757812 68.019531 142.53125 66.964844 143.195312 C 64.261719 144.871094 61.390625 146.175781 58.351562 147.113281 C 57.171875 147.484375 56.039062 147.96875 54.960938 148.574219 C 52.585938 149.902344 50.085938 150.914062 47.457031 151.613281 C 44.828125 152.308594 42.15625 152.671875 39.433594 152.695312 C 37.761719 152.746094 36.136719 153.054688 34.5625 153.621094 C 31.363281 154.726562 29.101562 154.027344 27.085938 151.273438 C 24.121094 147.242188 23.585938 142.667969 24.640625 137.929688 C 25.714844 133.164062 26.34375 128.339844 26.535156 123.457031 C 26.753906 119.082031 27.652344 114.855469 29.226562 110.769531 C 30.683594 106.742188 31.800781 102.625 32.582031 98.417969 C 33.484375 93.820312 34.3125 89.164062 35.5 84.605469 C 36.441406 81.027344 38.335938 77.898438 40.40625 74.890625 C 42.082031 72.464844 43.941406 70.164062 45.753906 67.839844 C 46.667969 66.589844 47.859375 65.710938 49.324219 65.207031 C 49.875 65.011719 50.375 64.734375 50.832031 64.375 C 54.734375 61.316406 59.097656 59.226562 63.925781 58.101562 C 65.0625 57.835938 65.308594 57.46875 64.738281 56.398438 C 62.921875 52.734375 62.007812 48.855469 62 44.765625 C 61.925781 42.71875 60.640625 41.003906 60.40625 38.925781 C 60.332031 38.242188 59.832031 37.625 60.300781 36.882812 C 60.632812 36.339844 60.300781 35.851562 60.089844 35.375 C 59.007812 32.617188 58.132812 29.8125 58.40625 26.785156 C 58.40625 26.386719 58.40625 25.96875 58.066406 25.777344 C 56.628906 25.027344 57.222656 24.183594 57.953125 23.347656 C 58.527344 22.628906 58.894531 21.8125 59.050781 20.90625 C 59.421875 19.554688 60.148438 18.441406 61.234375 17.558594 C 62.460938 16.46875 63.867188 15.585938 64.105469 13.757812 C 64.144531 13.503906 64.257812 13.296875 64.453125 13.128906 C 64.648438 12.960938 64.875 12.878906 65.128906 12.878906 C 66.722656 12.878906 67.828125 11.78125 69.160156 11.179688 C 69.417969 11.078125 69.625 10.910156 69.785156 10.683594 C 69.945312 10.460938 70.03125 10.207031 70.042969 9.929688 C 70.042969 8.304688 71.175781 7.800781 72.457031 7.710938 C 75.3125 7.519531 78.070312 6.890625 80.730469 5.824219 C 81.035156 5.691406 81.347656 5.667969 81.667969 5.753906 C 82.980469 6.3125 84.28125 6.769531 85.722656 6.304688 C 86.355469 7.9375 88.378906 7.058594 89.335938 8.375 C 89.507812 8.644531 89.722656 8.882812 89.976562 9.082031 C 90.230469 9.28125 90.507812 9.4375 90.808594 9.546875 C 91.113281 9.660156 91.425781 9.71875 91.75 9.726562 C 92.074219 9.730469 92.386719 9.6875 92.695312 9.59375 C 93.652344 9.304688 94.132812 10.058594 94.5 10.757812 C 94.96875 11.683594 95.695312 12.304688 96.683594 12.625 C 98.351562 13.238281 99.046875 14.757812 99.171875 16.382812 C 99.210938 17.238281 99.394531 18.054688 99.722656 18.84375 C 100.421875 20.382812 100.722656 22 100.625 23.6875 C 100.503906 27.132812 101.632812 30.457031 101.46875 33.941406 C 101.46875 34.632812 102.015625 34.625 102.429688 34.8125 C 104.203125 35.617188 104.800781 36.585938 104.453125 38.503906 C 104.117188 40.511719 103.671875 42.496094 103.113281 44.457031 C 102.917969 45.308594 102.539062 46.074219 101.976562 46.746094 C 101.410156 47.414062 100.726562 47.921875 99.917969 48.261719 C 99.675781 48.320312 99.484375 48.449219 99.339844 48.648438 C 99.199219 48.851562 99.140625 49.074219 99.164062 49.320312 C 99.308594 51.40625 99.164062 53.503906 99.527344 55.582031 C 99.78125 57.007812 100.570312 57.589844 101.878906 57.234375 C 104.023438 56.664062 105.988281 56.632812 107.726562 58.273438 C 108.1875 58.574219 108.691406 58.664062 109.230469 58.542969 C 112.238281 58.355469 115.132812 58.542969 117.730469 60.289062 C 117.960938 60.480469 118.230469 60.589844 118.527344 60.617188 C 118.828125 60.648438 119.109375 60.59375 119.375 60.453125 C 122.175781 58.898438 124.941406 59.25 127.6875 60.597656 C 128.605469 61.167969 129.582031 61.308594 130.621094 61.019531 C 131.121094 60.882812 131.585938 60.964844 132.011719 61.257812 C 132.429688 61.542969 132.890625 61.675781 133.398438 61.648438 C 133.902344 61.625 134.347656 61.449219 134.734375 61.125 C 136.910156 59.355469 139.285156 60.070312 141.625 60.410156 C 142.351562 60.597656 143.089844 60.691406 143.835938 60.695312 C 148.890625 60.144531 154 60.433594 159.039062 59.566406 C 161.355469 59.167969 163.71875 59.019531 166.027344 58.542969 C 166.617188 58.402344 167.207031 58.417969 167.789062 58.59375 C 168.371094 58.773438 168.871094 59.082031 169.285156 59.527344 C 170 60.261719 170.816406 60.847656 171.734375 61.296875 C 172.65625 61.742188 173.621094 62.019531 174.640625 62.132812 C 178.136719 62.679688 181.492188 63.875 184.875 64.882812 C 187.726562 65.730469 190.175781 67.234375 192.21875 69.398438 C 197.851562 75.289062 203.757812 80.921875 209.089844 87.097656 C 210.78125 88.957031 212.605469 90.671875 214.566406 92.242188 C 217.617188 94.933594 220.4375 97.84375 223.035156 100.972656 C 223.589844 101.621094 223.214844 102.480469 223.589844 103.277344 C 224.988281 106.132812 227.300781 107.976562 230.03125 109.398438 C 230.640625 109.714844 231.347656 109.886719 231.496094 110.730469 C 231.917969 113.144531 234.0625 113.902344 235.84375 114.597656 C 237.445312 115.214844 238.566406 116.5 240.199219 117.035156 C 240.890625 117.257812 241.425781 117.710938 242.222656 117.453125 C 242.449219 117.359375 242.6875 117.308594 242.933594 117.300781 C 243.175781 117.292969 243.417969 117.328125 243.648438 117.410156 C 243.882812 117.492188 244.09375 117.609375 244.28125 117.769531 C 244.46875 117.925781 244.621094 118.113281 244.742188 118.328125 C 245.304688 119.238281 246.109375 119.796875 247.15625 120.003906 C 248.355469 120.355469 249.441406 120.925781 250.414062 121.710938 C 251.867188 122.808594 253.355469 123.855469 254.875 124.863281 C 255.398438 125.167969 255.789062 125.597656 256.039062 126.148438 C 256.292969 126.703125 256.363281 127.277344 256.25 127.871094 C 256.078125 129.097656 255.386719 129.558594 254.203125 129.160156 C 253.449219 128.847656 252.667969 128.644531 251.859375 128.550781 C 252.566406 129.167969 253.265625 129.796875 253.988281 130.398438 C 254.78125 131.035156 255.238281 131.855469 255.355469 132.867188 C 255.597656 134.949219 254.257812 136.140625 252.179688 135.640625 C 250.820312 135.222656 249.644531 134.503906 248.652344 133.484375 C 247.214844 132.070312 245.539062 131.039062 243.628906 130.390625 C 243.328125 130.300781 243.035156 130.105469 242.644531 130.390625 C 243.09375 131.492188 243.804688 132.382812 244.78125 133.0625 C 246.097656 134.167969 247.40625 135.273438 248.699219 136.394531 C 249.871094 137.410156 249.933594 138.523438 249.082031 139.800781 C 248.234375 141.082031 247.375 141.539062 245.96875 140.898438 C 245.5625 140.75 245.144531 140.632812 244.71875 140.546875 C 245.058594 141.894531 245.1875 143.066406 243.683594 143.789062 C 242.175781 144.511719 240.867188 144 239.644531 143.140625 C 238.695312 142.527344 237.800781 141.84375 236.957031 141.09375 C 234.210938 138.515625 230.796875 136.847656 227.929688 134.402344 C 227.824219 134.277344 227.695312 134.179688 227.542969 134.109375 C 227.394531 134.039062 227.234375 134.007812 227.070312 134.007812 C 226.90625 134.007812 226.746094 134.039062 226.597656 134.109375 C 226.445312 134.179688 226.316406 134.277344 226.207031 134.402344 C 226.085938 134.53125 225.992188 134.679688 225.929688 134.847656 C 225.867188 135.015625 225.84375 135.1875 225.855469 135.367188 C 225.867188 135.542969 225.917969 135.714844 226 135.871094 C 226.082031 136.03125 226.195312 136.164062 226.335938 136.273438 C 227.34375 137.3125 228.414062 138.289062 229.429688 139.320312 C 230.582031 140.390625 231.476562 141.644531 232.113281 143.082031 C 232.625 144.390625 232.566406 145.683594 231.453125 146.617188 C 230.339844 147.550781 229.398438 146.714844 228.523438 146.144531 C 224.765625 143.644531 221.191406 140.929688 218.988281 136.785156 C 218.113281 135.152344 217.609375 133.582031 218.136719 131.730469 C 218.46875 130.113281 218.371094 128.523438 217.835938 126.960938 C 217.589844 125.984375 217.152344 125.035156 217.402344 123.953125 C 217.535156 123.398438 217.078125 123.082031 216.785156 122.71875 C 214.042969 119.210938 211.609375 115.496094 209.488281 111.582031 C 207.929688 108.820312 205.441406 106.871094 202.9375 105.019531 C 202.296875 104.617188 201.828125 104.066406 201.539062 103.367188 C 201.429688 102.988281 201.210938 102.695312 200.882812 102.484375 C 198.625 101.644531 197.679688 99.320312 195.671875 98.027344 C 193.324219 96.519531 191.308594 94.265625 189.082031 92.4375 C 188.261719 91.753906 187.464844 90.660156 186.546875 90.535156 C 184.492188 90.242188 183.539062 89.097656 182.332031 87.523438 C 181.84375 86.832031 181.222656 86.289062 180.46875 85.898438 C 179.714844 85.507812 178.910156 85.3125 178.0625 85.3125 C 177.273438 85.3125 176.707031 85.480469 176.472656 86.292969 C 176.300781 86.875 175.976562 87.355469 175.5 87.734375 C 175.023438 88.113281 174.480469 88.320312 173.871094 88.351562 C 170.699219 88.855469 167.515625 89.820312 164.355469 89.75 C 160.738281 89.675781 157.25 90.324219 153.707031 90.503906 C 150.894531 90.640625 148.230469 90.765625 145.679688 92.070312 C 144.484375 92.660156 143.230469 92.835938 141.917969 92.59375 C 140.574219 92.363281 140.453125 92.859375 140.679688 94.046875 C 141.550781 98.742188 142.183594 103.472656 142.703125 108.21875 C 143.296875 113.625 143.070312 119.042969 142.980469 124.457031 C 142.933594 126.945312 143.621094 128.878906 145.824219 130.332031 C 147.898438 131.695312 148.554688 134.09375 149.425781 136.304688 C 149.742188 137.183594 150.320312 137.835938 151.15625 138.253906 C 155.464844 140.578125 157.609375 144.511719 158.949219 149.007812 C 158.949219 149.054688 158.949219 149.121094 158.949219 149.167969 C 161.136719 153.289062 163.078125 157.582031 166.523438 160.894531 C 166.980469 161.335938 167.351562 161.710938 167.273438 162.398438 C 167.0625 165.46875 167.519531 168.4375 168.644531 171.304688 C 168.78125 171.59375 168.84375 171.898438 168.832031 172.222656 C 167.824219 177.328125 167.980469 182.578125 166.816406 187.664062 C 166.28125 190.445312 165.335938 193.082031 163.972656 195.570312 C 162.410156 198.195312 160.964844 200.902344 159.460938 203.5625 C 158.933594 204.496094 158.519531 205.601562 157.738281 206.257812 C 155.609375 208.023438 156.097656 209.695312 157.066406 211.9375 C 158.972656 216.296875 160.6875 220.75 162.460938 225.175781 C 163.386719 227.484375 163.964844 229.90625 165.46875 231.988281 C 165.890625 232.636719 166.105469 233.347656 166.109375 234.117188 C 166.160156 236.386719 166.789062 238.480469 167.996094 240.398438 C 168.605469 241.382812 168.789062 242.460938 167.28125 242.964844 C 166.703125 243.160156 166.847656 243.582031 166.988281 244.015625 C 168.789062 249.574219 170.53125 255.15625 172.382812 260.699219 C 173.136719 262.957031 174.78125 264.746094 175.867188 266.84375 C 176.074219 267.25 176.527344 267.363281 176.878906 267.597656 C 179.972656 269.621094 183.589844 271.175781 186.085938 273.710938 C 190.449219 278.15625 195.414062 282.371094 197.460938 288.652344 C 198.289062 291.179688 200.144531 292.871094 202.019531 294.539062 C 203.179688 295.5 204.207031 296.589844 205.101562 297.804688 C 205.730469 298.820312 206.539062 299.664062 207.523438 300.339844 C 208.085938 300.703125 208.46875 301.207031 208.675781 301.84375 C 208.785156 302.324219 209.019531 302.738281 209.371094 303.085938 C 209.726562 303.429688 210.144531 303.648438 210.632812 303.746094 C 211.269531 303.867188 211.710938 304.222656 211.960938 304.824219 C 213.136719 307.734375 215.378906 309.816406 217.761719 311.59375 C 220.808594 313.847656 223.027344 317.128906 226.585938 318.761719 C 229.285156 320.078125 231.890625 321.558594 234.40625 323.199219 C 235.710938 324.019531 236.859375 325.015625 237.859375 326.183594 C 238.859375 327.351562 239.664062 328.644531 240.273438 330.058594 C 240.757812 330.972656 241.023438 331.949219 241.070312 332.984375 C 241.070312 334.488281 241.070312 335.957031 242.574219 336.886719 C 243.09375 337.195312 243.074219 337.78125 242.695312 338.308594 C 242.320312 338.835938 241.867188 339.347656 240.988281 339.144531 C 238.972656 338.691406 238.605469 339.0625 238.84375 341.175781 C 238.914062 341.753906 239.09375 342.328125 239.183594 342.90625 C 239.425781 344.46875 238.394531 345.34375 236.925781 344.867188 C 236.515625 344.703125 236.085938 344.621094 235.644531 344.613281 C 235.199219 344.609375 234.769531 344.679688 234.355469 344.832031 C 233.9375 344.984375 233.5625 345.207031 233.226562 345.5 C 232.894531 345.789062 232.621094 346.132812 232.414062 346.523438 C 231.601562 347.789062 230.992188 349.148438 230.59375 350.597656 C 230.191406 352.050781 230.015625 353.527344 230.066406 355.03125 C 230.226562 357.070312 230.191406 359.105469 229.960938 361.136719 C 229.632812 363.636719 229.210938 364.207031 226.699219 364.863281 C 222.8125 365.746094 218.875 366.167969 214.886719 366.132812 C 212.902344 366.261719 210.921875 366.203125 208.945312 365.960938 C 206.773438 365.605469 206.328125 364.757812 207.546875 362.90625 C 208.570312 361.355469 209.089844 359.265625 211.382812 358.875 C 212.046875 358.761719 211.871094 358.121094 211.847656 357.6875 C 211.699219 356.789062 211.886719 355.96875 212.414062 355.226562 C 213.617188 353.917969 213.398438 352.585938 212.886719 351.082031 C 211.945312 348.425781 211.503906 345.6875 211.5625 342.867188 C 211.5625 342.347656 211.941406 341.527344 210.660156 341.828125 C 209.960938 342.003906 209.652344 341.078125 209.839844 340.453125 C 210.019531 339.710938 210.378906 339.070312 210.925781 338.535156 C 212.121094 337.574219 211.886719 336.519531 211.429688 335.382812 C 211.15625 334.625 210.808594 333.90625 210.390625 333.21875 C 208.039062 329.824219 205.210938 326.890625 201.90625 324.417969 C 198.898438 322.109375 196.308594 319.273438 192.984375 317.332031 C 191.949219 316.667969 190.863281 316.109375 189.71875 315.652344 C 186.941406 314.695312 184.320312 313.414062 181.855469 311.8125 C 179.390625 310.207031 177.160156 308.328125 175.160156 306.175781 C 172.964844 303.921875 170.585938 301.886719 168.019531 300.070312 C 165.996094 298.527344 164.28125 296.695312 162.882812 294.570312 C 162.484375 294.007812 162.085938 293.457031 161.460938 292.601562 Z M 55.148438 109.40625 C 53.386719 110.632812 53.363281 110.625 53.199219 112.617188 C 53.160156 113.449219 52.878906 114.1875 52.355469 114.835938 C 51.921875 115.316406 51.601562 115.863281 51.402344 116.480469 C 51.199219 117.097656 51.136719 117.726562 51.207031 118.371094 C 51.226562 118.808594 51.132812 119.21875 50.929688 119.605469 C 49.800781 121.960938 49.625 124.585938 48.542969 127 C 49.542969 127.316406 50.558594 127.402344 51.597656 127.253906 C 53.898438 126.839844 56.207031 126.421875 58.480469 125.863281 C 60.75 125.308594 60.96875 124.917969 59.894531 122.726562 C 59.511719 121.84375 59.011719 121.035156 58.390625 120.296875 C 57.199219 118.984375 56.539062 117.441406 56.410156 115.671875 C 56.125 113.617188 56.042969 111.511719 55.148438 109.40625 Z M 55.148438 109.40625 "/></g><g clip-rule="nonzero" clip-path="url(#c3ef22bed1)"><path style=" stroke:none;fill-rule:nonzero;fill:#ffbd59;fill-opacity:1;" d="M 83.25 348.871094 C 83.246094 349.765625 83.203125 350.660156 83.113281 351.554688 C 83.023438 352.445312 82.890625 353.332031 82.710938 354.210938 C 82.535156 355.089844 82.316406 355.957031 82.054688 356.8125 C 81.792969 357.671875 81.488281 358.511719 81.144531 359.339844 C 80.800781 360.167969 80.414062 360.976562 79.992188 361.765625 C 79.566406 362.554688 79.105469 363.324219 78.605469 364.066406 C 78.105469 364.8125 77.570312 365.53125 77 366.222656 C 76.433594 366.914062 75.828125 367.578125 75.195312 368.210938 C 74.558594 368.84375 73.894531 369.441406 73.199219 370.007812 C 72.507812 370.578125 71.785156 371.109375 71.039062 371.605469 C 70.292969 372.101562 69.527344 372.5625 68.734375 372.984375 C 67.945312 373.40625 67.132812 373.785156 66.304688 374.128906 C 65.476562 374.46875 64.632812 374.769531 63.773438 375.03125 C 62.917969 375.289062 62.046875 375.503906 61.167969 375.679688 C 60.289062 375.851562 59.402344 375.980469 58.511719 376.070312 C 57.617188 376.15625 56.722656 376.199219 55.828125 376.195312 C 54.929688 376.195312 54.035156 376.152344 53.144531 376.0625 C 52.253906 375.972656 51.367188 375.839844 50.488281 375.664062 C 49.609375 375.488281 48.742188 375.269531 47.882812 375.007812 C 47.027344 374.746094 46.183594 374.445312 45.355469 374.101562 C 44.527344 373.757812 43.71875 373.375 42.929688 372.949219 C 42.136719 372.527344 41.371094 372.066406 40.625 371.566406 C 39.882812 371.070312 39.164062 370.535156 38.46875 369.964844 C 37.777344 369.394531 37.113281 368.792969 36.480469 368.160156 C 35.847656 367.523438 35.246094 366.863281 34.679688 366.167969 C 34.109375 365.476562 33.578125 364.753906 33.082031 364.007812 C 32.582031 363.265625 32.125 362.496094 31.699219 361.703125 C 31.277344 360.914062 30.898438 360.105469 30.554688 359.277344 C 30.210938 358.449219 29.910156 357.605469 29.652344 356.746094 C 29.390625 355.886719 29.171875 355.019531 29 354.140625 C 28.824219 353.261719 28.695312 352.375 28.605469 351.484375 C 28.519531 350.589844 28.476562 349.695312 28.476562 348.800781 C 28.476562 347.902344 28.519531 347.007812 28.609375 346.117188 C 28.695312 345.226562 28.828125 344.339844 29.003906 343.460938 C 29.179688 342.582031 29.394531 341.714844 29.65625 340.855469 C 29.917969 339.996094 30.21875 339.15625 30.5625 338.328125 C 30.90625 337.5 31.289062 336.6875 31.710938 335.898438 C 32.132812 335.109375 32.59375 334.339844 33.089844 333.59375 C 33.589844 332.847656 34.121094 332.128906 34.691406 331.4375 C 35.261719 330.742188 35.863281 330.082031 36.496094 329.445312 C 37.128906 328.8125 37.792969 328.210938 38.484375 327.640625 C 39.179688 327.074219 39.898438 326.539062 40.640625 326.042969 C 41.386719 325.542969 42.15625 325.082031 42.945312 324.660156 C 43.738281 324.238281 44.546875 323.855469 45.375 323.511719 C 46.203125 323.167969 47.042969 322.867188 47.902344 322.605469 C 48.761719 322.34375 49.628906 322.128906 50.507812 321.953125 C 51.386719 321.777344 52.273438 321.644531 53.164062 321.554688 C 54.058594 321.46875 54.949219 321.421875 55.847656 321.421875 C 56.746094 321.425781 57.640625 321.46875 58.535156 321.558594 C 59.429688 321.648438 60.316406 321.78125 61.195312 321.957031 C 62.078125 322.132812 62.949219 322.351562 63.804688 322.613281 C 64.664062 322.875 65.511719 323.175781 66.339844 323.523438 C 67.167969 323.867188 67.980469 324.25 68.769531 324.675781 C 69.5625 325.097656 70.332031 325.558594 71.078125 326.058594 C 71.824219 326.558594 72.542969 327.09375 73.238281 327.664062 C 73.933594 328.234375 74.597656 328.839844 75.230469 329.472656 C 75.863281 330.109375 76.46875 330.773438 77.035156 331.46875 C 77.605469 332.164062 78.140625 332.886719 78.636719 333.632812 C 79.136719 334.378906 79.597656 335.148438 80.019531 335.941406 C 80.441406 336.734375 80.824219 337.546875 81.167969 338.375 C 81.511719 339.203125 81.8125 340.050781 82.074219 340.910156 C 82.332031 341.769531 82.550781 342.640625 82.726562 343.519531 C 82.898438 344.402344 83.03125 345.289062 83.117188 346.183594 C 83.207031 347.078125 83.25 347.972656 83.25 348.871094 Z M 83.25 348.871094 "/></g><g style="fill:#000000;fill-opacity:1;"><g transform="translate(144.828246, 349.796339)"><path style="stroke:none" d="M 13.65625 -14.90625 C 13.65625 -14.613281 13.507812 -14.46875 13.21875 -14.46875 L 5.203125 -14.46875 C 5.097656 -14.46875 5.046875 -14.421875 5.046875 -14.328125 L 5.046875 -10.5 C 5.046875 -10.394531 5.097656 -10.34375 5.203125 -10.34375 L 10.421875 -10.34375 C 10.703125 -10.34375 10.84375 -10.203125 10.84375 -9.921875 L 10.84375 -7.75 C 10.84375 -7.46875 10.703125 -7.328125 10.421875 -7.328125 L 5.203125 -7.328125 C 5.097656 -7.328125 5.046875 -7.273438 5.046875 -7.171875 L 5.046875 -0.421875 C 5.046875 -0.140625 4.90625 0 4.625 0 L 1.953125 0 C 1.671875 0 1.53125 -0.140625 1.53125 -0.421875 L 1.53125 -17.078125 C 1.53125 -17.359375 1.671875 -17.5 1.953125 -17.5 L 13.21875 -17.5 C 13.507812 -17.5 13.65625 -17.359375 13.65625 -17.078125 Z M 13.65625 -14.90625 "/></g></g><g style="fill:#000000;fill-opacity:1;"><g transform="translate(160.651018, 349.796339)"><path style="stroke:none" d="M 7.75 0.28125 C 6.445312 0.28125 5.300781 0.015625 4.3125 -0.515625 C 3.320312 -1.054688 2.550781 -1.804688 2 -2.765625 C 1.445312 -3.722656 1.171875 -4.828125 1.171875 -6.078125 L 1.171875 -11.421875 C 1.171875 -12.660156 1.445312 -13.753906 2 -14.703125 C 2.550781 -15.648438 3.320312 -16.382812 4.3125 -16.90625 C 5.300781 -17.4375 6.445312 -17.703125 7.75 -17.703125 C 9.0625 -17.703125 10.210938 -17.4375 11.203125 -16.90625 C 12.203125 -16.382812 12.972656 -15.648438 13.515625 -14.703125 C 14.066406 -13.753906 14.34375 -12.660156 14.34375 -11.421875 L 14.34375 -6.078125 C 14.34375 -4.828125 14.066406 -3.71875 13.515625 -2.75 C 12.972656 -1.78125 12.203125 -1.03125 11.203125 -0.5 C 10.210938 0.0195312 9.0625 0.28125 7.75 0.28125 Z M 7.75 -2.75 C 8.664062 -2.75 9.40625 -3.039062 9.96875 -3.625 C 10.539062 -4.207031 10.828125 -4.984375 10.828125 -5.953125 L 10.828125 -11.453125 C 10.828125 -12.421875 10.546875 -13.195312 9.984375 -13.78125 C 9.429688 -14.375 8.6875 -14.671875 7.75 -14.671875 C 6.832031 -14.671875 6.09375 -14.375 5.53125 -13.78125 C 4.976562 -13.195312 4.703125 -12.421875 4.703125 -11.453125 L 4.703125 -5.953125 C 4.703125 -4.984375 4.976562 -4.207031 5.53125 -3.625 C 6.09375 -3.039062 6.832031 -2.75 7.75 -2.75 Z M 7.75 -2.75 "/></g></g><g style="fill:#000000;fill-opacity:1;"><g transform="translate(177.998543, 349.796339)"><path style="stroke:none" d="M 7.75 0.28125 C 6.445312 0.28125 5.300781 0.015625 4.3125 -0.515625 C 3.320312 -1.054688 2.550781 -1.804688 2 -2.765625 C 1.445312 -3.722656 1.171875 -4.828125 1.171875 -6.078125 L 1.171875 -11.421875 C 1.171875 -12.660156 1.445312 -13.753906 2 -14.703125 C 2.550781 -15.648438 3.320312 -16.382812 4.3125 -16.90625 C 5.300781 -17.4375 6.445312 -17.703125 7.75 -17.703125 C 9.0625 -17.703125 10.210938 -17.4375 11.203125 -16.90625 C 12.203125 -16.382812 12.972656 -15.648438 13.515625 -14.703125 C 14.066406 -13.753906 14.34375 -12.660156 14.34375 -11.421875 L 14.34375 -6.078125 C 14.34375 -4.828125 14.066406 -3.71875 13.515625 -2.75 C 12.972656 -1.78125 12.203125 -1.03125 11.203125 -0.5 C 10.210938 0.0195312 9.0625 0.28125 7.75 0.28125 Z M 7.75 -2.75 C 8.664062 -2.75 9.40625 -3.039062 9.96875 -3.625 C 10.539062 -4.207031 10.828125 -4.984375 10.828125 -5.953125 L 10.828125 -11.453125 C 10.828125 -12.421875 10.546875 -13.195312 9.984375 -13.78125 C 9.429688 -14.375 8.6875 -14.671875 7.75 -14.671875 C 6.832031 -14.671875 6.09375 -14.375 5.53125 -13.78125 C 4.976562 -13.195312 4.703125 -12.421875 4.703125 -11.453125 L 4.703125 -5.953125 C 4.703125 -4.984375 4.976562 -4.207031 5.53125 -3.625 C 6.09375 -3.039062 6.832031 -2.75 7.75 -2.75 Z M 7.75 -2.75 "/></g></g><g style="fill:#000000;fill-opacity:1;"><g transform="translate(195.346068, 349.796339)"><path style="stroke:none" d="M 13.46875 -17.5 C 13.757812 -17.5 13.90625 -17.359375 13.90625 -17.078125 L 13.90625 -14.875 C 13.90625 -14.59375 13.757812 -14.453125 13.46875 -14.453125 L 9.15625 -14.453125 C 9.050781 -14.453125 9 -14.398438 9 -14.296875 L 9 -0.421875 C 9 -0.140625 8.859375 0 8.578125 0 L 5.90625 0 C 5.613281 0 5.46875 -0.140625 5.46875 -0.421875 L 5.46875 -14.296875 C 5.46875 -14.398438 5.421875 -14.453125 5.328125 -14.453125 L 1.125 -14.453125 C 0.84375 -14.453125 0.703125 -14.59375 0.703125 -14.875 L 0.703125 -17.078125 C 0.703125 -17.359375 0.84375 -17.5 1.125 -17.5 Z M 13.46875 -17.5 "/></g></g><g style="fill:#000000;fill-opacity:1;"><g transform="translate(211.793744, 349.796339)"><path style="stroke:none" d="M 11.921875 -9.15625 C 11.867188 -9.132812 11.84375 -9.101562 11.84375 -9.0625 C 11.84375 -9.019531 11.867188 -8.984375 11.921875 -8.953125 C 13.492188 -8.171875 14.28125 -6.820312 14.28125 -4.90625 C 14.28125 -3.28125 13.726562 -2.054688 12.625 -1.234375 C 11.519531 -0.410156 10.078125 0 8.296875 0 L 1.953125 0 C 1.671875 0 1.53125 -0.140625 1.53125 -0.421875 L 1.53125 -17.078125 C 1.53125 -17.359375 1.671875 -17.5 1.953125 -17.5 L 8.09375 -17.5 C 12.050781 -17.5 14.03125 -15.898438 14.03125 -12.703125 C 14.03125 -11.015625 13.328125 -9.832031 11.921875 -9.15625 Z M 5.203125 -14.46875 C 5.097656 -14.46875 5.046875 -14.421875 5.046875 -14.328125 L 5.046875 -10.46875 C 5.046875 -10.375 5.097656 -10.328125 5.203125 -10.328125 L 8.09375 -10.328125 C 8.882812 -10.328125 9.492188 -10.507812 9.921875 -10.875 C 10.359375 -11.238281 10.578125 -11.738281 10.578125 -12.375 C 10.578125 -13.019531 10.359375 -13.53125 9.921875 -13.90625 C 9.492188 -14.28125 8.882812 -14.46875 8.09375 -14.46875 Z M 8.296875 -3.046875 C 9.066406 -3.046875 9.664062 -3.238281 10.09375 -3.625 C 10.53125 -4.019531 10.75 -4.5625 10.75 -5.25 C 10.75 -5.9375 10.53125 -6.472656 10.09375 -6.859375 C 9.664062 -7.253906 9.0625 -7.453125 8.28125 -7.453125 L 5.203125 -7.453125 C 5.097656 -7.453125 5.046875 -7.398438 5.046875 -7.296875 L 5.046875 -3.203125 C 5.046875 -3.097656 5.097656 -3.046875 5.203125 -3.046875 Z M 8.296875 -3.046875 "/></g></g><g style="fill:#000000;fill-opacity:1;"><g transform="translate(229.116275, 349.796339)"><path style="stroke:none" d="M 12.78125 0 C 12.539062 0 12.378906 -0.113281 12.296875 -0.34375 L 11.59375 -2.671875 C 11.582031 -2.753906 11.535156 -2.796875 11.453125 -2.796875 L 5.328125 -2.796875 C 5.242188 -2.796875 5.191406 -2.753906 5.171875 -2.671875 L 4.46875 -0.34375 C 4.382812 -0.113281 4.226562 0 4 0 L 1.09375 0 C 0.945312 0 0.835938 -0.046875 0.765625 -0.140625 C 0.703125 -0.234375 0.695312 -0.34375 0.75 -0.46875 L 6.078125 -17.15625 C 6.160156 -17.382812 6.316406 -17.5 6.546875 -17.5 L 10.21875 -17.5 C 10.457031 -17.5 10.617188 -17.382812 10.703125 -17.15625 L 16.03125 -0.46875 C 16.039062 -0.4375 16.046875 -0.390625 16.046875 -0.328125 C 16.046875 -0.222656 16.007812 -0.140625 15.9375 -0.078125 C 15.875 -0.0234375 15.785156 0 15.671875 0 Z M 6.046875 -5.703125 C 6.035156 -5.585938 6.078125 -5.53125 6.171875 -5.53125 L 10.59375 -5.53125 C 10.695312 -5.53125 10.738281 -5.585938 10.71875 -5.703125 L 8.46875 -13.328125 C 8.457031 -13.390625 8.429688 -13.421875 8.390625 -13.421875 C 8.347656 -13.421875 8.3125 -13.390625 8.28125 -13.328125 Z M 6.046875 -5.703125 "/></g></g><g style="fill:#000000;fill-opacity:1;"><g transform="translate(247.71361, 349.796339)"><path style="stroke:none" d="M 1.953125 0 C 1.671875 0 1.53125 -0.140625 1.53125 -0.421875 L 1.53125 -17.078125 C 1.53125 -17.359375 1.671875 -17.5 1.953125 -17.5 L 4.625 -17.5 C 4.90625 -17.5 5.046875 -17.359375 5.046875 -17.078125 L 5.046875 -3.171875 C 5.046875 -3.078125 5.097656 -3.03125 5.203125 -3.03125 L 13.21875 -3.03125 C 13.507812 -3.03125 13.65625 -2.882812 13.65625 -2.59375 L 13.65625 -0.421875 C 13.65625 -0.140625 13.507812 0 13.21875 0 Z M 1.953125 0 "/></g></g><g style="fill:#000000;fill-opacity:1;"><g transform="translate(263.836332, 349.796339)"><path style="stroke:none" d="M 1.953125 0 C 1.671875 0 1.53125 -0.140625 1.53125 -0.421875 L 1.53125 -17.078125 C 1.53125 -17.359375 1.671875 -17.5 1.953125 -17.5 L 4.625 -17.5 C 4.90625 -17.5 5.046875 -17.359375 5.046875 -17.078125 L 5.046875 -3.171875 C 5.046875 -3.078125 5.097656 -3.03125 5.203125 -3.03125 L 13.21875 -3.03125 C 13.507812 -3.03125 13.65625 -2.882812 13.65625 -2.59375 L 13.65625 -0.421875 C 13.65625 -0.140625 13.507812 0 13.21875 0 Z M 1.953125 0 "/></g></g><g style="fill:#000000;fill-opacity:1;"><g transform="translate(279.96886, 349.796339)"><path style="stroke:none" d=""/></g></g></g></svg>