<svg xmlns="http://www.w3.org/2000/svg" xmlns:xlink="http://www.w3.org/1999/xlink" width="400" zoomAndPan="magnify" viewBox="0 0 300 383.999986" height="512" preserveAspectRatio="xMidYMid meet" version="1.2"><defs><clipPath id="921f6d9abe"><path d="M 6.144531 4 L 293 4 L 293 379.703125 L 6.144531 379.703125 Z M 6.144531 4 "/></clipPath></defs><g id="3c50a45115"><g clip-rule="nonzero" clip-path="url(#921f6d9abe)"><path style=" stroke:none;fill-rule:evenodd;fill:#06b3d2;fill-opacity:1;" d="M 106.179688 4.003906 C 96.777344 4.359375 93.8125 10.324219 90.984375 16.601562 C 87.484375 24.367188 85.542969 33.421875 88.027344 42.613281 C 87.160156 44.746094 86.304688 47.578125 85.597656 50.328125 C 71.640625 52.789062 63.394531 74.613281 58.082031 90.175781 C 46.972656 121.171875 40.492188 189.503906 68.253906 218.296875 C 69.398438 218.933594 70.378906 219.484375 71.382812 220.050781 C 71.511719 220.679688 71.632812 221.257812 71.703125 221.730469 C 72.410156 226.3125 83.347656 255.195312 88.992188 261.886719 C 89.34375 262.300781 89.671875 262.675781 89.996094 263.027344 C 89.554688 265.277344 88.957031 267.207031 88.148438 268.351562 C 84.863281 273.019531 80.199219 273.199219 73.625 278.214844 C 67.050781 283.234375 58.054688 293.777344 56.496094 296.71875 C 55.746094 298.136719 52.050781 302.878906 48.425781 307.410156 C 48.410156 307.386719 48.300781 307.164062 48.300781 307.160156 C 48.054688 307.761719 39.035156 315.464844 36.449219 317.246094 C 36.324219 317.332031 36.199219 317.410156 36.066406 317.484375 C 35.976562 313.324219 32.597656 313.316406 32.597656 313.316406 C 32.773438 313.664062 26.886719 311.429688 23.765625 308.667969 C 20.648438 305.910156 15.449219 310.222656 13.898438 316.617188 C 12.347656 323.011719 9.945312 346.691406 8.054688 358.441406 C 6.160156 370.191406 6.171875 379.695312 13.265625 379.171875 C 20.363281 378.644531 16.210938 377.261719 19.84375 370.691406 C 23.472656 364.121094 29.519531 355.484375 37.476562 348.914062 C 45.433594 342.339844 43.351562 342.503906 43.867188 338.359375 C 43.914062 337.957031 43.9375 337.566406 43.902344 337.171875 C 44.089844 337.074219 44.257812 336.976562 44.398438 336.886719 C 46.464844 335.574219 60.496094 323.976562 57.960938 323.414062 C 68.335938 314.113281 82.683594 302.199219 97.179688 294.949219 C 121.054688 283.007812 113.605469 281.980469 116.71875 276.964844 C 117.359375 275.9375 118.03125 273.605469 118.699219 270.578125 C 121.527344 269.328125 123.605469 267.859375 124.039062 267.289062 C 125.097656 265.882812 123.941406 256.25 124.644531 249.207031 C 124.734375 248.289062 124.667969 246.917969 124.484375 245.238281 C 135.664062 251.074219 152.308594 260.109375 152.308594 260.109375 C 152.867188 259 153.402344 257.925781 153.933594 256.871094 C 155.257812 257.550781 156.9375 258.421875 157.449219 258.675781 C 157.507812 258.703125 157.574219 258.722656 157.632812 258.75 C 159.136719 260.148438 160.167969 261.777344 159.863281 263.507812 C 159.757812 264.097656 160.003906 264.472656 160.519531 264.695312 C 160.511719 265 160.511719 265.304688 160.496094 265.644531 C 160.191406 272.3125 154.726562 282.914062 161.707031 300.796875 C 167.964844 316.816406 173.207031 336.84375 174.238281 340.867188 L 174.523438 351.050781 C 172.382812 350.726562 171.566406 351.730469 171.566406 351.730469 L 170.589844 355.304688 C 169.660156 355.117188 168.839844 357.246094 167.914062 359.652344 C 166.988281 362.0625 166.921875 365.441406 166.921875 369.332031 C 166.921875 373.222656 161.535156 375.636719 176.382812 377.117188 C 191.230469 378.601562 227.617188 377.859375 233.929688 375.265625 C 240.238281 372.671875 240.230469 370.070312 235.773438 367.292969 C 231.324219 364.511719 214.433594 360.074219 211.09375 357.847656 C 207.753906 355.625 205.902344 353.769531 202.746094 350.433594 C 199.890625 347.417969 198.695312 344.253906 195.886719 346.144531 C 194.339844 341.183594 192.359375 334.933594 192.359375 334.933594 L 191.828125 335.09375 C 191.136719 328.5625 186.371094 282.8125 187.21875 273.222656 C 188.128906 262.917969 190.855469 249.273438 188.121094 243.210938 C 187.046875 240.832031 186.257812 238.878906 185.359375 237.121094 C 184.753906 235.203125 184.046875 233.59375 183.21875 232.472656 C 183.53125 232.445312 183.839844 232.417969 184.15625 232.398438 C 181.132812 220.265625 154.796875 212.835938 149.636719 210.410156 C 144.46875 207.984375 123.605469 189.03125 119.964844 186.605469 C 118.503906 185.632812 116.453125 183.730469 114.019531 181.75 C 114.582031 181.101562 114.898438 180.441406 114.921875 179.792969 C 115.089844 175.722656 112.445312 165.425781 110.773438 155.136719 C 111.074219 155.355469 111.378906 155.566406 111.679688 155.78125 C 111.679688 155.78125 112.367188 153.144531 113.425781 149.464844 C 115.976562 151.132812 118.140625 152.589844 118.734375 153.222656 C 120.390625 154.980469 128.738281 165.265625 131.429688 166.71875 C 134.121094 168.167969 154.289062 182.804688 161.980469 188.398438 C 169.671875 193.992188 186.054688 206.011719 188.332031 206.085938 C 190.609375 206.15625 202.261719 216.203125 204.121094 218.652344 C 205.980469 221.105469 206.292969 225.894531 210.4375 224.660156 C 214.582031 223.425781 219.011719 220.601562 220.875 219.296875 C 222.742188 217.988281 227.4375 213.585938 227.4375 213.585938 L 231.28125 207.566406 C 231.28125 207.566406 231.046875 207.335938 230.980469 207.269531 C 233.316406 205.949219 235.316406 204.992188 236.542969 204.796875 C 241.867188 203.960938 245.730469 207.601562 250.796875 209.621094 C 255.859375 211.636719 263.5 207.875 263.5 207.875 C 263.5 207.875 279.527344 196.9375 286.832031 190.277344 C 294.132812 183.613281 292.421875 174.273438 291.660156 172.390625 C 290.902344 170.507812 287.941406 163.421875 280.34375 153.308594 C 272.742188 143.191406 261.695312 147.746094 261.695312 147.746094 C 261.695312 147.746094 240.648438 162.273438 237.136719 165.113281 C 233.625 167.949219 229.351562 174.191406 230.078125 180.289062 C 230.804688 186.386719 230.132812 189.476562 229.089844 192.945312 C 228.042969 196.414062 223.960938 199.359375 223.960938 199.359375 C 223.957031 199.328125 222.949219 199.941406 221.53125 200.832031 C 219.042969 200.777344 218.96875 203.351562 205.375 197.628906 C 190.742188 191.472656 185.253906 188.222656 177.980469 180.25 C 170.707031 172.28125 154.449219 153.109375 147.925781 150.167969 C 141.40625 147.230469 135.300781 134.402344 124.023438 126.871094 C 123.546875 126.550781 123.066406 126.273438 122.589844 126.054688 C 122.910156 125.742188 123.214844 125.550781 123.503906 125.5 C 123.675781 125.46875 123.816406 125.417969 123.925781 125.335938 C 129.46875 128.121094 141.589844 133.53125 145.164062 134.449219 C 149.507812 135.5625 167.390625 137.585938 173.003906 142.109375 C 178.617188 146.632812 187.167969 150.132812 187.167969 150.132812 C 187.167969 150.132812 194.265625 157.320312 195.527344 157.300781 C 196.789062 157.277344 194.726562 154.542969 193.386719 152.949219 C 192.046875 151.359375 190.027344 148.957031 190.027344 148.957031 L 198.746094 155.878906 C 198.96875 156.636719 201.460938 156.742188 201.0625 155.691406 C 200.804688 155.003906 196.78125 150.417969 195.9375 149.648438 C 195.089844 148.878906 193.125 146.84375 193.125 146.84375 C 193.125 146.84375 198.910156 148.984375 201.273438 151.316406 C 203.640625 153.648438 206.464844 153.867188 206.808594 153.148438 C 207.46875 151.769531 202.367188 148.980469 201.449219 147.871094 C 200.527344 146.761719 194.710938 143.273438 194.710938 143.273438 L 194.660156 141.835938 L 205.3125 144.902344 C 208.226562 145.664062 209.933594 145.511719 209.050781 143.394531 C 209.050781 143.394531 198.316406 139.683594 196.269531 138.203125 C 194.222656 136.722656 193.117188 135.46875 192.121094 134.90625 C 191.125 134.339844 186.089844 130.3125 185.003906 130.304688 C 183.914062 130.296875 179.726562 132.417969 177.496094 132.050781 C 175.269531 131.683594 166.199219 126.75 160.398438 124.421875 C 154.59375 122.097656 143.003906 114.199219 139.601562 113.300781 C 137.449219 112.726562 134.648438 111.828125 132.546875 110.789062 C 133.636719 109.460938 134.304688 108.390625 134.304688 108.390625 C 134.304688 108.390625 125.949219 92.988281 122.800781 82.84375 C 120.347656 74.949219 115.636719 69.394531 112.101562 67.160156 C 118.515625 63.476562 124.59375 53.195312 127.445312 44.988281 C 128.367188 44.515625 128.46875 38.445312 130.917969 40.304688 C 153.984375 57.835938 153.375 41.648438 133.171875 32.546875 C 131.910156 31.976562 133.789062 29.820312 133.996094 28.429688 C 134.820312 22.839844 134.421875 17.113281 131.308594 13.46875 C 125.019531 7.261719 114.71875 3.949219 106.179688 4.003906 Z M 48.300781 307.160156 C 48.3125 307.128906 48.3125 307.117188 48.277344 307.125 C 48.277344 307.125 48.300781 307.160156 48.300781 307.160156 Z M 48.300781 307.160156 "/></g><path style=" stroke:none;fill-rule:nonzero;fill:#ffcc00;fill-opacity:1;" d="M 247.546875 99.246094 C 255.625 111.792969 275.109375 105.855469 275.027344 88.804688 C 273.65625 80.574219 265.847656 75.003906 257.601562 76.375 C 249.351562 77.742188 243.773438 85.539062 245.144531 93.769531 C 245.734375 95.882812 246.558594 97.703125 247.546875 99.246094 Z M 250.398438 100.445312 C 250.171875 100.128906 250.082031 99.839844 250.195312 99.699219 C 250.378906 99.46875 251.003906 99.691406 251.589844 100.199219 C 252.175781 100.707031 252.507812 101.3125 252.324219 101.539062 C 252.15625 101.753906 251.597656 101.574219 251.046875 101.132812 C 251.011719 101.101562 250.976562 101.0625 250.941406 101.03125 C 250.722656 100.84375 250.53125 100.636719 250.398438 100.445312 Z M 248.234375 93.5625 C 248.070312 93.332031 247.929688 92.96875 247.851562 92.539062 C 247.714844 91.777344 247.828125 91.105469 248.113281 91.042969 C 248.398438 90.976562 248.75 91.535156 248.886719 92.300781 C 249.027344 93.0625 248.902344 93.738281 248.613281 93.800781 C 248.546875 93.820312 248.476562 93.796875 248.398438 93.742188 C 248.34375 93.699219 248.289062 93.636719 248.234375 93.5625 Z M 248.371094 85.527344 C 248.246094 85.289062 248.324219 84.742188 248.597656 84.167969 C 248.933594 83.46875 249.429688 82.996094 249.699219 83.109375 C 249.972656 83.222656 249.917969 83.878906 249.582031 84.578125 C 249.246094 85.277344 248.75 85.75 248.484375 85.636719 C 248.464844 85.632812 248.457031 85.628906 248.441406 85.617188 C 248.414062 85.597656 248.390625 85.5625 248.371094 85.527344 Z M 257.425781 99.355469 C 257.390625 99.304688 257.371094 99.253906 257.34375 99.199219 C 257.011719 98.507812 257.421875 97.898438 258.269531 97.847656 C 259.121094 97.796875 260.082031 98.324219 260.417969 99.015625 C 260.753906 99.707031 260.339844 100.304688 259.488281 100.355469 C 258.902344 100.390625 258.265625 100.160156 257.816406 99.785156 C 257.660156 99.65625 257.523438 99.511719 257.425781 99.355469 Z M 261.675781 104.105469 C 261.660156 104.074219 261.648438 104.054688 261.640625 104.023438 C 261.605469 103.730469 262.199219 103.4375 262.976562 103.367188 C 263.75 103.300781 264.40625 103.488281 264.445312 103.777344 C 264.484375 104.070312 263.878906 104.355469 263.105469 104.421875 C 262.503906 104.472656 261.980469 104.371094 261.757812 104.1875 C 261.726562 104.164062 261.695312 104.132812 261.675781 104.105469 Z M 254.476562 91.121094 C 254.152344 90.53125 254.1875 89.804688 254.617188 89.28125 C 255.195312 88.582031 256.257812 88.511719 257 89.117188 C 257.738281 89.722656 257.867188 90.789062 257.292969 91.488281 C 256.71875 92.183594 255.65625 92.257812 254.914062 91.652344 C 254.730469 91.5 254.582031 91.316406 254.476562 91.121094 Z M 256.148438 82.871094 C 255.832031 82.476562 255.945312 81.917969 256.472656 81.496094 C 257.136719 80.964844 258.214844 80.835938 258.890625 81.207031 C 259.566406 81.578125 259.570312 82.3125 258.910156 82.84375 C 258.242188 83.375 257.164062 83.507812 256.488281 83.136719 C 256.425781 83.101562 256.367188 83.0625 256.3125 83.019531 C 256.25 82.972656 256.195312 82.925781 256.148438 82.871094 Z M 265.917969 97.417969 C 265.769531 97.164062 265.75 96.804688 265.898438 96.410156 C 266.203125 95.617188 267.070312 94.960938 267.839844 94.933594 C 268.613281 94.910156 268.988281 95.546875 268.691406 96.339844 C 268.386719 97.136719 267.519531 97.792969 266.75 97.816406 C 266.484375 97.824219 266.265625 97.753906 266.105469 97.628906 C 266.027344 97.570312 265.964844 97.5 265.917969 97.417969 Z M 263.609375 88.632812 C 263.164062 87.929688 263.144531 87.015625 263.609375 86.453125 C 264.136719 85.8125 265.09375 85.878906 265.746094 86.597656 C 266.394531 87.3125 266.488281 88.414062 265.960938 89.058594 C 265.480469 89.640625 264.660156 89.640625 264.023438 89.101562 C 263.960938 89.046875 263.882812 88.980469 263.824219 88.914062 C 263.742188 88.824219 263.671875 88.730469 263.609375 88.632812 Z M 263.679688 79.167969 C 263.597656 79.035156 263.574219 78.910156 263.617188 78.820312 C 263.742188 78.554688 264.402344 78.636719 265.09375 78.992188 C 265.785156 79.351562 266.246094 79.847656 266.125 80.113281 C 266 80.378906 265.332031 80.3125 264.644531 79.957031 C 264.429688 79.847656 264.242188 79.71875 264.078125 79.585938 C 263.90625 79.445312 263.761719 79.296875 263.679688 79.167969 Z M 271.820312 90.160156 C 271.660156 89.945312 271.519531 89.628906 271.441406 89.265625 C 271.28125 88.496094 271.453125 87.777344 271.820312 87.671875 C 272.1875 87.5625 272.609375 88.109375 272.773438 88.878906 C 272.933594 89.652344 272.773438 90.363281 272.402344 90.46875 C 272.265625 90.511719 272.113281 90.464844 271.976562 90.34375 C 271.917969 90.296875 271.871094 90.234375 271.820312 90.160156 Z M 271.820312 90.160156 "/><g style="fill:#000000;fill-opacity:1;"><g transform="translate(121.577816, 363.374971)"><path style="stroke:none" d="M 8.75 -17.53125 C 9.851562 -17.53125 10.820312 -17.300781 11.65625 -16.84375 C 12.488281 -16.394531 13.132812 -15.757812 13.59375 -14.9375 C 14.050781 -14.113281 14.28125 -13.164062 14.28125 -12.09375 C 14.28125 -11.050781 14.039062 -10.128906 13.5625 -9.328125 C 13.082031 -8.523438 12.414062 -7.898438 11.5625 -7.453125 C 10.707031 -7.015625 9.71875 -6.796875 8.59375 -6.796875 L 5.078125 -6.796875 C 4.972656 -6.796875 4.921875 -6.75 4.921875 -6.65625 L 4.921875 -0.421875 C 4.921875 -0.140625 4.78125 0 4.5 0 L 1.828125 0 C 1.546875 0 1.40625 -0.140625 1.40625 -0.421875 L 1.40625 -17.09375 C 1.40625 -17.382812 1.546875 -17.53125 1.828125 -17.53125 Z M 8.21875 -9.625 C 8.988281 -9.625 9.609375 -9.84375 10.078125 -10.28125 C 10.546875 -10.726562 10.78125 -11.3125 10.78125 -12.03125 C 10.78125 -12.757812 10.546875 -13.347656 10.078125 -13.796875 C 9.609375 -14.242188 8.988281 -14.46875 8.21875 -14.46875 L 5.078125 -14.46875 C 4.972656 -14.46875 4.921875 -14.421875 4.921875 -14.328125 L 4.921875 -9.78125 C 4.921875 -9.675781 4.972656 -9.625 5.078125 -9.625 Z M 8.21875 -9.625 "/></g></g><g style="fill:#000000;fill-opacity:1;"><g transform="translate(138.325442, 363.374971)"><path style="stroke:none" d="M 1.953125 0 C 1.671875 0 1.53125 -0.140625 1.53125 -0.421875 L 1.53125 -17.078125 C 1.53125 -17.359375 1.671875 -17.5 1.953125 -17.5 L 4.625 -17.5 C 4.90625 -17.5 5.046875 -17.359375 5.046875 -17.078125 L 5.046875 -0.421875 C 5.046875 -0.140625 4.90625 0 4.625 0 Z M 1.953125 0 "/></g></g><g style="fill:#000000;fill-opacity:1;"><g transform="translate(146.724386, 363.374971)"><path style="stroke:none" d="M 7.671875 0.203125 C 6.367188 0.203125 5.226562 -0.0507812 4.25 -0.5625 C 3.269531 -1.070312 2.507812 -1.785156 1.96875 -2.703125 C 1.4375 -3.617188 1.171875 -4.675781 1.171875 -5.875 L 1.171875 -11.65625 C 1.171875 -12.851562 1.4375 -13.910156 1.96875 -14.828125 C 2.507812 -15.742188 3.269531 -16.453125 4.25 -16.953125 C 5.226562 -17.453125 6.367188 -17.703125 7.671875 -17.703125 C 8.953125 -17.703125 10.082031 -17.460938 11.0625 -16.984375 C 12.039062 -16.515625 12.800781 -15.84375 13.34375 -14.96875 C 13.882812 -14.09375 14.15625 -13.078125 14.15625 -11.921875 C 14.15625 -11.773438 14.019531 -11.6875 13.75 -11.65625 L 11.078125 -11.46875 L 10.96875 -11.46875 C 10.738281 -11.46875 10.625 -11.507812 10.625 -11.59375 L 10.625 -11.75 C 10.625 -12.632812 10.351562 -13.34375 9.8125 -13.875 C 9.269531 -14.40625 8.554688 -14.671875 7.671875 -14.671875 C 6.773438 -14.671875 6.054688 -14.40625 5.515625 -13.875 C 4.972656 -13.34375 4.703125 -12.632812 4.703125 -11.75 L 4.703125 -5.71875 C 4.703125 -4.851562 4.972656 -4.15625 5.515625 -3.625 C 6.054688 -3.09375 6.773438 -2.828125 7.671875 -2.828125 C 8.554688 -2.828125 9.269531 -3.09375 9.8125 -3.625 C 10.351562 -4.15625 10.625 -4.851562 10.625 -5.71875 C 10.625 -5.800781 10.660156 -5.875 10.734375 -5.9375 C 10.804688 -6 10.910156 -6.019531 11.046875 -6 L 13.71875 -5.875 C 14.007812 -5.84375 14.15625 -5.800781 14.15625 -5.75 L 14.15625 -5.625 C 14.15625 -4.476562 13.882812 -3.460938 13.34375 -2.578125 C 12.800781 -1.691406 12.039062 -1.003906 11.0625 -0.515625 C 10.082031 -0.0351562 8.953125 0.203125 7.671875 0.203125 Z M 7.671875 0.203125 "/></g></g><g style="fill:#000000;fill-opacity:1;"><g transform="translate(163.746968, 363.374971)"><path style="stroke:none" d="M 1.953125 0 C 1.671875 0 1.53125 -0.140625 1.53125 -0.421875 L 1.53125 -17.078125 C 1.53125 -17.359375 1.671875 -17.5 1.953125 -17.5 L 4.625 -17.5 C 4.90625 -17.5 5.046875 -17.359375 5.046875 -17.078125 L 5.046875 -10.25 C 5.046875 -10.1875 5.066406 -10.144531 5.109375 -10.125 C 5.148438 -10.101562 5.1875 -10.117188 5.21875 -10.171875 L 10.921875 -17.25 C 11.035156 -17.414062 11.210938 -17.5 11.453125 -17.5 L 14.46875 -17.5 C 14.59375 -17.5 14.6875 -17.476562 14.75 -17.4375 C 14.8125 -17.394531 14.84375 -17.332031 14.84375 -17.25 C 14.84375 -17.1875 14.800781 -17.09375 14.71875 -16.96875 L 9.28125 -10.03125 C 9.226562 -9.976562 9.226562 -9.910156 9.28125 -9.828125 L 15.046875 -0.5 C 15.097656 -0.4375 15.125 -0.363281 15.125 -0.28125 C 15.125 -0.09375 15.007812 0 14.78125 0 L 11.75 0 C 11.53125 0 11.363281 -0.09375 11.25 -0.28125 L 6.875 -7.375 C 6.851562 -7.425781 6.816406 -7.453125 6.765625 -7.453125 C 6.722656 -7.453125 6.6875 -7.425781 6.65625 -7.375 L 5.125 -5.421875 C 5.070312 -5.359375 5.046875 -5.300781 5.046875 -5.25 L 5.046875 -0.421875 C 5.046875 -0.140625 4.90625 0 4.625 0 Z M 1.953125 0 "/></g></g><g style="fill:#000000;fill-opacity:1;"><g transform="translate(181.219474, 363.374971)"><path style="stroke:none" d="M 1.953125 0 C 1.671875 0 1.53125 -0.140625 1.53125 -0.421875 L 1.53125 -17.078125 C 1.53125 -17.359375 1.671875 -17.5 1.953125 -17.5 L 4.625 -17.5 C 4.90625 -17.5 5.046875 -17.359375 5.046875 -17.078125 L 5.046875 -3.171875 C 5.046875 -3.078125 5.097656 -3.03125 5.203125 -3.03125 L 13.21875 -3.03125 C 13.507812 -3.03125 13.65625 -2.882812 13.65625 -2.59375 L 13.65625 -0.421875 C 13.65625 -0.140625 13.507812 0 13.21875 0 Z M 1.953125 0 "/></g></g><g style="fill:#000000;fill-opacity:1;"><g transform="translate(197.342196, 363.374971)"><path style="stroke:none" d="M 13.671875 -14.90625 C 13.671875 -14.613281 13.53125 -14.46875 13.25 -14.46875 L 5.203125 -14.46875 C 5.097656 -14.46875 5.046875 -14.421875 5.046875 -14.328125 L 5.046875 -10.5 C 5.046875 -10.394531 5.097656 -10.34375 5.203125 -10.34375 L 10.421875 -10.34375 C 10.703125 -10.34375 10.84375 -10.203125 10.84375 -9.921875 L 10.84375 -7.75 C 10.84375 -7.46875 10.703125 -7.328125 10.421875 -7.328125 L 5.203125 -7.328125 C 5.097656 -7.328125 5.046875 -7.273438 5.046875 -7.171875 L 5.046875 -3.171875 C 5.046875 -3.078125 5.097656 -3.03125 5.203125 -3.03125 L 13.25 -3.03125 C 13.53125 -3.03125 13.671875 -2.882812 13.671875 -2.59375 L 13.671875 -0.421875 C 13.671875 -0.140625 13.53125 0 13.25 0 L 1.953125 0 C 1.671875 0 1.53125 -0.140625 1.53125 -0.421875 L 1.53125 -17.078125 C 1.53125 -17.359375 1.671875 -17.5 1.953125 -17.5 L 13.25 -17.5 C 13.53125 -17.5 13.671875 -17.359375 13.671875 -17.078125 Z M 13.671875 -14.90625 "/></g></g><g style="fill:#000000;fill-opacity:1;"><g transform="translate(213.764879, 363.374971)"><path style="stroke:none" d="M 11.921875 -9.15625 C 11.867188 -9.132812 11.84375 -9.101562 11.84375 -9.0625 C 11.84375 -9.019531 11.867188 -8.984375 11.921875 -8.953125 C 13.492188 -8.171875 14.28125 -6.820312 14.28125 -4.90625 C 14.28125 -3.28125 13.726562 -2.054688 12.625 -1.234375 C 11.519531 -0.410156 10.078125 0 8.296875 0 L 1.953125 0 C 1.671875 0 1.53125 -0.140625 1.53125 -0.421875 L 1.53125 -17.078125 C 1.53125 -17.359375 1.671875 -17.5 1.953125 -17.5 L 8.09375 -17.5 C 12.050781 -17.5 14.03125 -15.898438 14.03125 -12.703125 C 14.03125 -11.015625 13.328125 -9.832031 11.921875 -9.15625 Z M 5.203125 -14.46875 C 5.097656 -14.46875 5.046875 -14.421875 5.046875 -14.328125 L 5.046875 -10.46875 C 5.046875 -10.375 5.097656 -10.328125 5.203125 -10.328125 L 8.09375 -10.328125 C 8.882812 -10.328125 9.492188 -10.507812 9.921875 -10.875 C 10.359375 -11.238281 10.578125 -11.738281 10.578125 -12.375 C 10.578125 -13.019531 10.359375 -13.53125 9.921875 -13.90625 C 9.492188 -14.28125 8.882812 -14.46875 8.09375 -14.46875 Z M 8.296875 -3.046875 C 9.066406 -3.046875 9.664062 -3.238281 10.09375 -3.625 C 10.53125 -4.019531 10.75 -4.5625 10.75 -5.25 C 10.75 -5.9375 10.53125 -6.472656 10.09375 -6.859375 C 9.664062 -7.253906 9.0625 -7.453125 8.28125 -7.453125 L 5.203125 -7.453125 C 5.097656 -7.453125 5.046875 -7.398438 5.046875 -7.296875 L 5.046875 -3.203125 C 5.046875 -3.097656 5.097656 -3.046875 5.203125 -3.046875 Z M 8.296875 -3.046875 "/></g></g><g style="fill:#000000;fill-opacity:1;"><g transform="translate(231.08741, 363.374971)"><path style="stroke:none" d="M 12.78125 0 C 12.539062 0 12.378906 -0.113281 12.296875 -0.34375 L 11.59375 -2.671875 C 11.582031 -2.753906 11.535156 -2.796875 11.453125 -2.796875 L 5.328125 -2.796875 C 5.242188 -2.796875 5.191406 -2.753906 5.171875 -2.671875 L 4.46875 -0.34375 C 4.382812 -0.113281 4.226562 0 4 0 L 1.09375 0 C 0.945312 0 0.835938 -0.046875 0.765625 -0.140625 C 0.703125 -0.234375 0.695312 -0.34375 0.75 -0.46875 L 6.078125 -17.15625 C 6.160156 -17.382812 6.316406 -17.5 6.546875 -17.5 L 10.21875 -17.5 C 10.457031 -17.5 10.617188 -17.382812 10.703125 -17.15625 L 16.03125 -0.46875 C 16.039062 -0.4375 16.046875 -0.390625 16.046875 -0.328125 C 16.046875 -0.222656 16.007812 -0.140625 15.9375 -0.078125 C 15.875 -0.0234375 15.785156 0 15.671875 0 Z M 6.046875 -5.703125 C 6.035156 -5.585938 6.078125 -5.53125 6.171875 -5.53125 L 10.59375 -5.53125 C 10.695312 -5.53125 10.738281 -5.585938 10.71875 -5.703125 L 8.46875 -13.328125 C 8.457031 -13.390625 8.429688 -13.421875 8.390625 -13.421875 C 8.347656 -13.421875 8.3125 -13.390625 8.28125 -13.328125 Z M 6.046875 -5.703125 "/></g></g><g style="fill:#000000;fill-opacity:1;"><g transform="translate(249.684744, 363.374971)"><path style="stroke:none" d="M 1.953125 0 C 1.671875 0 1.53125 -0.140625 1.53125 -0.421875 L 1.53125 -17.078125 C 1.53125 -17.359375 1.671875 -17.5 1.953125 -17.5 L 4.625 -17.5 C 4.90625 -17.5 5.046875 -17.359375 5.046875 -17.078125 L 5.046875 -3.171875 C 5.046875 -3.078125 5.097656 -3.03125 5.203125 -3.03125 L 13.21875 -3.03125 C 13.507812 -3.03125 13.65625 -2.882812 13.65625 -2.59375 L 13.65625 -0.421875 C 13.65625 -0.140625 13.507812 0 13.21875 0 Z M 1.953125 0 "/></g></g><g style="fill:#000000;fill-opacity:1;"><g transform="translate(265.807466, 363.374971)"><path style="stroke:none" d="M 1.953125 0 C 1.671875 0 1.53125 -0.140625 1.53125 -0.421875 L 1.53125 -17.078125 C 1.53125 -17.359375 1.671875 -17.5 1.953125 -17.5 L 4.625 -17.5 C 4.90625 -17.5 5.046875 -17.359375 5.046875 -17.078125 L 5.046875 -3.171875 C 5.046875 -3.078125 5.097656 -3.03125 5.203125 -3.03125 L 13.21875 -3.03125 C 13.507812 -3.03125 13.65625 -2.882812 13.65625 -2.59375 L 13.65625 -0.421875 C 13.65625 -0.140625 13.507812 0 13.21875 0 Z M 1.953125 0 "/></g></g><g style="fill:#000000;fill-opacity:1;"><g transform="translate(281.937178, 363.374971)"><path style="stroke:none" d=""/></g></g></g></svg>