<svg xmlns="http://www.w3.org/2000/svg" xmlns:xlink="http://www.w3.org/1999/xlink" width="400" zoomAndPan="magnify" viewBox="0 0 300 383.999986" height="512" preserveAspectRatio="xMidYMid meet" version="1.2"><defs><clipPath id="5055bacd10"><path d="M 23 27 L 183 27 L 183 321 L 23 321 Z M 23 27 "/></clipPath><clipPath id="e4ac4718a3"><path d="M 127.90625 8.910156 L 196.601562 32.863281 L 88.695312 342.339844 L 20 318.386719 Z M 127.90625 8.910156 "/></clipPath><clipPath id="8a08f3a48d"><path d="M 127.90625 8.910156 L 196.601562 32.863281 L 88.695312 342.339844 L 20 318.386719 Z M 127.90625 8.910156 "/></clipPath><clipPath id="5812197340"><path d="M 13.605469 341 L 286.605469 341 L 286.605469 383.730469 L 13.605469 383.730469 Z M 13.605469 341 "/></clipPath><clipPath id="e7a772cdf3"><path d="M 196.351562 186.480469 L 293.101562 186.480469 L 293.101562 314.730469 L 196.351562 314.730469 Z M 196.351562 186.480469 "/></clipPath><clipPath id="15db44fbec"><path d="M 229.796875 315.46875 L 300 315.46875 L 300 324.597656 L 229.796875 324.597656 Z M 229.796875 315.46875 "/></clipPath></defs><g id="e2f7642176"><g clip-rule="nonzero" clip-path="url(#5055bacd10)"><g clip-rule="nonzero" clip-path="url(#e4ac4718a3)"><g clip-rule="nonzero" clip-path="url(#8a08f3a48d)"><path style=" stroke:none;fill-rule:nonzero;fill:#5170ff;fill-opacity:1;" d="M 25.273438 320.027344 C 25.03125 319.992188 24.625 319.851562 24.460938 319.742188 C 24.265625 319.574219 24.164062 319.285156 24.167969 318.980469 C 24.199219 318.738281 24.4375 318.210938 24.699219 317.898438 C 24.773438 317.824219 24.746094 317.761719 24.5625 317.699219 C 24.019531 317.507812 23.738281 317.15625 23.761719 316.65625 C 23.777344 316.460938 23.886719 316.144531 24.246094 315.40625 C 24.480469 314.878906 24.933594 314.019531 25.183594 313.449219 C 26.011719 311.65625 26.695312 310.421875 27.605469 309.265625 C 28.023438 308.652344 28.394531 308.171875 28.410156 308.125 C 28.425781 308.082031 28.199219 308.003906 27.925781 307.90625 C 27.339844 307.703125 27.070312 307.457031 26.96875 307.015625 C 26.824219 306.558594 26.949219 306.347656 27.609375 305.765625 C 28.421875 305.035156 29.558594 303.960938 30.050781 303.421875 C 30.542969 302.882812 31.253906 301.859375 31.984375 300.644531 C 33.101562 298.75 34.667969 297.164062 37.023438 295.5 C 38.707031 294.308594 39.167969 293.859375 40.007812 292.476562 C 40.5625 291.605469 42.027344 288.867188 42.542969 287.679688 C 43.199219 286.230469 44.347656 283.082031 46.117188 278.011719 C 47.078125 275.25 48.085938 272.507812 48.292969 271.917969 C 49.246094 269.613281 50.613281 267.296875 52.871094 264.023438 C 56.179688 259.191406 57.179688 257.203125 60.105469 249.390625 C 61.488281 245.710938 61.945312 244.550781 62.085938 244.296875 C 62.207031 244.085938 62.164062 244.070312 62.042969 243.976562 C 61.757812 243.777344 60.996094 243.054688 60.742188 242.761719 C 60.488281 242.472656 60.441406 242.453125 59.71875 242.203125 C 58.90625 241.917969 57.835938 241.34375 57.085938 240.726562 C 55.8125 239.722656 54.132812 237.261719 53.507812 235.417969 C 52.371094 232.128906 52.292969 228.855469 53.191406 224.242188 C 53.515625 222.730469 54.289062 220.515625 54.941406 219.21875 C 55.8125 217.59375 56.882812 215.988281 57.835938 215 L 58.3125 214.507812 L 58.269531 214.1875 C 58.128906 213.429688 58.292969 212.523438 58.636719 211.828125 C 58.914062 211.316406 59.46875 210.75 59.757812 210.648438 L 59.988281 210.574219 L 60.007812 210.226562 C 60.023438 210.03125 60.015625 209.621094 60.050781 209.378906 C 60.195312 207.652344 60.695312 206.507812 61.785156 205.417969 C 62.125 205.027344 62.382812 204.863281 63.054688 204.539062 C 63.742188 204.171875 63.972656 204.097656 64.503906 204.027344 C 64.867188 204.003906 65.335938 203.964844 65.625 204.015625 C 66.167969 204.050781 66.167969 204.050781 66.234375 203.871094 C 66.34375 203.554688 66.429688 202.875 66.554688 201.496094 C 66.664062 200.011719 66.859375 199.015625 67.242188 197.625 C 67.691406 195.902344 68.125 195.089844 69.101562 193.753906 C 69.964844 192.585938 70.992188 191.675781 72.105469 191.097656 C 72.414062 190.953125 72.75 190.714844 72.996094 190.445312 C 73.871094 189.53125 75.324219 188.566406 76.496094 188.113281 C 77.199219 187.851562 78.140625 187.621094 78.871094 187.570312 L 79.445312 187.515625 L 79.664062 187.035156 C 79.929688 186.417969 80.363281 185.757812 80.824219 185.308594 C 81.625 184.46875 82.957031 183.5625 84.070312 183.140625 L 84.648438 182.933594 L 84.574219 182.707031 C 84.386719 182.082031 83.628906 181.058594 82.980469 180.578125 C 82.578125 180.285156 82.652344 180.210938 83.136719 180.429688 C 83.980469 180.773438 84.683594 181.527344 85.140625 182.394531 L 85.363281 182.777344 L 85.894531 182.710938 C 86.636719 182.613281 87.425781 182.683594 88.253906 182.925781 C 89.3125 183.242188 89.625 183.503906 88.644531 183.261719 C 87.84375 183.085938 86.265625 183.09375 85.75 183.269531 L 85.566406 183.355469 L 85.683594 183.753906 C 85.828125 184.210938 85.933594 185.210938 85.851562 185.742188 C 85.746094 186.769531 85.273438 187.976562 84.609375 189.011719 C 84.128906 189.808594 83.652344 190.304688 82.839844 191.035156 C 82.164062 191.660156 81.273438 192.46875 79.535156 194.246094 C 78.214844 195.5625 77.441406 196.613281 76.632812 198.207031 C 76.148438 199.15625 76.054688 199.429688 76.101562 199.445312 C 76.191406 199.476562 77.875 198.285156 78.425781 197.871094 C 79.070312 197.332031 79.699219 196.691406 80.375 195.910156 C 80.992188 195.160156 81.320312 194.667969 82.542969 192.757812 C 84.449219 189.769531 85.695312 188.375 87.332031 187.171875 C 89.09375 185.90625 92.0625 184.960938 93.96875 185.019531 C 94.515625 185.054688 95.632812 185.34375 95.511719 185.402344 C 95.449219 185.433594 95.148438 185.429688 94.84375 185.425781 C 93.828125 185.425781 92.382812 185.785156 91.390625 186.300781 C 90.398438 186.820312 89.292969 187.804688 88.519531 189.003906 L 88.304688 189.335938 L 88.503906 189.203125 C 88.640625 189.097656 88.960938 188.90625 89.253906 188.652344 C 90.125 188.042969 91.667969 187.261719 92.457031 187.027344 C 93.1875 186.828125 94.023438 186.761719 94.71875 186.800781 C 95.324219 186.8125 96.515625 187.175781 97.042969 187.410156 C 97.253906 187.535156 97.527344 187.628906 97.570312 187.644531 C 97.664062 187.675781 99.382812 185.941406 100.585938 184.535156 C 101.03125 183.980469 101.972656 182.886719 102.664062 182.0625 C 103.359375 181.238281 104.421875 179.933594 104.976562 179.214844 C 106.226562 177.667969 106.875 176.828125 107.371094 175.988281 C 107.777344 175.265625 108.398438 173.910156 108.480469 173.53125 C 108.578125 173.109375 108.667969 170.957031 108.671875 169.640625 C 108.664062 168.925781 108.625 167.59375 108.53125 166.699219 C 108.34375 163.738281 108.3125 162.664062 108.480469 160.285156 C 108.742188 156.621094 109.203125 153.992188 110.140625 150.867188 C 111.191406 147.273438 112.347656 144.683594 115.738281 138.605469 C 118.6875 133.34375 121.148438 128.464844 122.945312 124.625 C 123.351562 123.75 124.007812 122.304688 124.492188 121.355469 C 126.253906 117.605469 128.363281 113.015625 128.753906 112.183594 C 128.972656 111.703125 129.714844 109.726562 130.4375 107.796875 C 131.949219 103.757812 131.820312 104.117188 132.199219 101 C 132.453125 98.960938 132.773438 96.585938 133.035156 95.101562 C 133.757812 91.140625 135.582031 85.332031 137.191406 81.730469 C 139.628906 76.339844 142.125 72.234375 146 67.089844 C 148.582031 63.625 149.753906 62.15625 151.9375 59.667969 C 153.308594 58.066406 153.726562 57.449219 154.324219 56.035156 C 154.933594 54.574219 155.238281 53.257812 155.324219 51.5625 C 155.398438 50.621094 155.402344 50.320312 155.300781 48.710938 C 155.234375 47.164062 155.433594 45.710938 155.839844 44.992188 C 156.304688 44.085938 156.996094 43.566406 158.59375 42.90625 C 159.554688 42.480469 160.09375 42.109375 160.722656 41.464844 C 161.277344 40.898438 161.632812 40.3125 162.269531 39.0625 C 163.453125 36.835938 163.917969 36.234375 165.617188 34.847656 C 167.519531 33.328125 167.394531 33.386719 167.570312 32.890625 C 167.695312 32.527344 167.804688 32.363281 168.050781 32.09375 C 168.449219 31.675781 169.058594 31.378906 169.515625 31.386719 L 169.863281 31.40625 L 169.988281 31.042969 C 170.070312 30.816406 170.207031 30.5625 170.285156 30.488281 C 170.53125 30.21875 170.941406 30.058594 171.308594 30.03125 C 171.566406 30.019531 171.566406 30.019531 171.691406 29.660156 C 171.832031 29.25 172.0625 29.027344 172.566406 28.746094 C 173.011719 28.496094 173.390625 28.421875 173.753906 28.550781 C 173.980469 28.628906 174.039062 28.597656 174.070312 28.507812 C 174.148438 28.28125 174.457031 27.984375 174.777344 27.789062 C 175.34375 27.480469 175.980469 27.550781 176.335938 27.980469 C 176.457031 28.070312 176.515625 28.195312 176.515625 28.195312 C 176.515625 28.195312 176.667969 28.042969 176.777344 27.878906 C 177.054688 27.519531 177.789062 27.164062 178.214844 27.109375 C 178.578125 27.085938 179.074219 27.257812 179.238281 27.519531 C 179.445312 27.792969 179.519531 28.023438 179.46875 28.460938 L 179.402344 28.792969 L 179.710938 28.496094 C 180.539062 27.71875 181.3125 27.53125 181.851562 28.023438 C 182.019531 28.132812 182.238281 28.667969 182.191406 28.800781 C 182.175781 28.847656 182.292969 29.242188 182.496094 29.671875 C 182.6875 30.144531 182.832031 30.597656 182.84375 30.855469 C 182.855469 31.265625 182.617188 33.113281 182.339844 34.488281 C 182.289062 34.773438 182.160156 35.441406 182.09375 35.925781 C 181.863281 37.316406 181.652344 38.207031 181.054688 39.925781 C 180.644531 41.101562 180.34375 41.8125 180.019531 42.457031 C 179.691406 43.105469 179.28125 44.128906 178.589844 46.121094 L 177.582031 48.867188 L 176.960938 49.917969 C 176.414062 50.898438 176.308594 51.0625 175.773438 52.449219 C 175.128906 54.152344 174.707031 54.917969 173.300781 57.066406 C 172.527344 58.269531 172.121094 58.992188 170.488281 62.078125 C 169.601562 63.746094 169.226562 64.53125 168.460938 66.140625 C 167.804688 67.585938 166.257812 72.019531 165.636719 74.242188 C 164.246094 79.390625 163.101562 83.253906 161.644531 87.871094 C 159.742188 93.910156 159.183594 95.945312 158.867188 98.019531 C 158.652344 99.363281 158.707031 99.941406 158.945312 102.460938 C 159.09375 103.78125 159.210938 105.191406 159.21875 105.601562 C 159.242188 107.132812 158.972656 109.070312 158.359375 112 C 157.96875 113.84375 157.980469 114.101562 158.375 118.351562 C 158.824219 123.328125 158.894531 126.042969 158.691406 131.859375 C 158.550781 136.480469 158.273438 139.023438 157.480469 142.757812 C 157.011719 144.976562 156.773438 145.808594 155.9375 148.207031 C 155.097656 150.605469 154.722656 151.539062 153.539062 153.917969 C 152.199219 156.597656 151.46875 157.816406 149.011719 161.222656 C 147.21875 163.742188 147.019531 164.027344 145.957031 166.347656 C 144.78125 168.984375 143.414062 171.453125 142.148438 173.191406 C 141.730469 173.808594 140.003906 175.84375 139.359375 176.535156 C 138.542969 177.417969 137.679688 178.585938 136.53125 180.421875 C 134.96875 182.871094 132.804688 187.039062 131.753906 189.464844 C 129.933594 193.957031 129.949219 193.910156 129.464844 197.191406 C 129.117188 199.507812 128.855469 200.683594 128.351562 202.132812 C 127.910156 203.398438 127.910156 203.398438 127.367188 204.226562 C 127.058594 204.675781 126.347656 205.699219 125.699219 206.539062 C 123.925781 208.863281 123.675781 209.28125 122.636719 212.269531 C 121.042969 216.839844 119.390625 219.96875 117.1875 222.652344 C 115.953125 224.152344 114.972656 224.925781 113.097656 225.945312 C 110.46875 227.363281 106.753906 228.707031 101.625 230.167969 C 99.207031 230.847656 97.539062 231.992188 95.964844 234.03125 C 95.285156 234.960938 95.144531 235.21875 94.566406 236.589844 C 93.875 238.277344 93.59375 238.789062 92.398438 241.058594 C 89.707031 246.011719 88.140625 248.457031 84.917969 252.613281 C 83.789062 254.097656 82.691406 255.644531 81.992188 256.921875 C 81.308594 258.15625 81.03125 258.667969 80.417969 260.128906 C 79.648438 262.042969 78.59375 263.910156 77.527344 265.363281 C 76.199219 267.132812 73.273438 270.429688 69.753906 273.972656 C 69.03125 274.734375 67.804688 275.929688 67.035156 276.679688 C 65.757812 278.007812 63.128906 280.898438 61.292969 283.101562 C 60.847656 283.65625 59.921875 284.703125 59.261719 285.4375 C 57.445312 287.445312 55.890625 289.285156 54.917969 290.46875 C 54.453125 291.070312 53.46875 292.300781 52.621094 293.273438 C 50.941406 295.328125 49.628906 297.050781 49.257812 297.683594 C 49.117188 297.9375 48.742188 298.722656 48.503906 299.398438 C 47.328125 302.339844 46.90625 303.257812 46.054688 304.6875 C 45.648438 305.410156 44.984375 306.445312 44.640625 306.984375 C 43.824219 308.171875 43.375 308.726562 40.960938 311.285156 C 40.144531 312.167969 39.4375 312.886719 39.4375 312.886719 C 39.4375 312.886719 38.777344 313.621094 37.976562 314.457031 C 35.007812 317.585938 34.101562 318.4375 32.867188 319.070312 C 31.933594 319.558594 31.617188 319.597656 30.890625 319.347656 L 30.121094 319.078125 L 29.726562 319.34375 C 28.667969 320.042969 27.589844 320.226562 27.125 319.808594 L 26.933594 319.640625 L 26.445312 319.875 C 26.078125 319.902344 25.640625 320 25.273438 320.027344 Z M 77.671875 210.804688 C 77.804688 211 78 211.171875 78 211.171875 C 78.046875 211.1875 78.355469 210.738281 79.066406 209.5625 C 79.410156 209.023438 79.84375 208.363281 79.996094 208.0625 C 80.398438 207.492188 80.460938 207.308594 80.171875 207.5625 C 79.710938 208.011719 78.410156 208.828125 77.328125 209.3125 C 76.902344 209.519531 76.535156 209.695312 76.535156 209.695312 C 76.519531 209.742188 76.714844 209.910156 76.953125 210.097656 C 77.195312 210.28125 77.492188 210.589844 77.671875 210.804688 Z M 68.421875 202.398438 C 68.351562 202.882812 68.300781 203.324219 68.300781 203.324219 C 68.300781 203.324219 68.394531 203.203125 68.472656 202.976562 C 68.800781 202.328125 69.03125 201.089844 69.300781 198.851562 C 69.421875 197.777344 69.714844 196.507812 70.15625 195.238281 C 70.503906 194.246094 71.082031 192.875 71.359375 192.511719 C 71.484375 192.304688 70.917969 192.765625 70.59375 193.109375 C 69.671875 194.15625 69.027344 195.710938 68.726562 197.738281 C 68.691406 198.128906 68.585938 199.160156 68.542969 200.007812 C 68.546875 200.871094 68.472656 201.960938 68.421875 202.398438 Z M 80.5 205.597656 C 79.855469 206.132812 81.097656 205.347656 81.894531 204.660156 C 82.597656 204.09375 83.597656 203.125 84.058594 202.523438 C 85.292969 201.027344 85.585938 200.621094 86.199219 200.023438 L 86.847656 199.335938 L 86.777344 198.953125 C 86.734375 198.636719 86.738281 198.484375 86.832031 198.210938 C 87.148438 197.308594 89.300781 194.914062 90.25 194.378906 C 90.816406 194.070312 91.210938 193.953125 91.527344 194.0625 L 91.753906 194.140625 L 92.15625 193.570312 C 93.019531 192.402344 95.035156 190.109375 96.527344 188.601562 L 97.3125 187.808594 L 96.707031 187.648438 C 94.851562 187.152344 93.574219 187.316406 91.652344 188.320312 C 89.253906 189.515625 88.46875 190.460938 86.320312 194.582031 C 85.917969 195.304688 85.277344 196.554688 84.859375 197.320312 C 84.4375 198.089844 84.113281 198.734375 84.097656 198.78125 C 84.078125 198.976562 85.515625 196.890625 86.539062 195.269531 C 87.65625 193.375 87.71875 193.34375 88.289062 192.429688 C 88.800781 191.691406 89.679688 190.628906 90.03125 190.34375 C 90.523438 189.957031 90.660156 190.003906 90.257812 190.425781 C 89.6875 191.039062 88.972656 192.363281 88.316406 193.957031 C 87.703125 195.421875 86.878906 197.0625 86.085938 198.460938 C 85.746094 199 85.324219 199.769531 85.125 200.054688 C 84.71875 200.773438 83.992188 201.839844 83.515625 202.488281 C 82.976562 203.160156 81.375 204.835938 80.5 205.597656 Z M 70.546875 198.625 C 70.449219 199.199219 70.445312 199.65625 70.445312 199.65625 C 70.488281 199.671875 70.675781 199.277344 70.910156 198.75 C 71.816406 196.734375 72.453125 195.636719 73.191406 194.828125 C 73.808594 194.230469 74.003906 194.09375 75.625 193.238281 C 76.921875 192.574219 77.105469 192.484375 77.445312 192.097656 C 78.089844 191.410156 78.214844 191.199219 78.8125 189.476562 C 79.113281 188.617188 79.304688 187.925781 79.304688 187.925781 C 79.246094 187.800781 77.511719 188.261719 76.671875 188.628906 C 75.941406 188.984375 74.777344 189.695312 74.316406 190.144531 L 74.226562 190.265625 L 74.515625 190.160156 C 75.121094 190.019531 75.972656 189.910156 76.578125 189.917969 C 77.488281 189.929688 77.503906 190.035156 76.589844 190.175781 C 75.679688 190.3125 74.660156 190.617188 73.867188 191 C 73.378906 191.238281 73.257812 191.296875 73.054688 191.582031 C 72.40625 192.574219 72.203125 193.011719 71.585938 194.773438 C 70.832031 196.644531 70.800781 196.886719 70.546875 198.625 Z M 79.132812 191.621094 C 79.039062 191.738281 78.992188 191.875 79.039062 191.890625 C 79.128906 191.921875 80.871094 190.855469 81.558594 190.335938 C 83.855469 188.699219 85.113281 186.398438 84.855469 184.226562 C 84.847656 183.816406 84.746094 183.527344 84.699219 183.511719 C 84.5625 183.464844 83.035156 184.351562 82.484375 184.769531 C 81.625 185.484375 80.808594 186.519531 80.539062 187.289062 C 80.476562 187.46875 80.460938 187.515625 80.75 187.566406 C 82.078125 187.824219 82.273438 187.996094 81.140625 187.902344 C 80.746094 187.867188 80.398438 187.847656 80.398438 187.847656 C 80.382812 187.894531 80.238281 188.300781 80.09375 188.859375 C 79.777344 189.917969 79.320312 191.226562 79.132812 191.621094 Z M 79.132812 191.621094 "/></g></g></g><g clip-rule="nonzero" clip-path="url(#5812197340)"><path style=" stroke:none;fill-rule:nonzero;fill:#b4dbf1;fill-opacity:1;" d="M 13.8125 383.722656 C 13.8125 382.40625 21.324219 378.992188 27.554688 379.128906 L 27.613281 379.128906 C 33.171875 379.308594 35.316406 373.257812 29.652344 372.46875 C 26.742188 372.0625 24.78125 371.675781 23.585938 370.535156 C 21.023438 368.082031 21.90625 362.960938 24.582031 361.085938 C 33.386719 354.917969 44.496094 364.933594 50.746094 370.917969 C 55.914062 375.867188 63.808594 376.132812 65.332031 376.171875 L 65.390625 376.175781 C 71.132812 375.558594 77.660156 375.921875 83.277344 378.210938 C 91.769531 381.671875 99.78125 380.015625 108.300781 377.710938 C 120.4375 374.429688 117.523438 359.085938 104.144531 359.675781 C 91.003906 360.257812 91.871094 342.546875 104.070312 341.273438 C 126.394531 338.949219 120.1875 377.28125 150.992188 372.542969 C 174.015625 369.003906 168.757812 379.859375 183.210938 378.03125 C 191.679688 376.960938 201.035156 373.035156 210.511719 363.957031 C 220.875 354.035156 239.292969 337.433594 253.894531 347.65625 C 256.761719 349.664062 258.121094 352.707031 257.988281 356.039062 C 257.667969 364.234375 254.0625 365.332031 245.484375 366.527344 C 236.902344 367.726562 240.679688 377.375 246.519531 374.699219 C 260.402344 368.332031 268.40625 378.367188 281.488281 382.175781 L 286.402344 383.609375 L 13.816406 383.722656 Z M 13.8125 383.722656 "/></g><path style=" stroke:none;fill-rule:nonzero;fill:#b4dbf1;fill-opacity:1;" d="M 170.308594 353.667969 C 170.308594 353.667969 171.566406 357.148438 168.214844 359.855469 C 164.863281 362.5625 163.613281 359.863281 158.300781 360.59375 C 152.984375 361.320312 152.589844 361.972656 151.132812 363.265625 C 149.675781 364.554688 147.171875 364.054688 147.984375 360.625 C 148.796875 357.199219 150.46875 354.621094 155.175781 351.484375 C 167.488281 344.613281 170.308594 353.667969 170.308594 353.667969 Z M 170.308594 353.667969 "/><path style=" stroke:none;fill-rule:nonzero;fill:#b4dbf1;fill-opacity:1;" d="M 103.578125 373.785156 C 102.285156 376.359375 95.164062 374.367188 92.5625 372.996094 C 89.960938 371.621094 88.898438 368.402344 90.191406 365.828125 C 91.484375 363.257812 94.660156 362.28125 97.261719 363.652344 C 99.859375 365.027344 104.875 371.210938 103.578125 373.785156 Z M 103.578125 373.785156 "/><path style=" stroke:none;fill-rule:nonzero;fill:#ffffff;fill-opacity:1;" d="M 92.265625 365.863281 C 92.136719 365.066406 92.75 364.289062 93.636719 364.125 C 94.527344 363.964844 95.351562 364.480469 95.484375 365.277344 C 95.617188 366.074219 95.003906 366.851562 94.117188 367.015625 C 93.226562 367.175781 92.398438 366.660156 92.265625 365.863281 Z M 92.265625 365.863281 "/><path style=" stroke:none;fill-rule:nonzero;fill:#ffffff;fill-opacity:1;" d="M 96.9375 351.789062 C 96.5 356.207031 100.980469 356.492188 100.132812 351.828125 C 99.871094 350.390625 99.949219 349.171875 101.433594 348.117188 C 102.542969 347.328125 101.566406 346.601562 100.859375 346.484375 C 99.195312 346.222656 97.234375 348.785156 96.9375 351.789062 Z M 96.9375 351.789062 "/><path style=" stroke:none;fill-rule:nonzero;fill:#ffffff;fill-opacity:1;" d="M 103.296875 345.261719 C 103.179688 344.546875 103.726562 343.851562 104.523438 343.707031 C 105.316406 343.5625 106.058594 344.023438 106.175781 344.738281 C 106.292969 345.453125 105.742188 346.144531 104.949219 346.292969 C 104.15625 346.433594 103.414062 345.972656 103.296875 345.261719 Z M 103.296875 345.261719 "/><path style=" stroke:none;fill-rule:nonzero;fill:#ffffff;fill-opacity:1;" d="M 163.996094 350.539062 C 166.832031 351.015625 165.730469 354.171875 162.871094 352.699219 C 162.105469 352.304688 161.347656 352.152344 160.210938 352.867188 C 159.355469 353.40625 159.257812 352.699219 159.433594 352.25 C 159.851562 351.207031 162.101562 350.21875 163.996094 350.539062 Z M 163.996094 350.539062 "/><path style=" stroke:none;fill-rule:nonzero;fill:#ffffff;fill-opacity:1;" d="M 247.339844 347.125 C 253.386719 348.050781 251.742188 354.710938 244.054688 351.53125 C 242 350.683594 239.976562 350.320312 236.933594 351.679688 C 234.648438 352.699219 234.378906 351.269531 234.851562 350.386719 C 235.960938 348.316406 242.265625 346.347656 247.339844 347.125 Z M 247.339844 347.125 "/><path style=" stroke:none;fill-rule:nonzero;fill:#ffffff;fill-opacity:1;" d="M 229.683594 351.738281 C 230.605469 351.339844 231.570312 351.664062 231.84375 352.464844 C 232.117188 353.269531 231.589844 354.242188 230.667969 354.640625 C 229.75 355.039062 228.78125 354.714844 228.507812 353.914062 C 228.238281 353.113281 228.761719 352.140625 229.683594 351.738281 Z M 229.683594 351.738281 "/><path style=" stroke:none;fill-rule:nonzero;fill:#b4dbf1;fill-opacity:1;" d="M 134.785156 342.683594 C 134.785156 342.683594 137.679688 341.667969 139.585938 345.328125 C 141.496094 348.988281 139.226562 350.058594 139.390625 355.578125 C 139.550781 361.097656 140.042969 361.558594 140.960938 363.15625 C 141.882812 364.757812 141.28125 367.292969 138.589844 366.183594 C 135.902344 365.074219 133.964844 363.148438 131.820312 358.0625 C 127.28125 344.855469 134.785156 342.683594 134.785156 342.683594 Z M 134.785156 342.683594 "/><path style=" stroke:none;fill-rule:nonzero;fill:#ffffff;fill-opacity:1;" d="M 133.382812 345.929688 C 135.300781 343.371094 138.261719 345.390625 135.230469 347.664062 C 134.414062 348.277344 133.875 348.949219 134.109375 350.253906 C 134.289062 351.234375 133.457031 351.113281 133.046875 350.808594 C 132.09375 350.089844 132.101562 347.640625 133.382812 345.929688 Z M 133.382812 345.929688 "/><path style=" stroke:none;fill-rule:nonzero;fill:#b4dbf1;fill-opacity:1;" d="M 69.355469 337.707031 C 69.355469 337.707031 66.625 339.21875 67.445312 343.355469 C 68.265625 347.488281 70.574219 346.507812 73.796875 350.636719 C 77.019531 354.765625 76.9375 355.480469 77.234375 357.355469 C 77.53125 359.230469 79.503906 360.601562 80.800781 357.710938 C 82.09375 354.820312 82.34375 351.917969 80.832031 346.5625 C 76.15625 333.460938 69.355469 337.707031 69.355469 337.707031 Z M 69.355469 337.707031 "/><path style=" stroke:none;fill-rule:nonzero;fill:#ffffff;fill-opacity:1;" d="M 72.347656 338.976562 C 69.394531 338.605469 68.457031 342.371094 72.046875 341.664062 C 73.011719 341.476562 73.8125 341.546875 74.433594 342.675781 C 74.894531 343.527344 75.429688 342.792969 75.542969 342.253906 C 75.804688 340.992188 74.320312 339.222656 72.347656 338.976562 Z M 72.347656 338.976562 "/><path style=" stroke:none;fill-rule:nonzero;fill:#b4dbf1;fill-opacity:1;" d="M 175.925781 372.667969 C 177.347656 375.152344 184.359375 372.710938 186.886719 371.175781 C 189.414062 369.640625 190.316406 366.359375 188.898438 363.871094 C 187.476562 361.386719 184.257812 360.613281 181.730469 362.148438 C 179.203125 363.6875 174.507812 370.179688 175.925781 372.667969 Z M 175.925781 372.667969 "/><path style=" stroke:none;fill-rule:nonzero;fill:#ffffff;fill-opacity:1;" d="M 186.828125 364.039062 C 186.921875 363.234375 186.269531 362.496094 185.375 362.390625 C 184.480469 362.285156 183.679688 362.851562 183.585938 363.65625 C 183.492188 364.464844 184.144531 365.199219 185.039062 365.304688 C 185.9375 365.410156 186.738281 364.839844 186.828125 364.039062 Z M 186.828125 364.039062 "/><path style=" stroke:none;fill-rule:nonzero;fill:#b4dbf1;fill-opacity:1;" d="M 217.285156 339.742188 C 217.285156 339.742188 219.667969 342.359375 217.550781 346.359375 C 215.433594 350.355469 213.332031 348.453125 208.71875 351.53125 C 204.101562 354.609375 203.96875 355.382812 203.089844 357.226562 C 202.210938 359.070312 199.734375 359.746094 199.269531 356.242188 C 198.804688 352.734375 199.429688 349.613281 202.636719 344.605469 C 211.503906 332.726562 217.285156 339.742188 217.285156 339.742188 Z M 217.285156 339.742188 "/><path style=" stroke:none;fill-rule:nonzero;fill:#ffffff;fill-opacity:1;" d="M 210.390625 339.742188 C 213.164062 338.890625 213.265625 342.285156 210.125 342.230469 C 209.28125 342.214844 208.535156 342.417969 207.746094 343.589844 C 207.152344 344.46875 206.808594 343.867188 206.816406 343.378906 C 206.828125 342.234375 208.542969 340.308594 210.390625 339.742188 Z M 210.390625 339.742188 "/><path style=" stroke:none;fill-rule:nonzero;fill:#b4dbf1;fill-opacity:1;" d="M 263.585938 367.566406 C 264.515625 369.300781 269.367188 367.78125 271.128906 366.785156 C 272.890625 365.789062 273.566406 363.554688 272.636719 361.820312 C 271.703125 360.082031 269.511719 359.480469 267.75 360.476562 C 265.988281 361.476562 262.65625 365.828125 263.585938 367.566406 Z M 263.585938 367.566406 "/><path style=" stroke:none;fill-rule:nonzero;fill:#ffffff;fill-opacity:1;" d="M 271.222656 361.886719 C 271.300781 361.335938 270.867188 360.816406 270.253906 360.722656 C 269.640625 360.632812 269.082031 361.003906 269.003906 361.554688 C 268.929688 362.101562 269.363281 362.625 269.976562 362.714844 C 270.585938 362.808594 271.148438 362.433594 271.222656 361.886719 Z M 271.222656 361.886719 "/><path style=" stroke:none;fill-rule:nonzero;fill:#b4dbf1;fill-opacity:1;" d="M 22.167969 375.703125 C 21.605469 376.757812 18.664062 375.835938 17.597656 375.230469 C 16.527344 374.625 16.121094 373.273438 16.683594 372.222656 C 17.246094 371.167969 18.578125 370.804688 19.644531 371.410156 C 20.710938 372.015625 22.734375 374.652344 22.167969 375.703125 Z M 22.167969 375.703125 "/><path style=" stroke:none;fill-rule:nonzero;fill:#ffffff;fill-opacity:1;" d="M 17.546875 372.261719 C 17.5 371.929688 17.761719 371.613281 18.132812 371.558594 C 18.503906 371.5 18.84375 371.726562 18.890625 372.058594 C 18.9375 372.394531 18.675781 372.707031 18.300781 372.765625 C 17.933594 372.820312 17.59375 372.59375 17.546875 372.261719 Z M 17.546875 372.261719 "/><path style=" stroke:none;fill-rule:nonzero;fill:#b4dbf1;fill-opacity:1;" d="M 283.773438 372.246094 C 283.773438 372.246094 283.925781 373.636719 282.472656 374.25 C 281.019531 374.863281 280.800781 373.753906 278.808594 373.4375 C 276.820312 373.121094 276.617188 373.316406 275.976562 373.625 C 275.335938 373.929688 274.46875 373.476562 275.066406 372.328125 C 275.660156 371.179688 276.492188 370.429688 278.472656 369.8125 C 283.539062 368.667969 283.773438 372.246094 283.773438 372.246094 Z M 283.773438 372.246094 "/><path style=" stroke:none;fill-rule:nonzero;fill:#ffffff;fill-opacity:1;" d="M 281.753906 370.429688 C 282.742188 370.910156 282.0625 371.929688 281.15625 371.089844 C 280.914062 370.859375 280.652344 370.726562 280.175781 370.859375 C 279.820312 370.960938 279.84375 370.691406 279.949219 370.554688 C 280.191406 370.21875 281.09375 370.109375 281.753906 370.429688 Z M 281.753906 370.429688 "/><path style=" stroke:none;fill-rule:nonzero;fill:#b4dbf1;fill-opacity:1;" d="M 45.828125 345.800781 C 45.828125 345.800781 43.492188 347.738281 44.890625 351.441406 C 46.289062 355.144531 48.304688 353.785156 51.960938 357.019531 C 55.617188 360.253906 55.648438 360.9375 56.210938 362.632812 C 56.773438 364.324219 58.835938 365.226562 59.617188 362.277344 C 60.394531 359.332031 60.191406 356.574219 57.957031 351.863281 C 51.578125 340.53125 45.828125 345.800781 45.828125 345.800781 Z M 45.828125 345.800781 "/><path style=" stroke:none;fill-rule:nonzero;fill:#ffffff;fill-opacity:1;" d="M 51.785156 346.691406 C 49.484375 345.605469 49.027344 348.5 51.746094 348.859375 C 52.476562 348.957031 53.101562 349.226562 53.65625 350.335938 C 54.074219 351.164062 54.433594 350.691406 54.484375 350.273438 C 54.59375 349.289062 53.320312 347.417969 51.785156 346.691406 Z M 51.785156 346.691406 "/><path style=" stroke:none;fill-rule:nonzero;fill:#b4dbf1;fill-opacity:1;" d="M 281.046875 346.613281 C 281.046875 346.613281 281.675781 348.359375 279.996094 349.71875 C 278.3125 351.082031 277.683594 349.726562 275.015625 350.089844 C 272.347656 350.457031 272.148438 350.785156 271.414062 351.433594 C 270.683594 352.082031 269.425781 351.828125 269.835938 350.105469 C 270.242188 348.386719 271.082031 347.089844 273.445312 345.515625 C 279.632812 342.066406 281.046875 346.613281 281.046875 346.613281 Z M 281.046875 346.613281 "/><path style=" stroke:none;fill-rule:nonzero;fill:#ffffff;fill-opacity:1;" d="M 277.875 345.042969 C 279.300781 345.28125 278.746094 346.867188 277.3125 346.125 C 276.925781 345.925781 276.546875 345.851562 275.976562 346.210938 C 275.546875 346.480469 275.496094 346.125 275.585938 345.902344 C 275.792969 345.378906 276.921875 344.878906 277.875 345.042969 Z M 277.875 345.042969 "/><path style=" stroke:none;fill-rule:nonzero;fill:#b4dbf1;fill-opacity:1;" d="M 66.871094 362.796875 C 66.871094 362.796875 65.605469 363.914062 66.4375 365.964844 C 67.269531 368.011719 68.367188 367.222656 70.445312 368.972656 C 72.523438 370.726562 72.550781 371.105469 72.886719 372.042969 C 73.222656 372.980469 74.382812 373.453125 74.769531 371.792969 C 75.15625 370.136719 75 368.597656 73.691406 366 C 69.980469 359.765625 66.871094 362.796875 66.871094 362.796875 Z M 66.871094 362.796875 "/><path style=" stroke:none;fill-rule:nonzero;fill:#ffffff;fill-opacity:1;" d="M 70.1875 363.203125 C 68.894531 362.628906 68.6875 364.253906 70.199219 364.414062 C 70.605469 364.457031 70.957031 364.597656 71.28125 365.210938 C 71.527344 365.664062 71.71875 365.394531 71.738281 365.160156 C 71.785156 364.609375 71.050781 363.582031 70.1875 363.203125 Z M 70.1875 363.203125 "/><path style=" stroke:none;fill-rule:nonzero;fill:#ffffff;fill-opacity:1;" d="M 28.53125 360.765625 C 24.882812 361.324219 25.878906 365.339844 30.515625 363.425781 C 31.753906 362.910156 32.972656 362.691406 34.808594 363.515625 C 36.1875 364.128906 36.347656 363.265625 36.0625 362.734375 C 35.398438 361.484375 31.59375 360.296875 28.53125 360.765625 Z M 28.53125 360.765625 "/><path style=" stroke:none;fill-rule:nonzero;fill:#ffffff;fill-opacity:1;" d="M 39.183594 363.550781 C 38.625 363.308594 38.042969 363.503906 37.878906 363.988281 C 37.714844 364.472656 38.03125 365.058594 38.589844 365.300781 C 39.144531 365.542969 39.726562 365.34375 39.890625 364.863281 C 40.054688 364.378906 39.738281 363.792969 39.183594 363.550781 Z M 39.183594 363.550781 "/><path style=" stroke:none;fill-rule:nonzero;fill:#b4dbf1;fill-opacity:1;" d="M 19.199219 346.03125 C 19.199219 346.03125 18.457031 347.941406 20.292969 349.511719 C 22.132812 351.078125 22.859375 349.601562 25.816406 350.109375 C 28.777344 350.613281 28.988281 350.984375 29.785156 351.726562 C 30.582031 352.472656 31.988281 352.242188 31.574219 350.320312 C 31.164062 348.398438 30.261719 346.933594 27.671875 345.101562 C 20.882812 341.046875 19.199219 346.03125 19.199219 346.03125 Z M 19.199219 346.03125 "/><path style=" stroke:none;fill-rule:nonzero;fill:#ffffff;fill-opacity:1;" d="M 22.761719 344.410156 C 21.171875 344.621094 21.75 346.398438 23.363281 345.632812 C 23.796875 345.425781 24.21875 345.355469 24.847656 345.777344 C 25.316406 346.089844 25.378906 345.699219 25.289062 345.449219 C 25.066406 344.859375 23.824219 344.269531 22.761719 344.410156 Z M 22.761719 344.410156 "/><path style=" stroke:none;fill-rule:nonzero;fill:#b4dbf1;fill-opacity:1;" d="M 189.304688 342.757812 C 189.304688 342.757812 190.605469 343.941406 189.71875 346.046875 C 188.828125 348.152344 187.695312 347.304688 185.515625 349.074219 C 183.335938 350.847656 183.300781 351.242188 182.941406 352.203125 C 182.578125 353.171875 181.367188 353.632812 180.988281 351.90625 C 180.605469 350.175781 180.785156 348.585938 182.175781 345.921875 C 186.109375 339.542969 189.304688 342.757812 189.304688 342.757812 Z M 189.304688 342.757812 "/><path style=" stroke:none;fill-rule:nonzero;fill:#ffffff;fill-opacity:1;" d="M 185.851562 343.101562 C 187.203125 342.539062 187.398438 344.226562 185.824219 344.359375 C 185.402344 344.394531 185.035156 344.53125 184.6875 345.15625 C 184.429688 345.625 184.234375 345.34375 184.214844 345.097656 C 184.175781 344.523438 184.949219 343.480469 185.851562 343.101562 Z M 185.851562 343.101562 "/><g clip-rule="nonzero" clip-path="url(#e7a772cdf3)"><path style=" stroke:none;fill-rule:nonzero;fill:#5170ff;fill-opacity:1;" d="M 292.945312 188.75 C 292.792969 188.457031 292.144531 188.441406 291.957031 188.492188 C 291.769531 188.542969 290.964844 188.644531 290.503906 188.730469 C 290.046875 188.816406 289.804688 189.039062 289.261719 189.226562 C 288.714844 189.414062 287.980469 189.480469 288 189.464844 C 288.015625 189.449219 288.527344 189.257812 288.527344 189.257812 C 288.527344 189.257812 289.414062 188.851562 289.71875 188.695312 C 290.027344 188.542969 290.386719 188.40625 290.847656 188.238281 C 291.308594 188.066406 291.203125 187.792969 291.238281 187.519531 C 291.273438 187.246094 291.171875 187.042969 290.929688 186.886719 C 290.691406 186.734375 289.667969 187.078125 289.328125 187.144531 C 288.988281 187.210938 287.878906 187.722656 287.878906 187.722656 C 288.390625 187.347656 288.253906 186.90625 288.066406 186.71875 C 287.878906 186.53125 287.367188 186.617188 286.957031 186.667969 C 286.546875 186.71875 285.574219 187.09375 285.335938 187.195312 C 285.097656 187.296875 283.9375 187.65625 283.308594 187.929688 C 282.675781 188.203125 281.5 188.339844 281.070312 188.472656 C 280.644531 188.613281 278.308594 189.464844 277.542969 189.855469 C 276.773438 190.25 274.691406 191.988281 274.214844 192.484375 C 273.738281 192.980469 272.882812 193.574219 272.5625 193.78125 C 272.238281 193.984375 272.101562 193.96875 271.726562 194.257812 C 271.351562 194.546875 270.597656 195.265625 270.597656 195.265625 C 268.789062 196.9375 265.992188 198.503906 263.964844 199.734375 C 261.933594 200.960938 257.925781 204.117188 256.9375 204.851562 C 255.945312 205.585938 253.027344 207.734375 252.601562 208.125 C 252.175781 208.519531 251.835938 208.6875 251.355469 209.046875 C 250.878906 209.40625 250.316406 209.746094 249.496094 210.15625 C 248.679688 210.566406 244.363281 212.203125 243.375 212.664062 C 242.386719 213.125 240.644531 213.464844 239.878906 213.617188 C 239.109375 213.773438 237.234375 214.214844 236.277344 214.539062 C 235.324219 214.863281 230 216.894531 228.6875 217.355469 C 227.375 217.816406 225.976562 218.957031 225.277344 219.675781 C 224.578125 220.390625 221.882812 221.601562 221.214844 221.910156 C 220.550781 222.214844 219.390625 222.746094 219.355469 222.589844 C 219.324219 222.4375 218.898438 222.234375 218.828125 222.097656 C 218.761719 221.960938 218.640625 221.617188 218.640625 221.617188 C 218.875 221.582031 219.019531 221.394531 219.082031 221.292969 C 218.941406 221.445312 218.488281 221.429688 218.488281 221.429688 L 218.8125 221.125 C 218.8125 221.125 218.503906 221.175781 218.332031 221.242188 C 218.164062 221.3125 218.761719 220.886719 218.761719 220.886719 L 218.25 220.953125 C 218.25 220.953125 218.503906 220.59375 218.554688 220.5625 C 218.605469 220.527344 218.113281 220.800781 218.113281 220.800781 L 218.386719 220.457031 L 217.925781 220.730469 L 218.113281 220.339844 C 218.113281 220.339844 217.769531 220.679688 217.71875 220.730469 C 217.695312 220.753906 217.746094 220.664062 217.804688 220.554688 C 217.609375 220.769531 217.308594 220.917969 217.308594 220.917969 L 217.394531 220.664062 C 217.394531 220.664062 217.175781 220.953125 217.140625 221.003906 C 217.105469 221.054688 217.15625 220.644531 217.15625 220.644531 L 216.832031 221.140625 L 216.832031 220.832031 C 216.832031 220.832031 216.542969 221.261719 216.558594 221.207031 C 216.578125 221.15625 216.421875 220.714844 216.523438 220.390625 C 216.628906 220.066406 216.558594 219.84375 216.472656 219.691406 C 216.390625 219.535156 216.355469 219.246094 216.21875 218.785156 C 216.082031 218.324219 215.332031 217.746094 214.972656 217.59375 C 214.613281 217.4375 214.207031 217.046875 214.546875 216.859375 C 214.886719 216.671875 214.070312 216.074219 214.070312 216.074219 C 214.070312 216.074219 214.1875 215.785156 214.035156 215.496094 C 213.882812 215.203125 213.300781 215.257812 212.738281 215.222656 C 212.175781 215.1875 212.023438 214.488281 212.160156 214.128906 C 212.296875 213.773438 211.648438 213.667969 211.117188 213.6875 C 210.589844 213.703125 210.382812 213.480469 210.453125 213.140625 C 210.519531 212.800781 210.539062 212.699219 210.25 212.699219 C 209.957031 212.699219 209.496094 212.152344 208.984375 211.691406 C 208.472656 211.230469 207.570312 211.296875 207.28125 211.265625 C 206.988281 211.230469 206.480469 210.890625 206.171875 210.835938 C 205.863281 210.785156 205.660156 211.265625 205.113281 211.210938 C 204.566406 211.164062 203.613281 211.347656 203.238281 211.605469 C 202.863281 211.863281 202.417969 211.863281 202.09375 212.015625 C 201.769531 212.167969 201.875 212.527344 201.753906 212.613281 C 201.632812 212.699219 201.054688 212.75 200.867188 212.851562 C 200.679688 212.953125 200.847656 213.261719 200.167969 213.667969 C 199.484375 214.078125 199.210938 214.863281 199.210938 214.863281 C 198.460938 214.859375 198.3125 215.316406 198.363281 215.957031 C 198.414062 216.59375 197.953125 216.46875 197.582031 216.699219 C 197.210938 216.925781 197.800781 216.992188 197.839844 217.207031 C 197.878906 217.425781 197.046875 218.601562 196.726562 219.269531 C 196.40625 219.933594 196.355469 219.960938 196.726562 220.394531 C 197.097656 220.828125 197.136719 220.894531 196.957031 221.289062 C 196.777344 221.6875 197.238281 221.570312 197.25 221.648438 C 197.261719 221.726562 197.171875 222.261719 197.328125 223.042969 C 197.480469 223.824219 197.929688 224.347656 198.054688 224.707031 C 198.183594 225.0625 198.300781 225.230469 198.222656 225.539062 C 198.144531 225.84375 198.363281 226.035156 198.667969 226.394531 C 198.976562 226.753906 198.773438 226.945312 198.773438 226.945312 C 198.222656 227.175781 199.015625 228.058594 199.015625 228.132812 C 199.015625 228.210938 199.054688 228.53125 199.054688 228.53125 C 199.054688 228.53125 199.183594 228.851562 199.296875 228.953125 C 199.414062 229.054688 199.679688 229.066406 199.679688 229.03125 C 199.679688 228.992188 199.769531 229.171875 199.769531 229.171875 L 199.976562 229.054688 C 199.976562 229.054688 200.28125 229.324219 200.28125 229.273438 C 200.28125 229.222656 200.242188 230.207031 200.230469 230.769531 C 200.21875 231.332031 200.28125 231.84375 200.628906 232.164062 C 200.972656 232.484375 201.535156 232.496094 201.804688 232.332031 C 202.074219 232.164062 202.316406 232.203125 202.316406 232.203125 C 202.316406 232.203125 202.585938 232.664062 202.675781 232.96875 C 202.761719 233.277344 202.714844 233.148438 202.855469 233.519531 C 202.992188 233.890625 203.941406 233.800781 204.144531 233.765625 C 204.351562 233.726562 205.09375 233.726562 205.296875 233.738281 C 205.5 233.75 205.335938 234.1875 205.296875 234.273438 C 205.257812 234.363281 205.027344 234.554688 205.132812 235.03125 C 205.234375 235.503906 205.679688 235.554688 206.21875 235.59375 C 206.753906 235.632812 207.109375 236.238281 207.417969 236.542969 C 207.722656 236.851562 208.203125 237.054688 208.644531 237.089844 C 209.085938 237.125 210.113281 236.578125 210.554688 235.726562 C 211 234.871094 211.917969 234.328125 211.917969 234.328125 C 213.351562 233.574219 214.070312 234.460938 214.855469 234.601562 C 215.636719 234.734375 215.605469 234.734375 216.96875 234.566406 C 218.332031 234.394531 220.039062 234.496094 221.472656 234.429688 C 222.90625 234.359375 224.472656 234.601562 224.746094 234.871094 C 225.019531 235.144531 225.15625 235.417969 230.921875 238.421875 C 236.6875 241.421875 238.359375 241.183594 240.816406 240.773438 C 243.273438 240.363281 243.511719 239.613281 245.148438 238.964844 C 246.785156 238.316406 249.550781 238.351562 250.8125 238.046875 C 252.074219 237.738281 254.667969 237.261719 255.347656 236.988281 C 256.03125 236.714844 256.953125 236.578125 257.363281 236.40625 C 257.773438 236.238281 258.113281 235.929688 258.113281 235.929688 L 258.316406 236.613281 L 253.8125 242.683594 C 253.8125 242.683594 249.71875 249.578125 249.277344 250.496094 C 248.832031 251.417969 246.308594 256.980469 245.695312 258.683594 C 245.078125 260.390625 243.785156 263.460938 243.171875 265.03125 C 242.554688 266.601562 243.339844 268.203125 243.613281 269.296875 C 243.886719 270.386719 245.25 273.457031 245.558594 274.480469 C 245.863281 275.503906 245.796875 276.253906 245.761719 278.097656 C 245.730469 279.9375 247.125 288.742188 248.082031 290.789062 C 249.039062 292.835938 249.070312 295.121094 249.242188 296.074219 C 249.414062 297.03125 249.449219 301.296875 249.277344 302.011719 C 249.105469 302.726562 248.152344 305.148438 247.808594 305.558594 C 247.46875 305.96875 245.421875 306.992188 244.976562 307.199219 C 244.535156 307.402344 243.578125 308.050781 243.339844 308.050781 C 243.101562 308.050781 242.929688 308.1875 242.351562 308.5625 C 241.769531 308.9375 241.328125 309.074219 240.578125 309.175781 C 239.828125 309.277344 239.417969 309.757812 238.804688 310.027344 C 238.1875 310.300781 236.890625 310.882812 236.210938 310.984375 C 235.527344 311.085938 234.777344 311.15625 234.777344 311.15625 C 233.855469 311.257812 233.617188 311.835938 233.617188 311.835938 C 232.695312 312.554688 233.378906 313.234375 233.378906 313.234375 C 233.992188 313.953125 234.574219 313.203125 234.574219 313.679688 C 234.574219 314.15625 235.699219 313.644531 235.628906 313.816406 C 235.5625 313.988281 236.277344 314.15625 236.6875 313.882812 C 237.097656 313.613281 236.960938 314.019531 237.472656 314.15625 C 237.984375 314.292969 239.042969 313.679688 239.007812 313.953125 C 238.972656 314.226562 238.972656 314.363281 239.691406 314.328125 C 240.40625 314.292969 240.78125 314.054688 241.53125 314.054688 C 242.28125 314.054688 242.726562 314.363281 244.058594 314.191406 C 245.386719 314.019531 250.300781 314.226562 251.628906 314.191406 C 252.960938 314.15625 256.476562 314.15625 256.679688 314.089844 C 256.882812 314.019531 258.351562 313.78125 258.863281 313.371094 C 259.375 312.960938 259.613281 311.941406 259.613281 311.222656 C 259.613281 310.507812 258.898438 309.003906 258.726562 308.527344 C 258.554688 308.050781 257.839844 304.980469 257.667969 304.128906 C 257.5 303.273438 257.429688 299.316406 257.429688 299.078125 C 257.429688 298.839844 257.566406 292.527344 257.601562 292.222656 C 257.636719 291.914062 258.589844 285.738281 258.589844 285.738281 C 259.375 281.578125 258.761719 277.808594 258.574219 276.238281 C 258.386719 274.667969 257.582031 271.203125 257.429688 270.675781 C 257.277344 270.148438 256.558594 268.136719 256.457031 267.691406 C 256.355469 267.25 256.339844 266.257812 256.425781 265.695312 C 256.507812 265.132812 257.242188 264.367188 257.414062 264.074219 C 257.582031 263.785156 259 262.148438 259.648438 261.515625 C 260.296875 260.886719 263.246094 258.226562 263.707031 257.796875 C 264.167969 257.371094 266.179688 255.410156 266.761719 254.710938 C 267.339844 254.011719 269.183594 251.367188 269.539062 250.652344 C 269.898438 249.933594 272.988281 246.027344 273.414062 245.449219 C 273.839844 244.867188 276.636719 241.882812 277.457031 241.097656 C 278.273438 240.3125 279.351562 239.085938 279.503906 238.726562 C 279.65625 238.371094 279.964844 238.113281 280.167969 237.910156 C 280.371094 237.703125 281.070312 236.40625 281.070312 236.40625 C 282.933594 232.382812 281.378906 228.238281 281.378906 228.238281 C 279.980469 224.195312 276.074219 222.113281 276.074219 222.113281 C 276.074219 222.113281 275.699219 221.652344 275.476562 221.582031 C 275.257812 221.515625 274.929688 221.550781 274.984375 221.53125 C 275.035156 221.515625 272.988281 220.082031 270.957031 218.734375 C 268.925781 217.386719 266.660156 216.550781 266.660156 216.550781 C 266.660156 216.550781 267.253906 216.347656 268.09375 215.921875 C 268.925781 215.496094 269.304688 215.511719 269.609375 215.375 C 269.917969 215.238281 270.753906 215.152344 271.042969 215.203125 C 271.332031 215.257812 271.707031 215.597656 272.40625 215.648438 C 273.105469 215.699219 273.363281 216.089844 273.6875 216.175781 C 274.011719 216.261719 274.660156 216.738281 275 216.671875 C 275.339844 216.601562 276.058594 216.261719 276.332031 216.125 C 276.601562 215.988281 277.371094 215.972656 277.609375 215.851562 C 277.847656 215.734375 278.003906 215.527344 278.257812 215.273438 C 278.511719 215.015625 279.09375 214.761719 279.332031 214.554688 C 279.570312 214.351562 279.554688 214.316406 279.417969 214.078125 C 279.28125 213.839844 278.703125 213.636719 278.703125 213.636719 C 278.703125 213.636719 279.621094 213.394531 279.878906 213.277344 C 280.132812 213.160156 280.457031 213.054688 280.664062 212.902344 C 280.867188 212.75 281.363281 212.425781 281.652344 212.304688 C 281.941406 212.183594 282.574219 211.929688 282.726562 211.828125 C 282.878906 211.726562 283.339844 211.519531 283.222656 211.078125 C 283.101562 210.632812 282.503906 210.445312 282.503906 210.445312 C 282.503906 210.445312 282.914062 210.222656 283.222656 210.035156 C 283.527344 209.847656 283.683594 209.609375 283.339844 209.113281 C 283 208.621094 282.199219 208.960938 282.199219 208.925781 C 282.199219 208.894531 282.402344 208.722656 282.148438 208.296875 C 281.890625 207.871094 281.3125 207.886719 280.816406 208.039062 C 280.320312 208.195312 279.691406 208.277344 278.921875 208.433594 C 278.15625 208.585938 278.171875 208.484375 277.882812 208.636719 C 277.59375 208.789062 276.6875 209.082031 276.449219 209.0625 C 276.210938 209.046875 276.3125 208.894531 276.570312 208.789062 C 276.824219 208.6875 277.097656 208.808594 277.335938 208.621094 C 277.574219 208.433594 277.8125 208.210938 277.8125 208.210938 C 277.8125 208.210938 278.34375 208.125 278.464844 208.074219 C 278.582031 208.023438 279.351562 207.546875 279.621094 207.273438 C 279.894531 207 279.503906 206.761719 279.332031 206.660156 C 279.160156 206.554688 278.496094 206.726562 277.730469 207 C 276.960938 207.273438 275.851562 207.578125 275.445312 207.714844 C 275.035156 207.851562 274.042969 207.851562 274.042969 207.851562 C 272.066406 207.953125 270.992188 208.722656 270.359375 209.132812 C 269.730469 209.542969 269.4375 209.949219 268.621094 210.480469 C 267.800781 211.007812 267.066406 211.058594 266.796875 211.179688 C 266.523438 211.296875 263.605469 212.03125 262.734375 212.253906 C 261.867188 212.476562 259.765625 212.679688 259.617188 212.78125 C 259.75 212.691406 262.363281 210.835938 262.769531 210.496094 C 263.195312 210.136719 265.550781 207.800781 266.0625 207.1875 C 266.574219 206.574219 267.835938 205.261719 268.074219 204.9375 C 268.3125 204.613281 270.871094 202.34375 271.878906 201.386719 C 272.882812 200.433594 274.914062 199.171875 275.714844 198.777344 C 276.515625 198.386719 277.097656 198.660156 277.457031 198.609375 C 277.8125 198.554688 278.324219 198.929688 278.480469 198.984375 C 278.632812 199.035156 279.28125 199.117188 279.484375 199.101562 C 279.691406 199.085938 280.613281 199.085938 280.867188 199.136719 C 281.125 199.1875 281.53125 199.425781 282.011719 199.304688 C 282.488281 199.1875 282.335938 199.070312 282.691406 198.761719 C 283.050781 198.453125 283.664062 197.890625 284.039062 197.566406 C 284.414062 197.242188 284.484375 197.191406 284.707031 197.125 C 284.925781 197.054688 285.0625 197.054688 285.269531 196.917969 C 285.472656 196.78125 285.832031 196.59375 286.019531 196.476562 C 286.207031 196.355469 286.597656 196.289062 286.820312 196.1875 C 287.042969 196.082031 287.605469 195.792969 287.691406 195.726562 C 287.777344 195.65625 287.742188 195.453125 287.742188 195.453125 C 287.570312 194.992188 286.957031 194.617188 286.597656 194.597656 C 286.242188 194.582031 286.257812 194.445312 286.257812 194.445312 C 286.257812 194.445312 287.46875 194.035156 287.792969 193.863281 C 288.117188 193.695312 288.867188 193.199219 289.039062 193.097656 C 289.207031 192.996094 290.046875 192.585938 290.265625 192.464844 C 290.488281 192.347656 291.257812 192.125 291.683594 191.871094 C 292.109375 191.613281 292.175781 191.136719 292.109375 190.878906 C 292.039062 190.625 291.699219 190.625 291.597656 190.605469 C 291.496094 190.589844 290.179688 190.710938 290.179688 190.710938 L 290.503906 190.539062 C 290.503906 190.539062 291.1875 190.421875 291.425781 190.335938 C 291.664062 190.25 292.007812 190.09375 292.175781 190.042969 C 292.347656 189.992188 292.554688 189.925781 292.792969 189.636719 C 293.03125 189.34375 293.097656 189.039062 292.945312 188.75 "/></g><g clip-rule="nonzero" clip-path="url(#15db44fbec)"><path style=" stroke:none;fill-rule:nonzero;fill:#231f20;fill-opacity:1;" d="M 229.796875 315.46875 L 310.1875 315.46875 L 310.1875 324.597656 L 229.796875 324.597656 Z M 229.796875 315.46875 "/></g><g style="fill:#000000;fill-opacity:1;"><g transform="translate(148.672551, 363.374971)"><path style="stroke:none" d="M 7.453125 0.203125 C 6.148438 0.203125 5.003906 -0.0078125 4.015625 -0.4375 C 3.035156 -0.875 2.28125 -1.484375 1.75 -2.265625 C 1.21875 -3.054688 0.953125 -3.976562 0.953125 -5.03125 L 0.953125 -5.453125 C 0.953125 -5.734375 1.09375 -5.875 1.375 -5.875 L 4 -5.875 C 4.28125 -5.875 4.421875 -5.765625 4.421875 -5.546875 L 4.421875 -5.203125 C 4.421875 -4.535156 4.722656 -3.972656 5.328125 -3.515625 C 5.941406 -3.054688 6.738281 -2.828125 7.71875 -2.828125 C 8.601562 -2.828125 9.257812 -3.015625 9.6875 -3.390625 C 10.113281 -3.765625 10.328125 -4.226562 10.328125 -4.78125 C 10.328125 -5.175781 10.191406 -5.507812 9.921875 -5.78125 C 9.660156 -6.0625 9.300781 -6.304688 8.84375 -6.515625 C 8.394531 -6.722656 7.671875 -7.007812 6.671875 -7.375 C 5.535156 -7.757812 4.582031 -8.148438 3.8125 -8.546875 C 3.050781 -8.953125 2.40625 -9.5 1.875 -10.1875 C 1.34375 -10.875 1.078125 -11.726562 1.078125 -12.75 C 1.078125 -13.75 1.332031 -14.625 1.84375 -15.375 C 2.363281 -16.125 3.085938 -16.695312 4.015625 -17.09375 C 4.941406 -17.5 5.992188 -17.703125 7.171875 -17.703125 C 8.441406 -17.703125 9.578125 -17.472656 10.578125 -17.015625 C 11.578125 -16.566406 12.351562 -15.9375 12.90625 -15.125 C 13.46875 -14.320312 13.75 -13.390625 13.75 -12.328125 L 13.75 -12.078125 C 13.75 -11.796875 13.609375 -11.65625 13.328125 -11.65625 L 10.703125 -11.65625 C 10.421875 -11.65625 10.28125 -11.738281 10.28125 -11.90625 L 10.28125 -12.15625 C 10.28125 -12.851562 9.988281 -13.445312 9.40625 -13.9375 C 8.832031 -14.425781 8.046875 -14.671875 7.046875 -14.671875 C 6.242188 -14.671875 5.625 -14.503906 5.1875 -14.171875 C 4.757812 -13.835938 4.546875 -13.378906 4.546875 -12.796875 C 4.546875 -12.378906 4.671875 -12.03125 4.921875 -11.75 C 5.171875 -11.46875 5.550781 -11.207031 6.0625 -10.96875 C 6.570312 -10.738281 7.359375 -10.441406 8.421875 -10.078125 C 9.585938 -9.640625 10.507812 -9.257812 11.1875 -8.9375 C 11.875 -8.613281 12.488281 -8.117188 13.03125 -7.453125 C 13.570312 -6.785156 13.84375 -5.925781 13.84375 -4.875 C 13.84375 -3.851562 13.582031 -2.957031 13.0625 -2.1875 C 12.539062 -1.425781 11.800781 -0.835938 10.84375 -0.421875 C 9.882812 -0.00390625 8.753906 0.203125 7.453125 0.203125 Z M 7.453125 0.203125 "/></g></g><g style="fill:#000000;fill-opacity:1;"><g transform="translate(165.295196, 363.374971)"><path style="stroke:none" d="M 5.34375 0 C 5.082031 0 4.925781 -0.125 4.875 -0.375 L 0.46875 -17.03125 C 0.457031 -17.0625 0.453125 -17.101562 0.453125 -17.15625 C 0.453125 -17.382812 0.582031 -17.5 0.84375 -17.5 L 3.703125 -17.5 C 3.953125 -17.5 4.101562 -17.375 4.15625 -17.125 L 6.5 -7.15625 C 6.519531 -7.082031 6.550781 -7.046875 6.59375 -7.046875 C 6.644531 -7.046875 6.679688 -7.082031 6.703125 -7.15625 L 8.953125 -17.125 C 9.003906 -17.375 9.15625 -17.5 9.40625 -17.5 L 12.21875 -17.5 C 12.488281 -17.5 12.648438 -17.375 12.703125 -17.125 L 15.15625 -7.15625 C 15.164062 -7.082031 15.191406 -7.046875 15.234375 -7.046875 C 15.273438 -7.046875 15.304688 -7.082031 15.328125 -7.15625 L 17.578125 -17.125 C 17.628906 -17.375 17.78125 -17.5 18.03125 -17.5 L 20.75 -17.5 C 20.894531 -17.5 21 -17.453125 21.0625 -17.359375 C 21.125 -17.265625 21.132812 -17.15625 21.09375 -17.03125 L 17.078125 -0.375 C 17.023438 -0.125 16.863281 0 16.59375 0 L 13.84375 0 C 13.582031 0 13.425781 -0.125 13.375 -0.375 L 10.875 -11 C 10.851562 -11.0625 10.816406 -11.09375 10.765625 -11.09375 C 10.722656 -11.09375 10.691406 -11.0625 10.671875 -11 L 8.34375 -0.375 C 8.300781 -0.125 8.15625 0 7.90625 0 Z M 5.34375 0 "/></g></g><g style="fill:#000000;fill-opacity:1;"><g transform="translate(188.691771, 363.374971)"><path style="stroke:none" d="M 1.953125 0 C 1.671875 0 1.53125 -0.140625 1.53125 -0.421875 L 1.53125 -17.078125 C 1.53125 -17.359375 1.671875 -17.5 1.953125 -17.5 L 4.625 -17.5 C 4.90625 -17.5 5.046875 -17.359375 5.046875 -17.078125 L 5.046875 -0.421875 C 5.046875 -0.140625 4.90625 0 4.625 0 Z M 1.953125 0 "/></g></g><g style="fill:#000000;fill-opacity:1;"><g transform="translate(197.090715, 363.374971)"><path style="stroke:none" d="M 1.96875 0 C 1.6875 0 1.546875 -0.140625 1.546875 -0.421875 L 1.546875 -17.078125 C 1.546875 -17.359375 1.6875 -17.5 1.96875 -17.5 L 4.65625 -17.5 C 4.863281 -17.5 5.03125 -17.40625 5.15625 -17.21875 L 8.78125 -11.375 C 8.8125 -11.320312 8.847656 -11.296875 8.890625 -11.296875 C 8.929688 -11.296875 8.957031 -11.320312 8.96875 -11.375 L 12.65625 -17.21875 C 12.769531 -17.40625 12.9375 -17.5 13.15625 -17.5 L 15.828125 -17.5 C 16.109375 -17.5 16.25 -17.359375 16.25 -17.078125 L 16.25 -0.421875 C 16.25 -0.140625 16.109375 0 15.828125 0 L 13.15625 0 C 12.863281 0 12.71875 -0.140625 12.71875 -0.421875 L 12.71875 -11.25 C 12.71875 -11.3125 12.695312 -11.351562 12.65625 -11.375 C 12.613281 -11.394531 12.578125 -11.367188 12.546875 -11.296875 L 10.03125 -7.171875 C 9.90625 -6.992188 9.738281 -6.90625 9.53125 -6.90625 L 8.25 -6.90625 C 8.03125 -6.90625 7.863281 -6.992188 7.75 -7.171875 L 5.25 -11.296875 C 5.21875 -11.367188 5.179688 -11.394531 5.140625 -11.375 C 5.097656 -11.351562 5.078125 -11.3125 5.078125 -11.25 L 5.078125 -0.421875 C 5.078125 -0.140625 4.9375 0 4.65625 0 Z M 1.96875 0 "/></g></g><g style="fill:#000000;fill-opacity:1;"><g transform="translate(216.687885, 363.374971)"><path style="stroke:none" d="M 1.96875 0 C 1.6875 0 1.546875 -0.140625 1.546875 -0.421875 L 1.546875 -17.078125 C 1.546875 -17.359375 1.6875 -17.5 1.96875 -17.5 L 4.65625 -17.5 C 4.863281 -17.5 5.03125 -17.40625 5.15625 -17.21875 L 8.78125 -11.375 C 8.8125 -11.320312 8.847656 -11.296875 8.890625 -11.296875 C 8.929688 -11.296875 8.957031 -11.320312 8.96875 -11.375 L 12.65625 -17.21875 C 12.769531 -17.40625 12.9375 -17.5 13.15625 -17.5 L 15.828125 -17.5 C 16.109375 -17.5 16.25 -17.359375 16.25 -17.078125 L 16.25 -0.421875 C 16.25 -0.140625 16.109375 0 15.828125 0 L 13.15625 0 C 12.863281 0 12.71875 -0.140625 12.71875 -0.421875 L 12.71875 -11.25 C 12.71875 -11.3125 12.695312 -11.351562 12.65625 -11.375 C 12.613281 -11.394531 12.578125 -11.367188 12.546875 -11.296875 L 10.03125 -7.171875 C 9.90625 -6.992188 9.738281 -6.90625 9.53125 -6.90625 L 8.25 -6.90625 C 8.03125 -6.90625 7.863281 -6.992188 7.75 -7.171875 L 5.25 -11.296875 C 5.21875 -11.367188 5.179688 -11.394531 5.140625 -11.375 C 5.097656 -11.351562 5.078125 -11.3125 5.078125 -11.25 L 5.078125 -0.421875 C 5.078125 -0.140625 4.9375 0 4.65625 0 Z M 1.96875 0 "/></g></g><g style="fill:#000000;fill-opacity:1;"><g transform="translate(236.285055, 363.374971)"><path style="stroke:none" d="M 1.953125 0 C 1.671875 0 1.53125 -0.140625 1.53125 -0.421875 L 1.53125 -17.078125 C 1.53125 -17.359375 1.671875 -17.5 1.953125 -17.5 L 4.625 -17.5 C 4.90625 -17.5 5.046875 -17.359375 5.046875 -17.078125 L 5.046875 -0.421875 C 5.046875 -0.140625 4.90625 0 4.625 0 Z M 1.953125 0 "/></g></g><g style="fill:#000000;fill-opacity:1;"><g transform="translate(244.683999, 363.374971)"><path style="stroke:none" d="M 1.953125 0 C 1.671875 0 1.53125 -0.140625 1.53125 -0.421875 L 1.53125 -17.078125 C 1.53125 -17.359375 1.671875 -17.5 1.953125 -17.5 L 4.53125 -17.5 C 4.738281 -17.5 4.90625 -17.40625 5.03125 -17.21875 L 11.28125 -6.828125 C 11.3125 -6.753906 11.347656 -6.726562 11.390625 -6.75 C 11.429688 -6.769531 11.453125 -6.8125 11.453125 -6.875 L 11.453125 -17.078125 C 11.453125 -17.359375 11.59375 -17.5 11.875 -17.5 L 14.5 -17.5 C 14.78125 -17.5 14.921875 -17.359375 14.921875 -17.078125 L 14.921875 -0.421875 C 14.921875 -0.140625 14.78125 0 14.5 0 L 11.953125 0 C 11.753906 0 11.585938 -0.0976562 11.453125 -0.296875 L 5.171875 -10.796875 C 5.140625 -10.867188 5.101562 -10.894531 5.0625 -10.875 C 5.019531 -10.851562 5 -10.8125 5 -10.75 L 5.03125 -0.421875 C 5.03125 -0.140625 4.882812 0 4.59375 0 Z M 1.953125 0 "/></g></g><g style="fill:#000000;fill-opacity:1;"><g transform="translate(262.956378, 363.374971)"><path style="stroke:none" d="M 7.671875 0.203125 C 6.390625 0.203125 5.253906 -0.0507812 4.265625 -0.5625 C 3.285156 -1.082031 2.523438 -1.804688 1.984375 -2.734375 C 1.441406 -3.660156 1.171875 -4.734375 1.171875 -5.953125 L 1.171875 -11.546875 C 1.171875 -12.765625 1.441406 -13.835938 1.984375 -14.765625 C 2.523438 -15.703125 3.285156 -16.425781 4.265625 -16.9375 C 5.253906 -17.445312 6.390625 -17.703125 7.671875 -17.703125 C 8.941406 -17.703125 10.0625 -17.453125 11.03125 -16.953125 C 12.007812 -16.453125 12.769531 -15.769531 13.3125 -14.90625 C 13.851562 -14.050781 14.125 -13.097656 14.125 -12.046875 L 14.125 -12 C 14.125 -11.71875 13.984375 -11.578125 13.703125 -11.578125 L 11.03125 -11.578125 C 10.894531 -11.578125 10.785156 -11.597656 10.703125 -11.640625 C 10.628906 -11.679688 10.59375 -11.726562 10.59375 -11.78125 L 10.59375 -11.953125 C 10.59375 -12.710938 10.328125 -13.351562 9.796875 -13.875 C 9.265625 -14.40625 8.554688 -14.671875 7.671875 -14.671875 C 6.773438 -14.671875 6.054688 -14.390625 5.515625 -13.828125 C 4.972656 -13.273438 4.703125 -12.550781 4.703125 -11.65625 L 4.703125 -5.84375 C 4.703125 -4.945312 4.992188 -4.21875 5.578125 -3.65625 C 6.160156 -3.101562 6.898438 -2.828125 7.796875 -2.828125 C 8.660156 -2.828125 9.351562 -3.054688 9.875 -3.515625 C 10.394531 -3.972656 10.65625 -4.609375 10.65625 -5.421875 L 10.65625 -6.53125 C 10.65625 -6.625 10.601562 -6.671875 10.5 -6.671875 L 7.84375 -6.671875 C 7.5625 -6.671875 7.421875 -6.8125 7.421875 -7.09375 L 7.421875 -9.15625 C 7.421875 -9.4375 7.5625 -9.578125 7.84375 -9.578125 L 13.703125 -9.578125 C 13.984375 -9.578125 14.125 -9.4375 14.125 -9.15625 L 14.125 -5.96875 C 14.125 -4.707031 13.859375 -3.609375 13.328125 -2.671875 C 12.796875 -1.742188 12.039062 -1.03125 11.0625 -0.53125 C 10.082031 -0.0390625 8.953125 0.203125 7.671875 0.203125 Z M 7.671875 0.203125 "/></g></g><g style="fill:#000000;fill-opacity:1;"><g transform="translate(279.957701, 363.374971)"><path style="stroke:none" d=""/></g></g></g></svg>