<svg xmlns="http://www.w3.org/2000/svg" xmlns:xlink="http://www.w3.org/1999/xlink" width="400" zoomAndPan="magnify" viewBox="0 0 300 383.999986" height="512" preserveAspectRatio="xMidYMid meet" version="1.2"><defs/><g id="85680b8ce0"><path style=" stroke:none;fill-rule:evenodd;fill:#ff3131;fill-opacity:1;" d="M 173.046875 32.144531 C 176.78125 25.660156 174.914062 18.386719 167.347656 10.375 C 166.019531 6.59375 161.546875 4.332031 153.929688 3.496094 C 143.90625 0.84375 134.71875 5.414062 126.460938 17.207031 C 122.824219 21.824219 121.890625 30.964844 123.613281 44.726562 C 122.726562 45.660156 120.910156 46.691406 118.109375 47.769531 L 114.914062 47.378906 C 109.65625 45.511719 102.578125 47.96875 93.636719 54.75 C 82.136719 60.890625 74.128906 71.359375 69.507812 86.101562 C 66.855469 90.375 64.9375 94.601562 63.710938 98.730469 L 63.660156 98.925781 L 63.613281 99.121094 L 63.5625 99.320312 L 63.511719 99.515625 C 63.023438 101.382812 62.679688 103.152344 62.480469 104.96875 C 62.136719 107.671875 61.988281 110.671875 62.039062 113.964844 C 57.519531 127.574219 48.425781 142.121094 34.667969 157.597656 C 30 178.976562 32.457031 196.273438 42.039062 209.539062 C 45.675781 218.828125 52.75 231.507812 63.316406 247.574219 C 63.316406 247.574219 61.84375 251.554688 58.945312 259.464844 C 52.605469 270.03125 49.3125 280.007812 49.066406 289.492188 C 49.066406 289.492188 48.671875 298.730469 47.886719 317.304688 C 49.605469 332.441406 49.015625 342.511719 46.019531 347.425781 C 41.449219 350.128906 39.335938 357.550781 39.679688 369.738281 C 37.960938 375.4375 39.238281 379.171875 43.511719 380.941406 C 50.34375 383.152344 56.730469 381.53125 62.777344 376.074219 C 64.644531 371.949219 68.28125 369.589844 73.683594 369.050781 C 77.46875 370.226562 82.234375 368.558594 88.082031 364.035156 C 98.5 349.394531 95.796875 342.5625 79.878906 343.59375 C 77.125 342.167969 74.570312 341.234375 72.113281 340.84375 C 69.753906 327.671875 72.457031 309.785156 80.222656 287.132812 C 84.644531 279.859375 88.574219 271.015625 91.964844 260.5 C 96.09375 251.605469 99.140625 242.957031 101.007812 234.503906 C 105.824219 240.695312 114.667969 247.378906 127.640625 254.453125 C 132.605469 257.007812 133.785156 259.074219 131.179688 260.644531 C 122.234375 264.871094 116.386719 277.109375 113.585938 297.355469 C 111.375 311.40625 107.59375 321.921875 102.1875 328.851562 C 98.453125 327.132812 96.488281 330.226562 96.488281 334.550781 C 94.078125 348.65625 96.191406 355.832031 102.824219 356.175781 C 112.996094 354.257812 120.074219 353.960938 123.957031 355.339844 C 140.613281 356.125 150.984375 355.042969 154.964844 352.144531 C 168.082031 348.164062 170.050781 343.546875 160.8125 338.386719 C 148.082031 336.960938 136.976562 332.785156 127.59375 325.902344 C 130.050781 317.402344 141.695312 297.941406 162.480469 267.527344 C 166.804688 260.695312 167.492188 252.683594 164.496094 243.546875 C 164.496094 243.546875 155.257812 228.113281 136.832031 197.15625 C 130.882812 192.09375 127.789062 187.082031 127.492188 182.167969 C 127.886719 181.285156 127.9375 180.300781 127.640625 179.222656 C 127.199219 177.648438 126.019531 175.878906 124.101562 173.863281 C 122.480469 171.703125 123.070312 169.933594 125.773438 168.507812 C 128.082031 166.984375 127.738281 164.773438 124.792969 161.972656 C 124.300781 159.613281 124.742188 157.597656 126.117188 155.929688 C 126.363281 150.769531 127.347656 147.132812 128.96875 145.070312 C 130.738281 134.0625 133.683594 126.789062 137.863281 123.300781 L 142.578125 121.433594 C 143.023438 122.070312 143.808594 122.660156 144.890625 123.101562 C 145.035156 126.394531 146.757812 127.378906 149.902344 126.101562 C 150.394531 128.066406 152.0625 128.261719 154.964844 126.789062 C 155.699219 130.867188 157.273438 130.570312 159.632812 125.953125 C 160.074219 125.167969 160.710938 124.675781 161.546875 124.527344 C 162.234375 128.066406 163.710938 130.867188 165.921875 132.929688 C 166.019531 133.027344 166.117188 133.128906 166.214844 133.175781 C 170.195312 136.617188 176.488281 137.84375 185.085938 136.863281 C 197.46875 134.0625 204.644531 127.527344 206.558594 117.253906 C 205.578125 108.949219 198.992188 103.300781 186.757812 100.300781 C 175.503906 97.15625 165.726562 99.121094 157.371094 106.148438 C 156.339844 106.003906 155.207031 105.902344 153.980469 105.902344 C 158.894531 98.53125 161.253906 92.683594 161.15625 88.410156 C 161.597656 87.722656 162.039062 86.984375 162.480469 86.296875 C 163.757812 88.851562 166.167969 89.738281 169.707031 88.949219 C 172.851562 92.980469 176.488281 94.40625 180.761719 93.128906 C 188.917969 94.601562 200.222656 98.1875 214.570312 103.839844 C 218.355469 103.203125 220.710938 104.332031 221.644531 107.179688 C 226.117188 110.816406 232.0625 112.046875 239.386719 110.867188 C 241.5 110.128906 244.691406 109.882812 249.117188 110.03125 C 251.03125 109.835938 253.195312 110.671875 255.652344 112.539062 C 258.597656 113.324219 259.335938 112.636719 257.8125 110.523438 C 255.75 108.703125 253.636719 107.769531 251.425781 107.671875 C 250.394531 107.132812 250.34375 106.640625 251.277344 106.199219 C 254.570312 105.804688 257.519531 106.640625 260.171875 108.703125 C 262.335938 109.292969 262.921875 108.359375 261.84375 106.003906 C 260.074219 103.839844 257.765625 102.613281 254.816406 102.316406 C 254.324219 101.53125 254.375 100.644531 254.964844 99.664062 C 259.679688 99.320312 263.90625 100.253906 267.542969 102.511719 C 269.804688 102.710938 270 102.023438 268.183594 100.300781 C 264.152344 96.320312 259.335938 94.550781 253.785156 94.945312 C 247.445312 95.191406 244.25 95.289062 244.25 95.289062 C 244.398438 92.734375 243.023438 91.652344 240.222656 91.949219 C 234.914062 90.179688 230.589844 90.964844 227.148438 94.308594 C 223.511719 96.125 219.632812 94.996094 215.601562 90.769531 C 202.136719 78.828125 188.476562 71.554688 174.570312 69 C 176.191406 61.777344 174.324219 56.8125 169.066406 54.0625 C 169.707031 51.652344 170.195312 49.097656 170.539062 46.394531 C 172.996094 44.871094 173.832031 40.105469 173.046875 32.144531 Z M 231.574219 143.789062 C 237.910156 143.789062 243.070312 148.949219 243.070312 155.289062 C 243.070312 161.679688 237.910156 166.835938 231.574219 166.835938 C 225.183594 166.835938 220.023438 161.679688 220.023438 155.289062 C 220.023438 148.949219 225.183594 143.789062 231.574219 143.789062 Z M 231.574219 143.789062 "/><g style="fill:#000000;fill-opacity:1;"><g transform="translate(93.938569, 361.874971)"><path style="stroke:none" d="M 13.46875 -17.5 C 13.757812 -17.5 13.90625 -17.359375 13.90625 -17.078125 L 13.90625 -14.875 C 13.90625 -14.59375 13.757812 -14.453125 13.46875 -14.453125 L 9.15625 -14.453125 C 9.050781 -14.453125 9 -14.398438 9 -14.296875 L 9 -0.421875 C 9 -0.140625 8.859375 0 8.578125 0 L 5.90625 0 C 5.613281 0 5.46875 -0.140625 5.46875 -0.421875 L 5.46875 -14.296875 C 5.46875 -14.398438 5.421875 -14.453125 5.328125 -14.453125 L 1.125 -14.453125 C 0.84375 -14.453125 0.703125 -14.59375 0.703125 -14.875 L 0.703125 -17.078125 C 0.703125 -17.359375 0.84375 -17.5 1.125 -17.5 Z M 13.46875 -17.5 "/></g></g><g style="fill:#000000;fill-opacity:1;"><g transform="translate(110.386245, 361.874971)"><path style="stroke:none" d="M 12.78125 0 C 12.539062 0 12.378906 -0.113281 12.296875 -0.34375 L 11.59375 -2.671875 C 11.582031 -2.753906 11.535156 -2.796875 11.453125 -2.796875 L 5.328125 -2.796875 C 5.242188 -2.796875 5.191406 -2.753906 5.171875 -2.671875 L 4.46875 -0.34375 C 4.382812 -0.113281 4.226562 0 4 0 L 1.09375 0 C 0.945312 0 0.835938 -0.046875 0.765625 -0.140625 C 0.703125 -0.234375 0.695312 -0.34375 0.75 -0.46875 L 6.078125 -17.15625 C 6.160156 -17.382812 6.316406 -17.5 6.546875 -17.5 L 10.21875 -17.5 C 10.457031 -17.5 10.617188 -17.382812 10.703125 -17.15625 L 16.03125 -0.46875 C 16.039062 -0.4375 16.046875 -0.390625 16.046875 -0.328125 C 16.046875 -0.222656 16.007812 -0.140625 15.9375 -0.078125 C 15.875 -0.0234375 15.785156 0 15.671875 0 Z M 6.046875 -5.703125 C 6.035156 -5.585938 6.078125 -5.53125 6.171875 -5.53125 L 10.59375 -5.53125 C 10.695312 -5.53125 10.738281 -5.585938 10.71875 -5.703125 L 8.46875 -13.328125 C 8.457031 -13.390625 8.429688 -13.421875 8.390625 -13.421875 C 8.347656 -13.421875 8.3125 -13.390625 8.28125 -13.328125 Z M 6.046875 -5.703125 "/></g></g><g style="fill:#000000;fill-opacity:1;"><g transform="translate(128.98358, 361.874971)"><path style="stroke:none" d="M 11.921875 -9.15625 C 11.867188 -9.132812 11.84375 -9.101562 11.84375 -9.0625 C 11.84375 -9.019531 11.867188 -8.984375 11.921875 -8.953125 C 13.492188 -8.171875 14.28125 -6.820312 14.28125 -4.90625 C 14.28125 -3.28125 13.726562 -2.054688 12.625 -1.234375 C 11.519531 -0.410156 10.078125 0 8.296875 0 L 1.953125 0 C 1.671875 0 1.53125 -0.140625 1.53125 -0.421875 L 1.53125 -17.078125 C 1.53125 -17.359375 1.671875 -17.5 1.953125 -17.5 L 8.09375 -17.5 C 12.050781 -17.5 14.03125 -15.898438 14.03125 -12.703125 C 14.03125 -11.015625 13.328125 -9.832031 11.921875 -9.15625 Z M 5.203125 -14.46875 C 5.097656 -14.46875 5.046875 -14.421875 5.046875 -14.328125 L 5.046875 -10.46875 C 5.046875 -10.375 5.097656 -10.328125 5.203125 -10.328125 L 8.09375 -10.328125 C 8.882812 -10.328125 9.492188 -10.507812 9.921875 -10.875 C 10.359375 -11.238281 10.578125 -11.738281 10.578125 -12.375 C 10.578125 -13.019531 10.359375 -13.53125 9.921875 -13.90625 C 9.492188 -14.28125 8.882812 -14.46875 8.09375 -14.46875 Z M 8.296875 -3.046875 C 9.066406 -3.046875 9.664062 -3.238281 10.09375 -3.625 C 10.53125 -4.019531 10.75 -4.5625 10.75 -5.25 C 10.75 -5.9375 10.53125 -6.472656 10.09375 -6.859375 C 9.664062 -7.253906 9.0625 -7.453125 8.28125 -7.453125 L 5.203125 -7.453125 C 5.097656 -7.453125 5.046875 -7.398438 5.046875 -7.296875 L 5.046875 -3.203125 C 5.046875 -3.097656 5.097656 -3.046875 5.203125 -3.046875 Z M 8.296875 -3.046875 "/></g></g><g style="fill:#000000;fill-opacity:1;"><g transform="translate(146.306111, 361.874971)"><path style="stroke:none" d="M 1.953125 0 C 1.671875 0 1.53125 -0.140625 1.53125 -0.421875 L 1.53125 -17.078125 C 1.53125 -17.359375 1.671875 -17.5 1.953125 -17.5 L 4.625 -17.5 C 4.90625 -17.5 5.046875 -17.359375 5.046875 -17.078125 L 5.046875 -3.171875 C 5.046875 -3.078125 5.097656 -3.03125 5.203125 -3.03125 L 13.21875 -3.03125 C 13.507812 -3.03125 13.65625 -2.882812 13.65625 -2.59375 L 13.65625 -0.421875 C 13.65625 -0.140625 13.507812 0 13.21875 0 Z M 1.953125 0 "/></g></g><g style="fill:#000000;fill-opacity:1;"><g transform="translate(162.428832, 361.874971)"><path style="stroke:none" d="M 13.671875 -14.90625 C 13.671875 -14.613281 13.53125 -14.46875 13.25 -14.46875 L 5.203125 -14.46875 C 5.097656 -14.46875 5.046875 -14.421875 5.046875 -14.328125 L 5.046875 -10.5 C 5.046875 -10.394531 5.097656 -10.34375 5.203125 -10.34375 L 10.421875 -10.34375 C 10.703125 -10.34375 10.84375 -10.203125 10.84375 -9.921875 L 10.84375 -7.75 C 10.84375 -7.46875 10.703125 -7.328125 10.421875 -7.328125 L 5.203125 -7.328125 C 5.097656 -7.328125 5.046875 -7.273438 5.046875 -7.171875 L 5.046875 -3.171875 C 5.046875 -3.078125 5.097656 -3.03125 5.203125 -3.03125 L 13.25 -3.03125 C 13.53125 -3.03125 13.671875 -2.882812 13.671875 -2.59375 L 13.671875 -0.421875 C 13.671875 -0.140625 13.53125 0 13.25 0 L 1.953125 0 C 1.671875 0 1.53125 -0.140625 1.53125 -0.421875 L 1.53125 -17.078125 C 1.53125 -17.359375 1.671875 -17.5 1.953125 -17.5 L 13.25 -17.5 C 13.53125 -17.5 13.671875 -17.359375 13.671875 -17.078125 Z M 13.671875 -14.90625 "/></g></g><g style="fill:#000000;fill-opacity:1;"><g transform="translate(178.851515, 361.874971)"><path style="stroke:none" d=""/></g></g><g style="fill:#000000;fill-opacity:1;"><g transform="translate(185.675718, 361.874971)"><path style="stroke:none" d="M 13.46875 -17.5 C 13.757812 -17.5 13.90625 -17.359375 13.90625 -17.078125 L 13.90625 -14.875 C 13.90625 -14.59375 13.757812 -14.453125 13.46875 -14.453125 L 9.15625 -14.453125 C 9.050781 -14.453125 9 -14.398438 9 -14.296875 L 9 -0.421875 C 9 -0.140625 8.859375 0 8.578125 0 L 5.90625 0 C 5.613281 0 5.46875 -0.140625 5.46875 -0.421875 L 5.46875 -14.296875 C 5.46875 -14.398438 5.421875 -14.453125 5.328125 -14.453125 L 1.125 -14.453125 C 0.84375 -14.453125 0.703125 -14.59375 0.703125 -14.875 L 0.703125 -17.078125 C 0.703125 -17.359375 0.84375 -17.5 1.125 -17.5 Z M 13.46875 -17.5 "/></g></g><g style="fill:#000000;fill-opacity:1;"><g transform="translate(202.123395, 361.874971)"><path style="stroke:none" d="M 13.671875 -14.90625 C 13.671875 -14.613281 13.53125 -14.46875 13.25 -14.46875 L 5.203125 -14.46875 C 5.097656 -14.46875 5.046875 -14.421875 5.046875 -14.328125 L 5.046875 -10.5 C 5.046875 -10.394531 5.097656 -10.34375 5.203125 -10.34375 L 10.421875 -10.34375 C 10.703125 -10.34375 10.84375 -10.203125 10.84375 -9.921875 L 10.84375 -7.75 C 10.84375 -7.46875 10.703125 -7.328125 10.421875 -7.328125 L 5.203125 -7.328125 C 5.097656 -7.328125 5.046875 -7.273438 5.046875 -7.171875 L 5.046875 -3.171875 C 5.046875 -3.078125 5.097656 -3.03125 5.203125 -3.03125 L 13.25 -3.03125 C 13.53125 -3.03125 13.671875 -2.882812 13.671875 -2.59375 L 13.671875 -0.421875 C 13.671875 -0.140625 13.53125 0 13.25 0 L 1.953125 0 C 1.671875 0 1.53125 -0.140625 1.53125 -0.421875 L 1.53125 -17.078125 C 1.53125 -17.359375 1.671875 -17.5 1.953125 -17.5 L 13.25 -17.5 C 13.53125 -17.5 13.671875 -17.359375 13.671875 -17.078125 Z M 13.671875 -14.90625 "/></g></g><g style="fill:#000000;fill-opacity:1;"><g transform="translate(218.546077, 361.874971)"><path style="stroke:none" d="M 1.953125 0 C 1.671875 0 1.53125 -0.140625 1.53125 -0.421875 L 1.53125 -17.078125 C 1.53125 -17.359375 1.671875 -17.5 1.953125 -17.5 L 4.53125 -17.5 C 4.738281 -17.5 4.90625 -17.40625 5.03125 -17.21875 L 11.28125 -6.828125 C 11.3125 -6.753906 11.347656 -6.726562 11.390625 -6.75 C 11.429688 -6.769531 11.453125 -6.8125 11.453125 -6.875 L 11.453125 -17.078125 C 11.453125 -17.359375 11.59375 -17.5 11.875 -17.5 L 14.5 -17.5 C 14.78125 -17.5 14.921875 -17.359375 14.921875 -17.078125 L 14.921875 -0.421875 C 14.921875 -0.140625 14.78125 0 14.5 0 L 11.953125 0 C 11.753906 0 11.585938 -0.0976562 11.453125 -0.296875 L 5.171875 -10.796875 C 5.140625 -10.867188 5.101562 -10.894531 5.0625 -10.875 C 5.019531 -10.851562 5 -10.8125 5 -10.75 L 5.03125 -0.421875 C 5.03125 -0.140625 4.882812 0 4.59375 0 Z M 1.953125 0 "/></g></g><g style="fill:#000000;fill-opacity:1;"><g transform="translate(236.818456, 361.874971)"><path style="stroke:none" d="M 1.953125 0 C 1.671875 0 1.53125 -0.140625 1.53125 -0.421875 L 1.53125 -17.078125 C 1.53125 -17.359375 1.671875 -17.5 1.953125 -17.5 L 4.53125 -17.5 C 4.738281 -17.5 4.90625 -17.40625 5.03125 -17.21875 L 11.28125 -6.828125 C 11.3125 -6.753906 11.347656 -6.726562 11.390625 -6.75 C 11.429688 -6.769531 11.453125 -6.8125 11.453125 -6.875 L 11.453125 -17.078125 C 11.453125 -17.359375 11.59375 -17.5 11.875 -17.5 L 14.5 -17.5 C 14.78125 -17.5 14.921875 -17.359375 14.921875 -17.078125 L 14.921875 -0.421875 C 14.921875 -0.140625 14.78125 0 14.5 0 L 11.953125 0 C 11.753906 0 11.585938 -0.0976562 11.453125 -0.296875 L 5.171875 -10.796875 C 5.140625 -10.867188 5.101562 -10.894531 5.0625 -10.875 C 5.019531 -10.851562 5 -10.8125 5 -10.75 L 5.03125 -0.421875 C 5.03125 -0.140625 4.882812 0 4.59375 0 Z M 1.953125 0 "/></g></g><g style="fill:#000000;fill-opacity:1;"><g transform="translate(255.090835, 361.874971)"><path style="stroke:none" d="M 1.953125 0 C 1.671875 0 1.53125 -0.140625 1.53125 -0.421875 L 1.53125 -17.078125 C 1.53125 -17.359375 1.671875 -17.5 1.953125 -17.5 L 4.625 -17.5 C 4.90625 -17.5 5.046875 -17.359375 5.046875 -17.078125 L 5.046875 -0.421875 C 5.046875 -0.140625 4.90625 0 4.625 0 Z M 1.953125 0 "/></g></g><g style="fill:#000000;fill-opacity:1;"><g transform="translate(263.489779, 361.874971)"><path style="stroke:none" d="M 7.453125 0.203125 C 6.148438 0.203125 5.003906 -0.0078125 4.015625 -0.4375 C 3.035156 -0.875 2.28125 -1.484375 1.75 -2.265625 C 1.21875 -3.054688 0.953125 -3.976562 0.953125 -5.03125 L 0.953125 -5.453125 C 0.953125 -5.734375 1.09375 -5.875 1.375 -5.875 L 4 -5.875 C 4.28125 -5.875 4.421875 -5.765625 4.421875 -5.546875 L 4.421875 -5.203125 C 4.421875 -4.535156 4.722656 -3.972656 5.328125 -3.515625 C 5.941406 -3.054688 6.738281 -2.828125 7.71875 -2.828125 C 8.601562 -2.828125 9.257812 -3.015625 9.6875 -3.390625 C 10.113281 -3.765625 10.328125 -4.226562 10.328125 -4.78125 C 10.328125 -5.175781 10.191406 -5.507812 9.921875 -5.78125 C 9.660156 -6.0625 9.300781 -6.304688 8.84375 -6.515625 C 8.394531 -6.722656 7.671875 -7.007812 6.671875 -7.375 C 5.535156 -7.757812 4.582031 -8.148438 3.8125 -8.546875 C 3.050781 -8.953125 2.40625 -9.5 1.875 -10.1875 C 1.34375 -10.875 1.078125 -11.726562 1.078125 -12.75 C 1.078125 -13.75 1.332031 -14.625 1.84375 -15.375 C 2.363281 -16.125 3.085938 -16.695312 4.015625 -17.09375 C 4.941406 -17.5 5.992188 -17.703125 7.171875 -17.703125 C 8.441406 -17.703125 9.578125 -17.472656 10.578125 -17.015625 C 11.578125 -16.566406 12.351562 -15.9375 12.90625 -15.125 C 13.46875 -14.320312 13.75 -13.390625 13.75 -12.328125 L 13.75 -12.078125 C 13.75 -11.796875 13.609375 -11.65625 13.328125 -11.65625 L 10.703125 -11.65625 C 10.421875 -11.65625 10.28125 -11.738281 10.28125 -11.90625 L 10.28125 -12.15625 C 10.28125 -12.851562 9.988281 -13.445312 9.40625 -13.9375 C 8.832031 -14.425781 8.046875 -14.671875 7.046875 -14.671875 C 6.242188 -14.671875 5.625 -14.503906 5.1875 -14.171875 C 4.757812 -13.835938 4.546875 -13.378906 4.546875 -12.796875 C 4.546875 -12.378906 4.671875 -12.03125 4.921875 -11.75 C 5.171875 -11.46875 5.550781 -11.207031 6.0625 -10.96875 C 6.570312 -10.738281 7.359375 -10.441406 8.421875 -10.078125 C 9.585938 -9.640625 10.507812 -9.257812 11.1875 -8.9375 C 11.875 -8.613281 12.488281 -8.117188 13.03125 -7.453125 C 13.570312 -6.785156 13.84375 -5.925781 13.84375 -4.875 C 13.84375 -3.851562 13.582031 -2.957031 13.0625 -2.1875 C 12.539062 -1.425781 11.800781 -0.835938 10.84375 -0.421875 C 9.882812 -0.00390625 8.753906 0.203125 7.453125 0.203125 Z M 7.453125 0.203125 "/></g></g><g style="fill:#000000;fill-opacity:1;"><g transform="translate(280.114339, 361.874971)"><path style="stroke:none" d=""/></g></g></g></svg>