<svg xmlns="http://www.w3.org/2000/svg" xmlns:xlink="http://www.w3.org/1999/xlink" width="400" zoomAndPan="magnify" viewBox="0 0 300 383.999986" height="512" preserveAspectRatio="xMidYMid meet" version="1.2"><defs><clipPath id="547f1356f9"><path d="M 8.042969 5.25 L 278.792969 5.25 L 278.792969 376 L 8.042969 376 Z M 8.042969 5.25 "/></clipPath></defs><g id="72311372b4"><g clip-rule="nonzero" clip-path="url(#547f1356f9)"><path style=" stroke:none;fill-rule:nonzero;fill:#00bf63;fill-opacity:1;" d="M 8.375 350.375 C 8.636719 347.027344 9.425781 343.757812 10.515625 340.597656 C 12.097656 336.085938 12.324219 332.925781 12.324219 332.925781 C 13.300781 323.332031 17.023438 312.5 19.316406 306.632812 C 20.144531 304.488281 21.125 302.382812 22.140625 300.277344 C 29.585938 284.820312 28.609375 264.695312 28.609375 264.695312 C 28.609375 264.695312 26.953125 266.691406 26.277344 265.863281 C 25.5625 265.035156 25.222656 264.808594 26.390625 261.046875 C 27.554688 257.324219 26.050781 257.324219 26.050781 257.324219 C 23.265625 255.21875 26.839844 251.832031 26.839844 251.832031 C 25.449219 250.066406 27.441406 247.507812 27.441406 247.507812 C 25.109375 246.230469 26.425781 242.957031 26.425781 242.957031 C 27.480469 240.136719 31.769531 235.320312 31.769531 235.320312 C 32.558594 228.550781 34.476562 226.371094 34.476562 226.371094 C 35.980469 220.578125 33.761719 215.761719 33.761719 215.761719 C 36.128906 212.152344 38.574219 215.761719 38.574219 215.761719 C 39.367188 214.445312 40.683594 215.238281 40.683594 215.238281 C 41.09375 214.144531 41.773438 211.402344 42.410156 208.769531 C 43.464844 204.292969 44.894531 199.929688 46.699219 195.714844 C 51.890625 183.605469 54.9375 179.957031 54.9375 179.957031 C 54.9375 179.957031 66.859375 172.585938 79.683594 171.34375 C 92.511719 170.101562 100.558594 166.417969 100.558594 166.417969 C 103.71875 165.550781 104.246094 163.445312 104.246094 163.445312 C 105.300781 157.992188 104.433594 153.101562 104.433594 153.101562 C 101.125 154.117188 96.347656 152.765625 92.925781 151.410156 C 90.027344 150.28125 87.394531 148.511719 85.289062 146.183594 C 84.273438 145.054688 83.183594 143.738281 82.316406 142.382812 C 79.875 138.507812 80.023438 132.714844 80.023438 132.714844 C 80.023438 132.714844 80.023438 132.714844 73.515625 132.191406 C 67.011719 131.664062 67.386719 127.789062 67.386719 127.789062 C 67.386719 123.914062 74.042969 123.238281 74.042969 123.238281 C 76.863281 118.835938 82.808594 118.835938 82.808594 118.835938 C 86.15625 102.703125 101.574219 99.167969 105.789062 99.695312 C 110 100.21875 114.023438 102.851562 114.023438 102.851562 L 113.835938 101.273438 C 109.8125 91.984375 107.707031 81.453125 107.707031 81.453125 C 107.707031 81.453125 106.125 68.476562 103.679688 60.914062 C 101.839844 55.234375 98.90625 48.050781 97.550781 44.855469 C 97.097656 43.765625 96.421875 42.75 95.632812 41.882812 L 95.144531 41.394531 C 94.316406 40.53125 93.601562 39.589844 92.925781 38.648438 C 90.214844 34.773438 88.597656 37.371094 88.597656 37.371094 C 86.605469 38.761719 84.726562 37.484375 84.726562 37.484375 C 83.445312 28.34375 85.664062 26.125 85.664062 26.125 C 86.492188 22.136719 89.164062 22.851562 89.164062 22.851562 C 89.164062 22.851562 83.898438 10.441406 83.558594 9.046875 C 83.21875 7.65625 84.613281 5.777344 86.117188 7.882812 C 87.582031 9.914062 91.609375 17.660156 91.832031 18.152344 C 90.328125 13.601562 88.335938 10.929688 87.171875 7.542969 C 86.53125 5.703125 87.394531 5.289062 88.296875 5.25 C 89.199219 5.25 90.027344 5.703125 90.59375 6.378906 C 91.683594 7.730469 93.789062 10.667969 95.59375 14.878906 C 98.152344 20.859375 99.46875 21.085938 99.46875 21.085938 C 99.46875 21.085938 96.535156 12.320312 96.648438 8.9375 C 96.722656 6.941406 97.511719 7.054688 98.152344 7.46875 C 98.640625 7.808594 99.019531 8.296875 99.207031 8.859375 C 99.84375 10.742188 101.839844 16.421875 103.832031 20.746094 C 106.277344 26.011719 106.652344 30.035156 108.382812 38.648438 C 110.152344 47.261719 123.652344 69.378906 123.652344 69.378906 C 123.652344 69.378906 131.023438 86.417969 132.792969 91.492188 C 134.5625 96.570312 133.320312 96.757812 133.320312 100.445312 C 133.320312 104.132812 133.921875 115.753906 133.921875 115.753906 C 133.921875 115.753906 137.15625 116.355469 137.71875 118.726562 C 138.320312 121.132812 135.386719 122.183594 135.386719 122.75 C 135.386719 123.351562 136.628906 124.40625 136.628906 124.40625 C 137.496094 124.59375 137.003906 126.058594 136.96875 126.171875 C 138.433594 125.53125 138.660156 127.449219 138.660156 127.449219 C 138.734375 130.273438 139.375 130.6875 139.375 130.6875 C 139.375 130.6875 143.136719 132.003906 142.082031 135.425781 C 141.03125 138.847656 132.792969 140.992188 132.792969 140.992188 C 131.628906 143.097656 131.136719 148.964844 131.136719 148.964844 C 130.421875 163.21875 142.382812 171.644531 142.382812 171.644531 C 162.28125 187.328125 161.679688 201.019531 160.851562 206.398438 C 160.023438 211.777344 154.644531 214.109375 157.355469 221.03125 C 160.0625 227.949219 159.007812 233.894531 155.023438 239.871094 C 151.035156 245.851562 146.296875 255.894531 146.296875 255.894531 L 148.214844 255.558594 C 148.214844 255.558594 170.519531 247.660156 184.171875 245.363281 C 197.863281 243.070312 205.046875 246.417969 211.550781 263.605469 C 218.132812 280.871094 222.609375 302.984375 222.609375 302.984375 C 222.609375 302.984375 224.453125 315.019531 228.476562 330.292969 C 232.503906 345.5625 240.511719 352.859375 240.511719 352.859375 L 259.28125 364.707031 C 259.28125 364.707031 267.707031 370.761719 273.835938 370.234375 C 278.691406 369.820312 278.765625 370.835938 278.613281 371.25 C 278.5 371.550781 278.425781 371.851562 278.351562 372.152344 C 276.996094 377.15625 269.664062 375.839844 260.070312 375.3125 C 251.949219 374.898438 228.742188 375.164062 220.242188 375.277344 C 217.34375 375.3125 214.9375 373.054688 214.863281 370.160156 C 214.824219 368.996094 214.898438 367.566406 215.125 365.835938 C 216.367188 356.882812 211.777344 345.636719 211.777344 345.636719 L 197.222656 314.570312 C 186.691406 300.351562 186.351562 283.691406 186.351562 283.691406 C 177.402344 283.464844 156.5625 300.050781 156.5625 300.050781 C 128.617188 317.617188 107.179688 315.734375 107.179688 315.734375 C 107.179688 315.734375 98.191406 323.109375 93.261719 328.148438 C 88.335938 333.1875 70.808594 349.660156 65.996094 353.308594 C 61.21875 356.921875 44.707031 366.886719 39.554688 369.332031 C 34.402344 371.777344 26.199219 374.261719 21.3125 373.054688 C 16.382812 371.890625 11.71875 367.226562 9.277344 361.472656 C 8.070312 358.574219 8.070312 354.101562 8.375 350.375 Z M 44.855469 318.519531 C 44.855469 318.519531 57.945312 307.046875 60.765625 304.378906 C 60.765625 304.378906 54.671875 279.214844 85.703125 270 C 85.703125 270 97.625 259.128906 99.996094 257.25 C 99.996094 257.25 108.195312 246.945312 105.601562 224.265625 L 101.160156 202.261719 C 101.160156 202.261719 95.332031 192.671875 93.5625 191.503906 C 93.5625 191.503906 82.917969 192.558594 78.59375 192.445312 C 74.269531 192.332031 68.402344 198.875 68.402344 198.875 C 68.402344 198.875 51.890625 219.9375 47.453125 233.027344 C 47.453125 233.027344 45.796875 239.460938 50.160156 247.996094 L 51.664062 251.15625 C 51.664062 251.15625 61.03125 260.03125 58.097656 266.351562 C 58.097656 266.351562 56.101562 268.683594 53.167969 269.625 C 50.234375 270.5625 45.457031 273.722656 45.234375 281.773438 C 45.007812 289.859375 44.292969 311.710938 44.292969 311.710938 Z M 44.855469 318.519531 "/></g><g style="fill:#000000;fill-opacity:1;"><g transform="translate(210.006903, 349.796339)"><path style="stroke:none" d="M 6.375 -0.03125 C 6.09375 -0.03125 5.953125 -0.171875 5.953125 -0.453125 L 5.953125 -6.625 L 5.90625 -6.828125 L 0.84375 -17 C 0.800781 -17.082031 0.78125 -17.15625 0.78125 -17.21875 C 0.78125 -17.300781 0.8125 -17.367188 0.875 -17.421875 C 0.9375 -17.472656 1.03125 -17.5 1.15625 -17.5 L 4.046875 -17.5 C 4.285156 -17.5 4.453125 -17.390625 4.546875 -17.171875 L 7.59375 -10.671875 C 7.632812 -10.617188 7.675781 -10.59375 7.71875 -10.59375 C 7.757812 -10.59375 7.785156 -10.617188 7.796875 -10.671875 L 10.84375 -17.171875 C 10.96875 -17.390625 11.132812 -17.5 11.34375 -17.5 L 14.28125 -17.5 C 14.53125 -17.5 14.65625 -17.398438 14.65625 -17.203125 C 14.65625 -17.117188 14.632812 -17.050781 14.59375 -17 L 9.5 -6.828125 L 9.453125 -6.625 L 9.453125 -0.453125 C 9.453125 -0.171875 9.3125 -0.03125 9.03125 -0.03125 Z M 6.375 -0.03125 "/></g></g><g style="fill:#000000;fill-opacity:1;"><g transform="translate(227.254453, 349.796339)"><path style="stroke:none" d="M 7.75 0.28125 C 6.445312 0.28125 5.300781 0.015625 4.3125 -0.515625 C 3.320312 -1.054688 2.550781 -1.804688 2 -2.765625 C 1.445312 -3.722656 1.171875 -4.828125 1.171875 -6.078125 L 1.171875 -11.421875 C 1.171875 -12.660156 1.445312 -13.753906 2 -14.703125 C 2.550781 -15.648438 3.320312 -16.382812 4.3125 -16.90625 C 5.300781 -17.4375 6.445312 -17.703125 7.75 -17.703125 C 9.0625 -17.703125 10.210938 -17.4375 11.203125 -16.90625 C 12.203125 -16.382812 12.972656 -15.648438 13.515625 -14.703125 C 14.066406 -13.753906 14.34375 -12.660156 14.34375 -11.421875 L 14.34375 -6.078125 C 14.34375 -4.828125 14.066406 -3.71875 13.515625 -2.75 C 12.972656 -1.78125 12.203125 -1.03125 11.203125 -0.5 C 10.210938 0.0195312 9.0625 0.28125 7.75 0.28125 Z M 7.75 -2.75 C 8.664062 -2.75 9.40625 -3.039062 9.96875 -3.625 C 10.539062 -4.207031 10.828125 -4.984375 10.828125 -5.953125 L 10.828125 -11.453125 C 10.828125 -12.421875 10.546875 -13.195312 9.984375 -13.78125 C 9.429688 -14.375 8.6875 -14.671875 7.75 -14.671875 C 6.832031 -14.671875 6.09375 -14.375 5.53125 -13.78125 C 4.976562 -13.195312 4.703125 -12.421875 4.703125 -11.453125 L 4.703125 -5.953125 C 4.703125 -4.984375 4.976562 -4.207031 5.53125 -3.625 C 6.09375 -3.039062 6.832031 -2.75 7.75 -2.75 Z M 7.75 -2.75 "/></g></g><g style="fill:#000000;fill-opacity:1;"><g transform="translate(244.601978, 349.796339)"><path style="stroke:none" d="M 7.671875 0.203125 C 6.390625 0.203125 5.253906 -0.0507812 4.265625 -0.5625 C 3.285156 -1.082031 2.523438 -1.804688 1.984375 -2.734375 C 1.441406 -3.660156 1.171875 -4.734375 1.171875 -5.953125 L 1.171875 -11.546875 C 1.171875 -12.765625 1.441406 -13.835938 1.984375 -14.765625 C 2.523438 -15.703125 3.285156 -16.425781 4.265625 -16.9375 C 5.253906 -17.445312 6.390625 -17.703125 7.671875 -17.703125 C 8.941406 -17.703125 10.0625 -17.453125 11.03125 -16.953125 C 12.007812 -16.453125 12.769531 -15.769531 13.3125 -14.90625 C 13.851562 -14.050781 14.125 -13.097656 14.125 -12.046875 L 14.125 -12 C 14.125 -11.71875 13.984375 -11.578125 13.703125 -11.578125 L 11.03125 -11.578125 C 10.894531 -11.578125 10.785156 -11.597656 10.703125 -11.640625 C 10.628906 -11.679688 10.59375 -11.726562 10.59375 -11.78125 L 10.59375 -11.953125 C 10.59375 -12.710938 10.328125 -13.351562 9.796875 -13.875 C 9.265625 -14.40625 8.554688 -14.671875 7.671875 -14.671875 C 6.773438 -14.671875 6.054688 -14.390625 5.515625 -13.828125 C 4.972656 -13.273438 4.703125 -12.550781 4.703125 -11.65625 L 4.703125 -5.84375 C 4.703125 -4.945312 4.992188 -4.21875 5.578125 -3.65625 C 6.160156 -3.101562 6.898438 -2.828125 7.796875 -2.828125 C 8.660156 -2.828125 9.351562 -3.054688 9.875 -3.515625 C 10.394531 -3.972656 10.65625 -4.609375 10.65625 -5.421875 L 10.65625 -6.53125 C 10.65625 -6.625 10.601562 -6.671875 10.5 -6.671875 L 7.84375 -6.671875 C 7.5625 -6.671875 7.421875 -6.8125 7.421875 -7.09375 L 7.421875 -9.15625 C 7.421875 -9.4375 7.5625 -9.578125 7.84375 -9.578125 L 13.703125 -9.578125 C 13.984375 -9.578125 14.125 -9.4375 14.125 -9.15625 L 14.125 -5.96875 C 14.125 -4.707031 13.859375 -3.609375 13.328125 -2.671875 C 12.796875 -1.742188 12.039062 -1.03125 11.0625 -0.53125 C 10.082031 -0.0390625 8.953125 0.203125 7.671875 0.203125 Z M 7.671875 0.203125 "/></g></g><g style="fill:#000000;fill-opacity:1;"><g transform="translate(261.599566, 349.796339)"><path style="stroke:none" d="M 12.78125 0 C 12.539062 0 12.378906 -0.113281 12.296875 -0.34375 L 11.59375 -2.671875 C 11.582031 -2.753906 11.535156 -2.796875 11.453125 -2.796875 L 5.328125 -2.796875 C 5.242188 -2.796875 5.191406 -2.753906 5.171875 -2.671875 L 4.46875 -0.34375 C 4.382812 -0.113281 4.226562 0 4 0 L 1.09375 0 C 0.945312 0 0.835938 -0.046875 0.765625 -0.140625 C 0.703125 -0.234375 0.695312 -0.34375 0.75 -0.46875 L 6.078125 -17.15625 C 6.160156 -17.382812 6.316406 -17.5 6.546875 -17.5 L 10.21875 -17.5 C 10.457031 -17.5 10.617188 -17.382812 10.703125 -17.15625 L 16.03125 -0.46875 C 16.039062 -0.4375 16.046875 -0.390625 16.046875 -0.328125 C 16.046875 -0.222656 16.007812 -0.140625 15.9375 -0.078125 C 15.875 -0.0234375 15.785156 0 15.671875 0 Z M 6.046875 -5.703125 C 6.035156 -5.585938 6.078125 -5.53125 6.171875 -5.53125 L 10.59375 -5.53125 C 10.695312 -5.53125 10.738281 -5.585938 10.71875 -5.703125 L 8.46875 -13.328125 C 8.457031 -13.390625 8.429688 -13.421875 8.390625 -13.421875 C 8.347656 -13.421875 8.3125 -13.390625 8.28125 -13.328125 Z M 6.046875 -5.703125 "/></g></g></g></svg>